<?xml version="1.0" encoding="UTF-8"?>
<svg xmlns="http://www.w3.org/2000/svg" viewBox="0 0 1920 1080">
  <defs>
    <style>
      .cls-1 {
        fill: #fff;
      }
    </style>
  </defs>
  <rect class="cls-1" width="1920" height="1080"/>
  <g id="Layer_1" data-name="Layer 1">
    <g>
      <path class="cls-1" d="M1855.71,373.96c-61.33-63.56-171.99-101.75-259.25-83.35-49.62,10.31-70.25,37.63-80.28,85.85-3.07,14.5-4.19,39.87-9.2,51.85-1.67,4.18-5.58,7.52-9.76,3.9-3.62-3.35-7.81-16.73-9.2-22.02-7.25-24.53-16.17-81.12-37.08-95.89-21.74-15.06-49.34,14.77-61.33,31.22-33.73,46.27-32.34,95.62-15.33,148.58,38.19,119.31,169.48,263.98,293.53,294.65,84.75,20.9,149.42-17,197.09-84.75,70.52-100.08,79.44-237.78-9.2-330.05M1528.44,497.73c17.29-32.89,49.06-61.04,82.79-76.37,21.19-9.48,44.05-13.94,67.18-15.06v-23.14c-33.17-2.79-58.82-30.66-57.98-64.11,30.66-.28,55.75,20.91,63.56,50.18,6.97-29,33.45-50.74,63.84-50.18.83,33.18-25.37,61.61-58.26,64.11v23.14c58.54,1.4,113.74,31.78,145.23,80.84,1.95,3.06,10.59,16.72,10.59,19.23.28,1.39-.28,2.23-1.67,2.23-1.12,0-6.41-7.52-7.81-9.2-22.58-25.92-49.62-48.5-81.95-60.49-80.84-30.11-162.52-5.86-218.27,57.7-2.79,3.06-5.85,8.08-8.64,10.87-1.67,1.95-3.35,1.39-3.07-.84.28-1.39,3.63-7.25,4.46-8.92M1500.01,579.69c-17.56-4.18-46.83-36.8-50.46-54.36-2.79-13.38,3.62-32.05,18.68-34.28,25.64-3.9,49.06,36.51,52.69,57.98,2.51,14.5-1.67,35.41-20.91,30.66M1528.73,669.45c-9.2-15.06-15.33-32.06-19.23-49.06.83-.28,1.12-.28,1.95.28,1.12,1.12,2.51,3.62,4.19,5.02,18.12,14.77,34.84-17.84,40.42-31.23,6.41-15.61,7.81-32.34,13.38-47.11,8.09-22.3,37.36-22.86,47.12-1.39,4.46,9.76-1.12,29.27-3.9,39.86-6.69,27.87-25.37,87.25-57.15,94.78-13.1,3.07-20.07-.28-26.76-11.15M1559.11,707.36c-.56-.56-1.11-.84-.83-1.96h11.43c3.9,0,13.66-5.01,17-7.24,32.89-22.3,51.01-83.91,59.65-120.71,3.63-15.05,5.3-32.05,9.2-46.55,9.76-35.96,65.5-29.82,62.44,15.06-1.95,30.1-15.61,77.77-26.48,106.2-10.59,27.32-38.47,85.86-72.19,88.37-17.84,1.12-47.67-20.91-60.22-33.17M1670.05,753.64c-3.06-.28-15.05-1.4-17.28-2.23-3.9-1.67,3.62-3.9,4.74-4.46,8.64-4.74,16.45-10.87,23.41-17.84,35.69-37.35,57.43-116.52,66.63-166.7,2.51-13.66,3.35-27.32,5.58-40.7,2.79-18.12,19.23-28.16,36.8-21.75,22.58,8.65,17.56,32.06,15.06,51.29-5.3,47.39-19.23,102.86-40.14,145.79-20.91,43.21-45.44,59.38-94.78,56.59M1853.2,594.74c-5.58,51.29-34.01,98.96-76.66,127.39-1.67,1.12-10.88,8.36-9.2,2.51,12.27-12.54,20.63-28.99,27.32-45.15,10.04-23.42,17.29-48.23,22.86-73.04,2.23-10.32,3.9-26.21,7.25-35.68,1.95-5.3,8.08-10.88,13.93-10.88,19.23-.83,15.89,22.3,14.5,34.85"/>
      <path class="cls-1" d="M206.84,537.31c.55-.28,1.11-.56,1.67-.83,2.78,1.39,5.57,2.51,8.64,3.06,3.62,1.12,7.53,1.95,11.15,2.23,3.9.28,7.81.56,11.43.56,5.57,0,11.15-.28,16.72-1.12,5.29-.83,10.87-1.95,16.73-3.62,5.85-1.67,11.99-3.9,18.12-6.69,6.41-2.79,13.1-6.13,20.62-10.31,7.81-4.19,13.94-7.25,18.68-9.48,4.46-2.23,8.08-3.9,10.87-4.74,2.51-.84,4.19-1.4,5.58-1.4l3.07-22.02c-4.19-.56-7.81-1.39-11.43-2.23-3.9-.83-7.8-2.23-12.26-3.9-4.19-1.95-9.48-3.9-15.89-6.69-9.2-3.63-16.45-6.42-21.75-7.81-5.29-1.39-10.03-2.23-14.22-2.23-6.41,0-12.26,1.39-17.28,4.18-4.74,2.79-9.2,7.25-12.54,13.38l12.82,13.1c2.23-2.51,4.74-4.18,7.81-5.58,3.06-1.12,6.41-1.67,9.75-1.67,2.23,0,4.74,0,7.53.56,2.79.56,5.86,1.12,8.92,1.95,3.35,1.12,6.69,2.23,9.75,3.62,6.42,2.51,11.71,4.46,16.45,6.13-1.39.56-2.79,1.12-4.18,1.67-4.46,1.39-9.48,3.63-15.89,6.13-5.29,1.95-10.31,3.9-15.06,5.58-4.74,1.39-9.47,2.78-13.93,3.9-4.46.83-8.92,1.67-13.66,2.22-4.74.56-9.76.84-15.33.84h-11.98c1.95-4.46,2.78-9.48,2.78-14.77,0-8.08-1.67-14.77-5.01-20.91-3.35-5.85-7.81-10.31-13.66-13.66-5.86-3.35-12.27-5.02-19.24-5.02-6.13,0-12.26,1.67-18.68,4.46-6.41,2.79-12.26,6.97-18.4,12.26-5.85,5.3-11.15,11.71-16.17,18.96-2.79,4.18-5.58,8.64-7.8,13.38-2.51-1.96-3.9-5.02-3.9-8.92v-4.19c.28-1.95.28-3.62.56-5.02l1.39-16.72h-18.68l-2.51,24.53c-.28,2.79-1.12,5.3-1.67,7.25-1.4,3.07-3.63,5.3-6.69,6.42-3.35,1.39-8.08,1.95-14.22,1.95-5.02,0-9.2-.56-11.99-1.39-3.07-1.12-5.3-2.79-6.97-5.02-1.67-2.23-3.06-5.58-4.18-9.76l-5.3-18.4-19.79,5.58c1.67,5.85,3.06,11.15,4.18,16.16,1.11,5.02,1.95,9.48,2.51,13.38.55,3.9.83,7.25.83,10.04,0,9.76-3.63,17.56-10.87,23.14-7.25,5.29-18.68,9.47-34.29,12.26l4.74,23.7c13.66-1.95,24.8-5.29,33.73-10.04,8.64-5.01,15.33-11.43,19.52-20.07,3.06-5.85,5.01-12.83,5.85-20.63,1.67,1.4,3.62,2.79,5.85,3.9,4.74,2.23,10.04,3.35,16.17,3.35,8.64,0,15.89-1.12,20.91-3.35,4.74-1.95,8.08-5.01,10.31-8.92,2.51,4.18,6.41,6.97,11.71,8.92,5.85,2.23,13.93,3.35,24.25,3.35h25.09c11.43,0,20.91-1.67,28.71-5.02M152.2,516.13c-1.95,0-3.9,0-5.58-.28,2.79-3.9,5.86-7.24,8.64-10.59,5.86-6.69,11.71-11.43,18.12-15.06,6.13-3.35,12.27-5.02,18.4-5.02,3.62,0,6.97.56,10.04,1.96,3.06,1.39,5.29,3.35,6.97,5.85,1.67,2.23,2.51,5.02,2.51,8.36s-1.11,6.13-3.34,8.08c-2.24,2.23-5.86,3.9-10.88,5.02-5.02,1.12-11.43,1.67-19.51,1.67h-25.37Z"/>
      <rect class="cls-1" x="154.81" y="422.29" width="19.32" height="19.32" transform="translate(-257.26 242.82) rotate(-45)"/>
      <rect class="cls-1" x="271.06" y="421.45" width="19.32" height="19.32" transform="translate(-222.62 324.77) rotate(-45)"/>
      <path class="cls-1" d="M450.76,514.74c0-7.53-1.95-14.78-5.85-22.58-3.35-6.42-7.81-12.55-13.67-18.68,5.02-6.42,8.65-12.27,11.71-17.84,3.35-5.85,5.86-11.43,7.25-16.73,1.39-5.57,2.23-10.59,2.23-15.89v-9.2l-22.31,2.79v8.92c0,5.02-1.11,10.04-3.06,15.61-2.23,5.02-5.58,11.15-10.31,17.84l-42.65-41.53-14.5,16.16,44.6,40.98c-2.51,2.78-5.02,5.58-7.81,8.64-8.36,8.92-18.68,19.51-30.66,31.5l-1.4,23.69c4.19,1.12,8.64,2.23,13.38,3.07,4.74.83,9.48,1.39,14.22,1.95,5.02.56,9.75.56,14.22.56,15.06,0,26.2-2.23,33.45-7.25,7.53-4.74,11.15-12.26,11.15-22.02M424.83,516.69c-3.62,1.39-9.2,2.23-17.56,2.23-2.79,0-5.85,0-8.92-.28-2.51-.28-4.74-.28-6.97-.56,6.69-6.97,12.83-13.1,18.12-18.95,3.35-3.62,6.69-7.25,9.48-10.6,3.06,3.07,5.29,6.13,6.97,8.92,2.79,4.18,4.18,8.08,4.18,11.43,0,3.63-1.67,6.13-5.29,7.81"/>
      <polygon class="cls-1" points="497.87 542.33 497.87 413.83 475.57 416.61 477.24 542.33 497.87 542.33"/>
      <rect class="cls-1" x="685.02" y="422.29" width="19.32" height="19.32" transform="translate(-101.96 617.73) rotate(-45)"/>
      <path class="cls-1" d="M760.46,502.19c0-7.52-1.67-14.22-5.02-20.35-3.62-6.13-8.08-10.87-13.93-14.49-6.13-3.63-12.55-5.58-20.07-5.58-6.41,0-12.82,1.67-19.23,4.46-6.13,3.06-12.27,7.25-18.12,12.54-5.85,5.58-11.15,11.71-15.89,18.95-3.06,4.74-5.85,9.2-8.36,14.22-.28-4.18-.83-8.92-1.67-13.66-1.12-7.24-2.51-14.77-4.18-22.3l-20.63,7.81c1.95,8.36,3.62,15.89,4.74,22.3,1.39,6.13,2.23,11.43,2.79,15.33.56,4.19.83,7.25.83,8.92,0,4.18-1.11,7.81-3.9,10.87-2.78,3.35-6.41,5.86-11.15,7.52-4.46,1.96-9.76,2.79-15.89,2.79-9.48,0-16.73-2.51-21.46-7.53-5.02-4.74-7.25-12.26-7.25-21.74,0-2.23,0-5.02.28-7.81.56-2.79,1.11-6.13,1.95-10.04.83-3.9,1.95-8.36,3.06-13.93l-18.4-3.9c-2.79,9.47-4.74,17.56-5.86,23.97-1.11,6.41-1.67,12.27-1.67,17.84,0,15.61,4.19,27.59,12.82,36.51,8.65,8.64,20.63,13.1,35.96,13.1,10.87,0,20.07-2.23,27.59-6.41,7.53-4.19,13.38-9.76,17.56-16.73,2.79-4.46,4.46-9.47,5.3-14.77,5.29,1.4,11.99,2.23,20.63,2.23h27.04c11.71,0,21.47-1.67,29.27-5.02,7.52-3.34,13.38-8.08,17.28-14.22,3.63-6.13,5.58-13.1,5.58-20.91M738.44,510c-2.23,1.95-5.58,3.62-10.6,4.46-5.02,1.12-11.7,1.67-20.07,1.67h-33.18c2.79-3.9,5.86-7.52,8.65-10.6,5.85-6.41,11.7-11.43,17.84-15.05,6.41-3.63,12.54-5.3,18.4-5.3,4.18,0,8.08.84,11.43,2.23,3.06,1.67,5.85,3.9,7.81,6.42,1.67,2.51,2.79,5.29,2.79,8.36s-1.12,5.58-3.07,7.81"/>
      <path class="cls-1" d="M755.72,562.13l4.46,23.7c19.52-2.79,34.28-9.2,43.76-18.68,9.76-9.76,14.5-23.97,14.5-42.09,0-7.53-.56-15.61-2.23-24.25-1.39-8.92-3.35-17.84-6.13-26.48l-21.46,7.52c3.35,9.76,6.13,18.4,7.81,25.93,1.95,7.81,2.79,13.94,2.79,18.96,0,9.76-3.62,17.56-10.59,23.14-7.24,5.57-18.12,9.76-32.89,12.26"/>
      <path class="cls-1" d="M834.89,433.62l44.32,40.98c-2.51,2.79-5.02,5.58-7.81,8.65-8.36,8.92-18.4,19.51-30.66,31.5l-1.11,23.7c4.18,1.12,8.64,2.23,13.38,3.06,4.45.84,9.2,1.4,14.22,1.95,4.74.56,9.47.56,13.93.56,15.06,0,26.21-2.23,33.73-7.25,7.25-4.74,10.87-12.27,10.87-22.02,0-7.52-1.95-14.77-5.85-22.58-3.07-6.41-7.81-12.82-13.38-18.95,4.74-6.42,8.64-11.99,11.71-17.56,3.35-5.85,5.58-11.43,7.25-16.73,1.39-5.58,2.23-10.59,2.23-15.89v-9.2l-22.31,2.79v8.92c0,5.01-1.12,10.03-3.35,15.61-2.23,5.02-5.58,11.15-10.03,17.84l-42.65-41.54-14.49,16.17ZM893.99,488.53c3.06,3.06,5.29,6.13,7.25,8.92,2.79,4.18,3.9,8.08,3.9,11.43,0,3.62-1.67,6.13-5.3,7.81-3.35,1.39-9.2,2.23-17.28,2.23-2.79,0-5.86,0-8.92-.28-2.51-.28-4.74-.28-7.25-.56,6.97-6.69,12.82-13.1,18.4-18.95,3.35-3.63,6.41-7.25,9.2-10.6"/>
      <path class="cls-1" d="M861.93,403.23c4.18-.56,8.36-.84,11.98-1.12v-11.43c-4.74.56-8.36.83-10.87.83-2.51.28-4.19.28-5.02.28-2.51,0-4.46-.84-6.13-2.23-1.67-1.67-2.51-3.62-2.51-5.85s.56-3.9,2.22-5.3c1.67-1.39,3.63-2.23,6.13-2.23,1.12,0,2.51.28,4.19.56,1.95.28,3.62.84,5.58,1.4l2.51-9.48c-2.23-1.12-4.46-2.23-6.97-2.79-2.51-.56-4.74-.83-6.97-.83-4.74,0-8.92,1.67-12.27,5.01-3.35,3.07-5.02,7.25-5.02,12.27,0,3.35.83,6.41,2.23,9.2.56.84.83,1.67,1.67,2.23l-9.48,1.4v11.7c5.58-.83,10.59-1.67,15.33-2.23,5.02-.56,9.48-1.11,13.38-1.39"/>
      <polygon class="cls-1" points="973.16 542.33 973.16 413.83 950.57 416.61 952.53 542.33 973.16 542.33"/>
      <path class="cls-1" d="M1112.54,596.41c6.13-1.12,12.27-2.23,18.12-3.9l-2.79-23.41c-5.02.83-10.31,1.67-15.33,1.95-5.29.56-10.31.84-14.5.84-9.48,0-17.28-1.12-23.41-3.07-6.41-2.23-11.43-5.02-14.5-8.64-3.35-3.62-5.01-8.08-5.01-13.1,0-4.74,1.67-9.2,5.01-13.66,3.07-4.19,7.81-8.36,13.67-11.71,6.13-3.35,13.09-6.13,21.18-8.08,8.08-1.95,17-3.07,26.48-3.07l1.95-23.14c-13.38,0-25.37,1.67-36.24,5.02-1.95.56-3.9,1.4-5.85,1.96-1.67-1.4-3.35-2.79-4.74-3.9-3.62-3.07-6.13-5.85-7.52-8.36-1.39-2.23-2.23-4.74-2.23-6.97,0-3.07,1.12-6.13,3.07-8.65,1.95-2.51,4.74-4.45,8.08-6.13,3.35-1.4,6.97-2.23,10.59-2.23,3.35,0,6.97.56,10.32,1.95,3.62,1.4,6.97,3.35,10.59,5.58l10.59-14.77c-5.58-5.02-10.87-8.64-15.61-11.15-5.02-2.23-10.32-3.35-16.17-3.35-7.25,0-13.93,1.67-20.07,5.3-6.13,3.62-10.88,8.36-14.5,14.22-3.62,6.13-5.29,12.82-5.29,20.35,0,3.62.56,7.25,1.67,11.15,1.12,3.63,3.35,7.81,6.41,11.99,1.39,1.95,2.79,3.9,4.46,5.86-.28.28-.84.56-1.11.84-7.53,5.85-13.38,12.54-17.29,20.07-4.18,7.52-6.13,15.61-6.13,23.97,0,9.48,2.51,17.84,7.25,25.09,4.74,7.24,11.43,12.82,20.35,16.72,8.65,3.9,18.96,5.85,30.66,5.85,5.86,0,11.99-.28,17.84-1.39"/>
      <path class="cls-1" d="M1187.8,567.14c9.75-9.76,14.5-23.98,14.5-42.09,0-7.53-.56-15.61-2.23-24.25-1.4-8.92-3.62-17.84-6.13-26.48l-21.46,7.52c3.35,9.76,6.13,18.4,7.81,25.93,1.95,7.81,2.79,13.94,2.79,18.96,0,9.76-3.63,17.56-10.59,23.14-7.25,5.57-18.12,9.76-32.89,12.26l4.46,23.7c19.51-2.79,34.28-9.2,43.76-18.68"/>
      <path class="cls-1" d="M1262.23,544.01c14.49,0,25.37-2.79,32.34-8.64,7.25-5.86,10.59-14.5,10.59-25.65,0-4.18-.56-8.36-1.4-12.82-1.12-4.46-3.06-9.2-5.58-14.77-2.51-5.3-6.13-11.71-10.31-18.68-4.46-6.97-9.75-15.06-16.45-24.54l-17.84,13.11c5.85,8.64,10.87,15.89,14.77,22.02,4.18,6.13,7.25,11.43,9.76,15.61,2.51,4.46,4.46,7.81,5.58,10.59.83,2.78,1.39,5.29,1.39,6.97,0,3.06-1.67,5.85-5.01,7.81-3.35,1.95-8.92,2.79-17.01,2.79-5.85,0-10.87-.56-14.22-1.67-3.62-1.12-6.13-2.79-7.52-5.3-1.39-2.51-2.23-5.29-2.23-8.92v-10.04h-18.95v19.23c0,11.15,3.35,19.51,9.75,24.81,6.69,5.57,17.56,8.08,32.34,8.08"/>
      <polygon class="cls-1" points="232.77 665.55 238.9 659.41 232.77 653 226.63 659.41 232.77 665.55"/>
      <path class="cls-1" d="M264.27,686.17c-1.67-3.06-3.9-5.58-6.97-7.52-2.79-1.67-6.13-2.79-9.76-2.79-3.34,0-6.69.84-10.03,2.51-3.07,1.67-6.42,3.9-9.48,6.68-3.07,3.07-5.85,6.42-8.64,10.32-1.96,2.78-3.63,5.85-5.3,8.92v-.56c-.28-3.06-.56-6.13-1.11-9.76-.83-3.9-1.39-7.52-2.23-11.43l-7.25,2.79c1.12,5.29,1.96,9.76,2.79,13.1.56,3.62,1.12,6.41,1.4,8.36.28,1.95.28,3.35.28,4.46,0,2.51-.83,4.74-2.23,6.68-1.67,1.96-3.9,3.35-6.69,4.46-2.79,1.4-5.86,1.96-9.48,1.96-5.58,0-9.76-1.67-12.54-4.46-3.07-3.06-4.46-7.25-4.46-12.83,0-1.39.28-2.79.28-4.46.28-1.67.56-3.62,1.12-5.57.28-2.23.84-4.74,1.67-7.53l-6.69-1.39c-1.11,4.74-1.95,8.64-2.51,11.7-.84,3.35-1.11,6.42-1.11,9.2,0,7.52,2.23,13.1,6.42,17.56,4.18,4.18,10.03,6.13,17.56,6.13,5.01,0,9.47-.84,13.38-2.79,3.62-1.95,6.69-4.46,8.92-7.81,1.67-2.79,2.79-5.86,2.79-9.48.83,0,1.67.28,2.51.56,2.51.28,5.85.56,10.31.56h9.76c7.24,0,13.1-.56,17.28-1.95,4.46-1.4,7.81-3.63,9.76-6.13,1.95-2.79,2.79-5.86,2.79-9.76,0-3.35-.83-6.69-2.51-9.76M258.13,701.23c-1.39,1.39-3.62,2.51-7.25,3.06-3.35.56-8.08,1.12-14.49,1.12h-13.38c-1.12,0-1.96,0-2.79-.28,1.95-3.35,4.18-6.42,6.13-8.92,3.06-3.9,6.41-6.69,9.76-8.92,3.63-2.23,6.97-3.35,10.31-3.35,2.79,0,5.02.56,7.25,1.95,1.95,1.12,3.63,2.51,4.74,4.46,1.11,1.67,1.95,3.62,1.95,5.85,0,1.95-.84,3.9-2.23,5.02"/>
      <path class="cls-1" d="M292.42,682.55l-7.24,2.79c1.39,4.18,2.51,8.08,3.34,11.99,1.12,4.18,1.4,7.25,1.4,10.04,0,5.29-1.95,9.48-6.13,12.27-3.9,3.06-10.04,5.29-18.4,6.68l1.67,8.36c9.76-1.39,17.29-4.18,22.31-8.92,5.01-4.74,7.52-11.43,7.52-19.8,0-3.34-.56-7.24-1.12-11.15-.83-3.9-1.95-8.08-3.34-12.27"/>
      <path class="cls-1" d="M318.9,638.51c2.23-.28,4.46-.28,6.42-.56v-4.74c-2.24.28-4.19.55-5.58.55-1.4.28-2.23.28-2.79.28-1.67,0-2.79-.56-3.9-1.39-.84-1.12-1.4-2.23-1.4-3.63,0-1.12.56-2.23,1.4-3.06,1.12-.84,2.23-1.4,3.62-1.4.56,0,1.67.28,2.79.28.83.28,1.95.56,2.79.83l.83-4.18c-.83-.56-1.95-.84-3.06-1.12-1.11-.28-2.23-.56-3.35-.56-2.79,0-5.02.83-6.69,2.51s-2.51,3.9-2.51,6.42c0,1.67.56,3.35,1.12,5.01.28.28.56.84.83,1.12l-5.01.55v5.02c2.51-.56,5.01-.83,7.53-1.12,2.51-.28,4.74-.56,6.97-.83"/>
      <path class="cls-1" d="M344.82,653c0,2.79-.83,5.85-1.95,9.2-1.39,3.35-3.35,6.97-6.13,10.88-.28.28-.28.55-.56.83l-23.97-25.93-5.02,5.02,24.81,26.48c-1.95,2.51-3.9,4.74-6.13,7.25-4.46,5.29-9.48,10.87-15.89,17.28l-.28,8.08c1.95.56,4.19,1.12,6.42,1.4,2.51.28,4.74.83,6.97.83,2.23.28,4.46.56,6.69.56,7.52,0,12.82-1.12,16.17-3.34,3.34-1.96,5.01-5.58,5.01-10.32,0-3.62-1.12-7.52-3.06-11.7-1.67-3.63-4.19-7.25-7.25-10.87,2.23-2.79,3.9-5.58,5.3-8.36,1.95-3.35,3.34-6.69,4.18-9.76,1.12-3.06,1.67-6.13,1.67-8.64v-5.85l-6.97,1.12v5.85ZM341.76,691.47c1.39,3.06,2.23,5.85,2.23,8.08,0,2.51-.84,4.19-3.06,5.3-1.95.83-5.3,1.39-10.04,1.39-1.67,0-3.35,0-5.3-.28-1.95,0-3.9-.28-5.57-.28-.84,0-1.4-.28-1.95-.28,3.63-3.9,7.25-7.53,10.31-11.15,3.07-3.62,5.86-6.97,8.09-10.04,2.23,2.23,3.9,4.74,5.29,7.25"/>
      <polygon class="cls-1" points="366.29 713.77 372.98 713.77 372.98 646.03 366.02 647.15 366.29 713.77"/>
      <rect class="cls-1" x="441.4" y="745.4" width="8.67" height="8.67" transform="translate(-399.57 534.72) rotate(-45)"/>
      <rect class="cls-1" x="428.02" y="745.4" width="8.67" height="8.67" transform="translate(-403.49 525.26) rotate(-45)"/>
      <rect class="cls-1" x="619.25" y="663.44" width="8.67" height="8.67" transform="translate(-289.55 636.56) rotate(-45)"/>
      <path class="cls-1" d="M651.19,694.26c0,3.9-1.11,6.69-2.79,8.36-1.95,1.67-5.02,2.78-9.48,2.78-4.74,0-8.08-.83-10.04-2.22-1.95-1.4-2.78-3.35-2.78-5.86v-2.51c0-1.12.28-1.95.28-2.51l.56-7.8h-6.69l-1.39,13.1c0,1.12-.28,2.23-.84,3.35-.56,1.39-1.67,2.51-3.62,3.35-1.67.56-4.74,1.11-8.64,1.11h-1.67c-3.07,0-5.86-1.11-8.65-3.06-2.22-1.39-3.9-3.35-5.02-5.85,1.4-.84,2.51-1.4,3.34-1.67,1.12-.28,1.96-.56,2.51-.56l1.12-7.25c-2.23-.28-4.18-.84-5.85-1.39-1.95-.28-4.19-1.12-6.42-1.96-2.51-.83-5.29-2.23-8.64-3.62-4.46-1.95-7.81-3.07-10.31-3.9-2.51-.84-4.74-1.12-6.97-1.12-2.78,0-5.29.56-7.25,1.67-2.22,1.12-4.18,3.06-5.57,5.58l4.74,4.46c1.4-1.4,2.79-2.23,4.19-2.79,1.39-.56,2.78-.84,4.74-.84,1.39,0,2.51,0,3.9.28,1.11.28,2.79.83,4.18,1.12,1.67.56,3.35,1.12,5.02,1.95,3.07,1.12,5.85,2.23,8.64,3.35,1.67.56,3.07.83,4.46,1.12-1.39.56-2.79,1.12-4.74,2.23-1.95.83-4.74,2.23-8.36,4.18-2.79,1.4-5.29,2.51-8.08,3.63-2.51.83-5.02,1.67-7.53,2.51-2.78.56-5.29,1.12-7.8,1.4-2.51.28-5.02.55-7.53.55-2.23,0-4.45-.55-6.13-1.11s-3.07-1.67-4.19-3.07c-1.11-1.67-2.23-3.35-3.06-5.85l-2.51-6.69c-.56-1.95-1.39-3.9-2.51-5.29-1.12-1.67-2.23-3.07-3.62-4.19-1.4-1.12-2.79-1.95-4.19-2.51-1.39-.56-3.06-.84-4.74-.84-2.79,0-5.3.84-7.81,2.79-2.51,1.67-4.74,4.19-6.97,7.81l-5.86,10.31c-1.12,1.67-2.23,3.07-3.62,4.46-1.67,1.4-3.07,2.23-4.74,3.07-1.39.56-3.06,1.11-4.74,1.11-1.39,0-3.35-.28-5.85-.28-2.51-.28-5.29-.56-8.08-.83-3.07-.28-5.86-.56-8.36-1.12l-1.4,8.36c3.35.56,6.42,1.12,9.48,1.4,0,1.67-1.11,3.35-3.06,5.02-2.23,1.95-5.3,3.62-8.92,4.74-3.9,1.4-7.81,1.95-12.54,1.95-6.97,0-12.54-1.67-16.45-4.74-3.9-3.06-5.86-7.25-5.86-12.83,0-1.12.28-2.78.28-4.45.28-1.67.56-3.63,1.12-5.86.28-1.95.83-4.46,1.67-7.25l-6.69-1.39c-1.12,4.74-1.96,8.64-2.51,11.99-.84,3.35-1.12,6.42-1.12,8.92,0,7.25,2.79,13.1,7.81,17.56,5.02,4.46,12.55,6.69,22.02,6.69,6.13,0,11.71-1.12,16.45-2.79,4.74-1.96,8.36-4.46,10.88-7.81,2.22-2.51,3.34-5.85,3.62-9.2,2.51.28,4.74.28,6.41.28h1.11c2.51,0,4.74-.56,6.97-1.39,2.23-.84,4.19-2.23,6.13-4.18,1.11-1.12,2.23-2.51,3.35-4.19,1.67,3.06,4.19,5.29,7.25,7.25,3.62,2.23,7.52,3.62,11.43,3.62s7.25-1.39,10.04-3.62c1.67-1.4,3.06-3.06,3.9-5.02,1.12,1.95,2.51,3.62,4.18,4.74,3.07,1.96,6.69,2.79,11.43,2.79,2.79,0,5.58-.28,8.65-.56,2.78-.56,5.58-1.12,8.64-1.95,2.79-.84,5.85-1.96,8.92-3.35,3.06-1.39,6.41-3.06,10.03-5.02,2.79-1.4,5.02-2.51,6.69-3.62.84,3.06,2.51,5.58,3.9,7.52,1.95,2.23,3.9,3.9,6.41,5.29,2.51,1.12,5.3,1.67,8.36,1.67h1.95c4.74,0,8.36-.56,11.15-1.67,2.23-1.12,3.9-2.79,5.02-4.74,1.4,2.23,3.07,3.62,5.58,4.74,2.79,1.12,6.13,1.67,10.31,1.67h1.11c6.42,0,11.15-1.39,14.22-4.74,3.07-3.07,4.46-7.81,4.46-14.5l.28-48.5-6.97,1.12.28,47.11ZM519.89,704.02c-1.95,1.39-4.18,2.23-6.69,2.23-3.62,0-6.69-1.39-10.04-3.9-1.95-1.67-3.35-3.62-4.74-5.58l2.51-4.18c1.67-2.79,3.34-4.74,5.01-6.13,1.67-1.39,3.63-1.95,5.3-1.95,2.23,0,3.9.83,5.85,2.23,1.67,1.67,3.07,3.9,4.18,7.24l2.23,5.86c-.83,1.95-2.23,3.06-3.62,4.18"/>
      <rect class="cls-1" x="698.02" y="702.62" width="9.48" height="11.15"/>
      <rect class="cls-1" x="754.88" y="702.62" width="9.48" height="11.15"/>
      <rect class="cls-1" x="726.45" y="702.62" width="9.48" height="11.15"/>
      <rect class="cls-1" x="806.02" y="644.48" width="8.67" height="8.67" transform="translate(-221.43 763.08) rotate(-45)"/>
      <rect class="cls-1" x="792.64" y="644.48" width="8.67" height="8.67" transform="translate(-225.35 753.62) rotate(-45)"/>
      <polygon class="cls-1" points="872.8 730.5 878.93 736.63 885.34 730.5 878.93 724.36 872.8 730.5"/>
      <rect class="cls-1" x="887.98" y="726.16" width="8.67" height="8.67" transform="translate(-255.19 844.85) rotate(-45)"/>
      <polygon class="cls-1" points="912.11 730.78 918.8 737.47 925.49 730.78 918.8 724.36 912.11 730.78"/>
      <path class="cls-1" d="M1021.1,694.26c0,3.9-.83,6.69-2.78,8.36-1.67,1.67-5.02,2.79-9.2,2.79h-9.2c2.23-2.79,3.35-6.13,3.35-10.31,0-3.63-.83-6.97-2.23-9.76-1.4-2.79-3.62-5.3-6.13-6.97-2.79-1.67-5.58-2.51-8.92-2.51s-6.69.83-10.03,2.51c-3.63,1.67-6.97,3.9-10.31,6.69-.56.28-1.12.83-1.4,1.39l.56-40.42-6.97,1.12.56,45.44c-.84.84-1.67,1.67-2.23,2.51-2.23,3.35-4.46,6.68-6.13,10.31h-3.62c-4.74,0-7.81-.83-9.76-2.23-1.95-1.4-3.06-3.35-3.06-5.85v-2.51c.28-1.12.28-1.95.28-2.51l.56-7.81h-6.41l-1.4,13.1c-.28,1.12-.55,2.23-.83,3.35-.83,1.4-1.95,2.51-3.62,3.35-1.95.56-4.74,1.12-8.92,1.12-4.74,0-7.81-.83-9.76-2.23-1.95-1.4-3.07-3.35-3.07-5.85v-2.51c.28-1.12.28-1.95.28-2.51l.56-7.81h-6.41l-1.4,13.1c-.28,1.12-.56,2.23-1.11,3.35-.56,1.4-1.67,2.51-3.35,3.35-1.95.56-4.74,1.12-8.92,1.12s-7.8-.28-11.15-.83c-3.07-.56-5.58-1.12-8.09-2.23,1.67-1.12,3.35-2.23,5.02-3.63,3.35-3.06,6.42-6.41,9.2-10.04v-8.64c-3.62-2.23-7.24-3.9-10.87-5.29-3.62-1.12-7.25-1.67-10.87-1.67-3.35,0-6.97.56-10.6,1.39-3.9.84-7.52,2.23-11.15,4.19l-1.67,7.8c3.35,3.63,6.13,6.69,9.2,9.76,2.23,2.23,4.46,4.18,6.97,5.85-1.95.56-3.9,1.12-6.13,1.67-4.74,1.12-9.47,1.67-14.77,1.67-3.62,0-6.41-.56-8.36-1.12-1.95-.56-3.34-1.67-4.18-3.35-.83-1.67-1.39-3.9-1.39-6.69v-30.66l-6.69.84v5.01c-5.29,1.12-9.76,2.51-13.66,4.46-4.19,1.95-7.52,4.46-9.75,7.25-2.51,3.06-3.63,6.13-3.63,9.48,0,4.46,1.67,7.81,5.02,10.31,3.06,2.51,7.53,3.63,12.83,3.63,1.95,0,4.18,0,6.41-.28,1.39-.28,2.79-.28,3.9-.84,0,1.12.56,1.96.83,2.79,1.4,2.79,3.63,4.74,6.69,5.86,3.07,1.12,6.97,1.67,11.98,1.67,5.58,0,10.87-.56,15.89-1.95,4.19-1.12,8.36-2.79,11.99-4.74,1.39.83,2.78,1.67,4.18,2.23,3.35,1.67,6.69,2.79,10.59,3.35,3.62.83,7.81,1.12,12.26,1.12,4.74,0,8.36-.56,11.15-1.67,2.23-1.12,3.9-2.79,5.02-4.74,1.39,2.23,3.06,3.63,5.58,4.74,2.79,1.12,6.13,1.67,10.31,1.67h1.12c4.74,0,8.36-.56,11.15-1.67,2.22-1.12,3.9-2.79,5.02-4.74,1.39,2.23,3.06,3.63,5.57,4.74,2.79,1.12,6.13,1.67,10.32,1.67h27.87c6.69,0,12.27-.56,16.72-1.95.56-.28,1.4-.56,1.95-.83,1.39.56,2.79,1.12,4.18,1.39l4.19.84c1.67.28,3.06.28,4.45.56h4.46c6.42,0,11.15-1.4,14.22-4.74,3.07-3.06,4.46-7.8,4.46-14.49l.28-48.51-7.25,1.12.28,47.11ZM795.31,696.21c-3.63,0-6.42-.56-8.36-1.67-1.67-.84-2.79-2.23-2.79-4.19,0-2.23,1.12-3.9,2.79-5.85,1.95-1.67,4.46-3.35,7.81-4.46,3.06-1.12,6.13-1.95,9.76-2.23v17.56c-.84,0-1.4.28-2.23.28-2.51.28-4.74.56-6.97.56M853.29,698.72c-.56-.56-1.12-1.12-1.67-1.39-2.51-1.67-5.29-3.9-7.81-6.69-2.23-1.95-4.18-4.19-6.41-6.69,1.67-.56,3.34-1.12,5.58-1.67,3.35-.83,6.69-1.12,10.04-1.12,3.62,0,7.24.56,11.15,1.67,1.95.56,3.9,1.12,5.86,2.23-1.95,2.51-4.19,4.74-6.69,6.69-2.79,2.51-6.42,5.02-10.04,6.97M986.81,704.29c-3.62.56-8.09,1.12-13.94,1.12h-15.33c1.95-3.35,4.19-6.41,6.42-9.2,3.34-3.9,6.97-6.97,10.59-8.92,3.63-2.23,7.25-3.35,10.6-3.35,2.23,0,4.46.56,6.13,1.4,1.67,1.11,3.06,2.51,3.9,4.18,1.12,1.67,1.39,3.35,1.39,5.58,0,2.51-.56,4.46-2.23,5.85-1.67,1.67-4.18,2.79-7.52,3.35"/>
      <polygon class="cls-1" points="1047.3 713.77 1054 713.77 1054 646.03 1047.03 647.15 1047.3 713.77"/>
      <polygon class="cls-1" points="1120.34 749.73 1126.47 755.87 1132.88 749.73 1126.47 743.6 1120.34 749.73"/>
      <rect class="cls-1" x="1109.04" y="745.4" width="8.67" height="8.67" transform="translate(-204.0584 1006.779) rotate(-44.9963)"/>
      <path class="cls-1" d="M1307.39,686.74c-.28-2.79-.56-5.58-1.12-8.36-.28-2.51-.83-5.02-1.11-7.25l-6.97,2.79c.28,2.23.83,4.46,1.12,7.25.56,2.51.83,5.01,1.39,7.52.28,2.51.56,4.46.84,6.41,0,1.96.28,3.35.28,4.19,0,1.95-1.12,3.62-3.35,4.46-2.23,1.12-6.13,1.67-11.99,1.67h-1.39c-3.34,0-6.13-1.11-8.64-3.06-2.51-1.39-3.9-3.35-5.03-5.85,1.4-.84,2.51-1.4,3.35-1.67,1.11-.28,1.95-.56,2.51-.56l.84-7.25c-1.96-.28-3.9-.84-5.86-1.39-1.95-.28-3.9-1.12-6.13-1.96-2.51-.83-5.29-2.23-8.92-3.62-4.19-1.95-7.81-3.07-10.04-3.9-2.51-.84-4.74-1.12-6.97-1.12-2.78,0-5.29.56-7.52,1.67-1.95,1.12-3.9,3.06-5.29,5.58l4.74,4.46c1.4-1.4,2.51-2.23,3.9-2.79,1.4-.56,3.07-.84,5.02-.84,1.12,0,2.51,0,3.9.28,1.11.28,2.51.83,4.18,1.12,1.4.56,3.07,1.12,5.02,1.95,2.79,1.12,5.85,2.23,8.64,3.35,1.4.28,2.79.83,4.19,1.12-1.12.56-2.79,1.12-4.46,2.23-2.23.83-5.02,2.23-8.36,4.18-2.79,1.4-5.58,2.51-8.08,3.63-2.79.83-5.3,1.67-7.81,2.51-2.51.56-5.02,1.12-7.52,1.4-2.51.28-5.02.55-7.81.55-2.23,0-4.18-.55-5.85-1.11s-3.07-1.67-4.19-3.07c-1.11-1.67-2.23-3.35-3.06-5.85l-2.51-6.69c-.83-1.95-1.67-3.9-2.51-5.29-1.12-1.67-2.23-3.07-3.62-4.19-1.4-1.12-2.79-1.95-4.19-2.51-1.67-.56-3.06-.84-4.74-.84-2.79,0-5.3.84-7.81,2.79-2.51,1.67-4.74,4.19-6.97,7.81l-6.13,10.31c-.84,1.67-2.23,3.07-3.63,4.46-1.39,1.4-2.78,2.23-4.45,3.07-1.67.56-3.07,1.11-4.74,1.11-1.39,0-3.35-.28-5.85-.28-2.51-.28-5.29-.56-8.36-.83-2.79-.28-5.58-.56-8.08-1.12l-1.4,8.36c3.35.56,6.42,1.12,9.48,1.4,0,1.67-1.11,3.35-3.06,5.02-2.23,1.95-5.3,3.62-8.92,4.74-3.9,1.4-8.08,1.95-12.54,1.95-7.25,0-12.54-1.67-16.45-4.74-3.9-3.06-5.86-7.25-5.86-12.83,0-1.12,0-2.78.28-4.45.28-1.67.56-3.63,1.12-5.86.28-1.95.83-4.46,1.39-7.25l-6.41-1.39c-1.4,4.74-2.23,8.64-2.79,11.99-.56,3.35-.84,6.42-.84,8.92,0,7.25,2.51,13.1,7.81,17.56,5.02,4.46,12.27,6.69,22.02,6.69,6.13,0,11.71-1.12,16.45-2.79,4.46-1.96,8.09-4.46,10.88-7.81,2.22-2.51,3.34-5.85,3.62-9.2,2.51.28,4.74.28,6.41.28h1.11c2.23,0,4.74-.56,6.69-1.39,2.23-.84,4.46-2.23,6.13-4.18,1.39-1.12,2.51-2.51,3.62-4.19,1.67,3.06,4.19,5.29,6.97,7.25,3.9,2.23,7.52,3.62,11.7,3.62,3.9,0,7.25-1.39,10.04-3.62,1.67-1.4,2.79-3.06,3.62-5.02,1.4,1.95,2.79,3.62,4.46,4.74,2.79,1.96,6.69,2.79,11.15,2.79,3.06,0,5.85-.28,8.64-.56,3.07-.56,5.86-1.12,8.92-1.95,2.79-.84,5.85-1.96,8.92-3.35,3.06-1.39,6.41-3.06,9.76-5.02,2.79-1.4,5.29-2.51,6.97-3.62.84,3.06,2.23,5.58,3.9,7.52,1.67,2.23,3.9,3.9,6.42,5.29,2.51,1.12,5.29,1.67,8.08,1.67h1.95c4.74,0,8.92-.56,11.99-1.67,3.35-.83,5.86-2.51,7.53-4.74,1.67-2.23,2.51-5.02,2.51-8.36,0-1.12-.28-2.79-.28-5.02-.28-2.23-.55-4.46-.83-7.24M1200.9,704.02c-1.95,1.39-4.18,2.23-6.69,2.23-3.62,0-6.97-1.39-10.03-3.9-1.95-1.67-3.63-3.62-4.74-5.58l2.51-4.18c1.39-2.79,3.06-4.74,5.01-6.13,1.67-1.39,3.34-1.95,5.3-1.95s3.9.83,5.58,2.23c1.95,1.67,3.35,3.9,4.45,7.24l1.95,5.86c-.56,1.95-1.95,3.06-3.34,4.18"/>
      <rect class="cls-1" x="1296.36" y="652.01" width="8.67" height="8.67" transform="translate(-83.1708 1111.8825) rotate(-44.9963)"/>
    </g>
  </g>
</svg>