<?xml version="1.0" encoding="UTF-8"?>
<svg id="Layer_1" data-name="Layer 1" xmlns="http://www.w3.org/2000/svg" viewBox="0 0 1920 1080">
  <defs>
    <style>
      .cls-1 {
        fill: #fff;
      }
    </style>
  </defs>
  <path class="cls-1" d="M1839.1,376.8c-60.19-62.38-168.8-99.86-254.44-81.8-48.69,10.12-68.94,36.93-78.79,84.26-3.01,14.23-4.11,39.13-9.03,50.89-1.64,4.1-5.47,7.39-9.57,3.83-3.55-3.28-7.66-16.42-9.03-21.61-7.11-24.07-15.87-79.61-36.39-94.11-21.34-14.78-48.42,14.5-60.19,30.64-33.11,45.41-31.74,93.84-15.05,145.82,37.48,117.1,166.34,259.09,288.09,289.19,83.17,20.51,146.64-16.69,193.43-83.17,69.21-98.22,77.97-233.37-9.03-323.93M1517.9,498.27c16.97-32.28,48.15-59.91,81.25-74.96,20.8-9.3,43.23-13.68,65.94-14.78v-22.71c-32.55-2.74-57.73-30.09-56.9-62.92,30.09-.28,54.72,20.52,62.38,49.25,6.84-28.46,32.83-49.8,62.65-49.25.82,32.56-24.9,60.46-57.18,62.92v22.71c57.45,1.37,111.63,31.19,142.54,79.34,1.92,3.01,10.4,16.41,10.4,18.88.28,1.36-.28,2.19-1.64,2.19-1.09,0-6.29-7.39-7.66-9.03-22.16-25.44-48.7-47.6-80.43-59.36-79.34-29.55-159.51-5.75-214.22,56.63-2.74,3.01-5.74,7.93-8.48,10.67-1.64,1.91-3.28,1.37-3.01-.82.28-1.36,3.56-7.11,4.38-8.76M1490,578.71c-17.24-4.1-45.97-36.11-49.52-53.35-2.74-13.13,3.55-31.46,18.33-33.65,25.17-3.83,48.15,35.84,51.71,56.9,2.46,14.23-1.64,34.75-20.52,30.09M1518.18,666.81c-9.03-14.78-15.05-31.47-18.88-48.15.82-.27,1.09-.27,1.91.28,1.09,1.09,2.46,3.55,4.11,4.93,17.78,14.5,34.19-17.51,39.67-30.65,6.29-15.32,7.66-31.74,13.13-46.24,7.94-21.88,36.67-22.43,46.24-1.36,4.38,9.57-1.09,28.73-3.83,39.12-6.57,27.36-24.9,85.63-56.09,93.02-12.86,3.01-19.7-.27-26.26-10.94M1547.99,704.02c-.55-.55-1.09-.82-.82-1.92h11.22c3.83,0,13.41-4.92,16.69-7.11,32.28-21.89,50.07-82.35,58.55-118.47,3.56-14.77,5.2-31.46,9.03-45.69,9.57-35.29,64.29-29.27,61.28,14.78-1.91,29.55-15.32,76.33-25.99,104.23-10.4,26.82-37.76,84.27-70.86,86.73-17.51,1.09-46.78-20.52-59.1-32.55M1656.88,749.43c-3.01-.28-14.77-1.37-16.96-2.19-3.83-1.64,3.55-3.83,4.65-4.38,8.48-4.66,16.14-10.67,22.98-17.51,35.03-36.66,56.36-114.36,65.39-163.6,2.47-13.41,3.28-26.81,5.47-39.95,2.74-17.78,18.88-27.63,36.11-21.34,22.16,8.49,17.24,31.47,14.78,50.34-5.2,46.51-18.88,100.96-39.4,143.09-20.52,42.4-44.6,58.28-93.02,55.54M1836.64,593.49c-5.47,50.34-33.38,97.13-75.24,125.03-1.64,1.09-10.67,8.21-9.03,2.46,12.04-12.31,20.25-28.45,26.81-44.32,9.85-22.99,16.97-47.34,22.44-71.68,2.19-10.13,3.83-25.72,7.11-35.02,1.91-5.2,7.93-10.67,13.68-10.67,18.88-.82,15.59,21.89,14.23,34.2"/>
  <path class="cls-1" d="M220.81,537.12c.54-.27,1.09-.55,1.64-.82,2.73,1.36,5.47,2.46,8.48,3.01,3.55,1.09,7.39,1.92,10.94,2.19,3.83.28,7.66.55,11.22.55,5.47,0,10.94-.27,16.41-1.09,5.2-.82,10.67-1.91,16.42-3.55,5.74-1.64,11.76-3.83,17.78-6.57,6.29-2.74,12.86-6.02,20.24-10.12,7.66-4.11,13.68-7.11,18.33-9.3,4.38-2.19,7.93-3.83,10.67-4.65,2.47-.82,4.11-1.37,5.47-1.37l3.01-21.61c-4.11-.55-7.66-1.37-11.22-2.19-3.82-.82-7.66-2.19-12.03-3.83-4.11-1.91-9.3-3.82-15.59-6.56-9.03-3.56-16.14-6.3-21.34-7.66-5.2-1.36-9.84-2.19-13.95-2.19-6.29,0-12.03,1.36-16.96,4.1-4.65,2.74-9.03,7.11-12.31,13.13l12.58,12.86c2.19-2.46,4.66-4.1,7.66-5.47,3.01-1.09,6.29-1.64,9.57-1.64,2.19,0,4.66,0,7.39.55,2.74.55,5.75,1.09,8.76,1.92,3.28,1.09,6.57,2.19,9.57,3.55,6.3,2.47,11.49,4.38,16.14,6.02-1.37.55-2.74,1.09-4.1,1.64-4.38,1.37-9.3,3.56-15.59,6.02-5.2,1.91-10.12,3.83-14.78,5.47-4.65,1.36-9.3,2.73-13.68,3.83-4.38.82-8.76,1.64-13.41,2.18-4.66.55-9.58.82-15.05.82h-11.76c1.91-4.38,2.73-9.3,2.73-14.5,0-7.93-1.64-14.5-4.92-20.52-3.28-5.74-7.66-10.12-13.4-13.41-5.75-3.28-12.04-4.93-18.88-4.93-6.01,0-12.03,1.64-18.33,4.38-6.29,2.74-12.03,6.84-18.05,12.03-5.74,5.2-10.95,11.49-15.87,18.61-2.74,4.1-5.47,8.48-7.66,13.13-2.47-1.92-3.83-4.93-3.83-8.76v-4.11c.27-1.91.27-3.55.55-4.93l1.37-16.41h-18.33l-2.46,24.07c-.28,2.74-1.09,5.2-1.64,7.11-1.37,3.01-3.56,5.2-6.57,6.3-3.28,1.37-7.93,1.91-13.95,1.91-4.93,0-9.03-.55-11.76-1.36-3.01-1.1-5.2-2.74-6.84-4.93-1.64-2.19-3.01-5.47-4.1-9.58l-5.2-18.05-19.42,5.47c1.64,5.74,3.01,10.94,4.1,15.86,1.09,4.93,1.91,9.3,2.47,13.13.54,3.83.82,7.11.82,9.85,0,9.57-3.56,17.24-10.67,22.71-7.11,5.2-18.33,9.3-33.65,12.03l4.66,23.26c13.4-1.91,24.34-5.2,33.1-9.85,8.48-4.92,15.05-11.22,19.15-19.7,3.01-5.74,4.92-12.59,5.74-20.25,1.64,1.37,3.55,2.74,5.74,3.83,4.65,2.19,9.85,3.28,15.87,3.28,8.48,0,15.59-1.09,20.52-3.28,4.65-1.91,7.93-4.92,10.12-8.75,2.47,4.1,6.29,6.84,11.49,8.75,5.74,2.19,13.68,3.28,23.8,3.28h24.63c11.22,0,20.52-1.64,28.18-4.93M167.19,516.33c-1.91,0-3.83,0-5.47-.28,2.74-3.83,5.75-7.11,8.48-10.39,5.75-6.57,11.49-11.22,17.78-14.78,6.02-3.28,12.04-4.93,18.06-4.93,3.55,0,6.84.55,9.85,1.92,3.01,1.36,5.2,3.28,6.84,5.74,1.64,2.19,2.46,4.93,2.46,8.21s-1.09,6.02-3.28,7.93c-2.2,2.19-5.75,3.83-10.67,4.93-4.93,1.09-11.22,1.64-19.15,1.64h-24.9Z"/>
  <rect class="cls-1" x="169.75" y="424.23" width="18.96" height="18.96" transform="translate(-254.19 253.77) rotate(-45)"/>
  <rect class="cls-1" x="283.83" y="423.41" width="18.96" height="18.96" transform="translate(-220.19 334.2) rotate(-45)"/>
  <path class="cls-1" d="M460.2,514.97c0-7.39-1.91-14.51-5.74-22.16-3.28-6.3-7.66-12.32-13.41-18.33,4.93-6.3,8.49-12.04,11.49-17.51,3.28-5.74,5.75-11.22,7.11-16.42,1.37-5.47,2.19-10.39,2.19-15.59v-9.03l-21.89,2.74v8.76c0,4.93-1.09,9.85-3.01,15.32-2.19,4.93-5.47,10.95-10.12,17.51l-41.86-40.76-14.23,15.86,43.78,40.22c-2.47,2.73-4.93,5.47-7.66,8.48-8.21,8.76-18.33,19.15-30.09,30.92l-1.37,23.25c4.11,1.09,8.48,2.19,13.13,3.01,4.65.82,9.3,1.36,13.95,1.91,4.93.55,9.57.55,13.95.55,14.78,0,25.72-2.19,32.83-7.11,7.39-4.65,10.95-12.03,10.95-21.61M434.76,516.88c-3.55,1.37-9.03,2.19-17.24,2.19-2.74,0-5.74,0-8.76-.28-2.46-.27-4.65-.27-6.84-.55,6.57-6.84,12.59-12.86,17.78-18.6,3.28-3.55,6.57-7.11,9.3-10.4,3.01,3.01,5.2,6.02,6.84,8.76,2.74,4.1,4.1,7.93,4.1,11.22,0,3.56-1.64,6.02-5.2,7.66"/>
  <polygon class="cls-1" points="506.44 542.05 506.44 415.92 484.55 418.66 486.2 542.05 506.44 542.05"/>
  <rect class="cls-1" x="690.12" y="424.23" width="18.96" height="18.96" transform="translate(-101.77 621.73) rotate(-45)"/>
  <path class="cls-1" d="M764.16,502.65c0-7.39-1.64-13.95-4.93-19.97-3.55-6.02-7.93-10.67-13.68-14.22-6.02-3.56-12.32-5.47-19.7-5.47-6.29,0-12.58,1.64-18.88,4.38-6.02,3.01-12.04,7.11-17.78,12.31-5.74,5.47-10.95,11.49-15.59,18.6-3.01,4.66-5.74,9.03-8.21,13.95-.27-4.1-.82-8.75-1.64-13.41-1.09-7.11-2.46-14.5-4.1-21.88l-20.24,7.66c1.91,8.21,3.55,15.59,4.65,21.88,1.37,6.02,2.19,11.22,2.74,15.05.55,4.11.82,7.11.82,8.76,0,4.1-1.09,7.66-3.83,10.67-2.73,3.28-6.29,5.75-10.94,7.38-4.38,1.92-9.58,2.74-15.59,2.74-9.3,0-16.42-2.47-21.07-7.39-4.93-4.65-7.11-12.03-7.11-21.34,0-2.19,0-4.93.27-7.66.55-2.74,1.09-6.02,1.92-9.85.82-3.83,1.91-8.21,3.01-13.68l-18.05-3.83c-2.74,9.3-4.66,17.24-5.75,23.53-1.09,6.29-1.64,12.04-1.64,17.51,0,15.32,4.11,27.08,12.59,35.84,8.49,8.48,20.25,12.86,35.3,12.86,10.67,0,19.7-2.19,27.08-6.29,7.39-4.11,13.13-9.57,17.24-16.42,2.74-4.38,4.38-9.3,5.2-14.5,5.2,1.37,11.76,2.19,20.24,2.19h26.54c11.49,0,21.07-1.64,28.73-4.93,7.38-3.28,13.13-7.93,16.96-13.95,3.56-6.02,5.47-12.86,5.47-20.52M742.55,510.31c-2.19,1.91-5.47,3.55-10.4,4.38-4.92,1.09-11.49,1.64-19.7,1.64h-32.56c2.74-3.83,5.75-7.39,8.49-10.4,5.74-6.29,11.49-11.22,17.51-14.77,6.29-3.56,12.31-5.2,18.06-5.2,4.1,0,7.93.82,11.22,2.19,3.01,1.64,5.74,3.83,7.66,6.3,1.64,2.46,2.74,5.2,2.74,8.2s-1.1,5.47-3.01,7.66"/>
  <path class="cls-1" d="M759.51,561.47l4.38,23.26c19.15-2.74,33.65-9.03,42.95-18.33,9.58-9.57,14.23-23.53,14.23-41.31,0-7.39-.55-15.32-2.19-23.8-1.37-8.76-3.28-17.51-6.02-25.99l-21.07,7.38c3.28,9.58,6.02,18.06,7.66,25.45,1.91,7.66,2.74,13.68,2.74,18.61,0,9.57-3.55,17.24-10.4,22.71-7.11,5.47-17.78,9.57-32.28,12.03"/>
  <path class="cls-1" d="M837.21,435.35l43.5,40.22c-2.47,2.74-4.93,5.47-7.66,8.49-8.21,8.75-18.05,19.15-30.09,30.91l-1.09,23.26c4.1,1.09,8.48,2.19,13.13,3.01,4.37.82,9.03,1.37,13.95,1.92,4.65.55,9.3.55,13.68.55,14.78,0,25.72-2.19,33.11-7.11,7.12-4.65,10.67-12.04,10.67-21.61,0-7.38-1.91-14.5-5.74-22.16-3.01-6.29-7.66-12.58-13.13-18.6,4.65-6.3,8.48-11.76,11.49-17.24,3.28-5.74,5.47-11.22,7.11-16.42,1.37-5.47,2.19-10.4,2.19-15.59v-9.03l-21.89,2.74v8.76c0,4.92-1.09,9.84-3.28,15.32-2.19,4.93-5.47,10.95-9.84,17.51l-41.86-40.77-14.22,15.87ZM895.21,489.25c3.01,3.01,5.2,6.02,7.11,8.76,2.74,4.1,3.83,7.93,3.83,11.22,0,3.55-1.64,6.02-5.2,7.66-3.28,1.36-9.03,2.19-16.96,2.19-2.74,0-5.75,0-8.76-.28-2.46-.27-4.65-.27-7.11-.55,6.84-6.57,12.59-12.86,18.06-18.6,3.28-3.56,6.29-7.11,9.03-10.4"/>
  <path class="cls-1" d="M863.75,405.53c4.1-.55,8.21-.82,11.76-1.09v-11.22c-4.66.55-8.21.82-10.67.82-2.47.28-4.11.28-4.93.28-2.47,0-4.38-.82-6.02-2.19-1.64-1.64-2.46-3.55-2.46-5.74s.55-3.83,2.18-5.2c1.64-1.36,3.56-2.19,6.02-2.19,1.09,0,2.47.28,4.11.55,1.91.28,3.55.82,5.47,1.37l2.46-9.3c-2.19-1.09-4.38-2.19-6.84-2.74-2.47-.55-4.65-.82-6.84-.82-4.66,0-8.76,1.64-12.04,4.92-3.28,3.01-4.93,7.11-4.93,12.04,0,3.28.82,6.29,2.19,9.03.55.82.82,1.64,1.64,2.19l-9.3,1.37v11.49c5.47-.82,10.4-1.64,15.05-2.19,4.93-.55,9.3-1.09,13.13-1.37"/>
  <polygon class="cls-1" points="972.91 542.05 972.91 415.92 950.75 418.66 952.67 542.05 972.91 542.05"/>
  <path class="cls-1" d="M1109.71,595.13c6.02-1.09,12.04-2.19,17.78-3.83l-2.74-22.98c-4.93.82-10.12,1.64-15.05,1.91-5.2.55-10.12.82-14.23.82-9.3,0-16.96-1.09-22.98-3.01-6.29-2.19-11.22-4.93-14.23-8.48-3.28-3.55-4.92-7.93-4.92-12.86,0-4.65,1.64-9.03,4.92-13.4,3.01-4.11,7.66-8.21,13.41-11.49,6.01-3.28,12.85-6.02,20.79-7.93,7.93-1.92,16.69-3.01,25.99-3.01l1.91-22.71c-13.13,0-24.9,1.64-35.57,4.93-1.91.55-3.83,1.37-5.74,1.92-1.64-1.37-3.28-2.74-4.66-3.83-3.55-3.01-6.01-5.74-7.38-8.21-1.37-2.19-2.19-4.65-2.19-6.84,0-3.01,1.09-6.02,3.01-8.49,1.91-2.46,4.65-4.37,7.93-6.01,3.28-1.37,6.84-2.19,10.39-2.19,3.29,0,6.84.55,10.13,1.91,3.55,1.37,6.84,3.28,10.39,5.47l10.4-14.5c-5.47-4.93-10.67-8.48-15.32-10.95-4.93-2.19-10.13-3.28-15.87-3.28-7.11,0-13.68,1.64-19.7,5.2-6.02,3.55-10.67,8.21-14.23,13.95-3.55,6.02-5.2,12.58-5.2,19.97,0,3.55.55,7.11,1.64,10.94,1.09,3.56,3.28,7.66,6.29,11.76,1.36,1.92,2.74,3.83,4.38,5.75-.28.27-.82.55-1.09.82-7.39,5.74-13.13,12.3-16.97,19.7-4.1,7.38-6.02,15.32-6.02,23.53,0,9.3,2.47,17.51,7.11,24.63,4.66,7.11,11.22,12.58,19.97,16.41,8.49,3.83,18.61,5.74,30.09,5.74,5.75,0,11.77-.27,17.51-1.37"/>
  <path class="cls-1" d="M1183.57,566.4c9.57-9.57,14.23-23.53,14.23-41.31,0-7.39-.55-15.32-2.19-23.8-1.37-8.76-3.55-17.51-6.02-25.99l-21.07,7.38c3.28,9.57,6.02,18.06,7.66,25.45,1.91,7.66,2.74,13.68,2.74,18.61,0,9.57-3.56,17.24-10.4,22.71-7.11,5.47-17.78,9.57-32.28,12.03l4.38,23.26c19.15-2.74,33.65-9.03,42.95-18.33"/>
  <path class="cls-1" d="M1256.62,543.69c14.22,0,24.9-2.74,31.74-8.48,7.11-5.75,10.4-14.23,10.4-25.18,0-4.1-.55-8.2-1.37-12.58-1.09-4.38-3.01-9.03-5.47-14.5-2.46-5.2-6.01-11.49-10.12-18.33-4.38-6.84-9.57-14.78-16.14-24.08l-17.51,12.86c5.74,8.48,10.67,15.59,14.5,21.61,4.1,6.02,7.11,11.22,9.57,15.32,2.46,4.38,4.38,7.66,5.47,10.4.82,2.73,1.36,5.2,1.36,6.84,0,3.01-1.64,5.74-4.92,7.66-3.29,1.91-8.76,2.74-16.7,2.74-5.74,0-10.67-.55-13.95-1.64-3.55-1.09-6.01-2.74-7.38-5.2-1.37-2.46-2.19-5.2-2.19-8.75v-9.85h-18.6v18.88c0,10.94,3.28,19.15,9.57,24.35,6.57,5.47,17.24,7.93,31.74,7.93"/>
  <polygon class="cls-1" points="246.26 662.98 252.28 656.96 246.26 650.67 240.24 656.96 246.26 662.98"/>
  <path class="cls-1" d="M277.17,683.22c-1.64-3.01-3.83-5.47-6.84-7.38-2.74-1.64-6.02-2.74-9.58-2.74-3.28,0-6.57.82-9.84,2.47-3.01,1.64-6.3,3.83-9.3,6.56-3.01,3.01-5.74,6.3-8.48,10.13-1.92,2.73-3.56,5.74-5.2,8.75v-.55c-.27-3.01-.55-6.01-1.09-9.57-.82-3.83-1.37-7.38-2.19-11.22l-7.11,2.74c1.1,5.2,1.92,9.57,2.74,12.86.55,3.55,1.09,6.29,1.37,8.21.27,1.91.27,3.28.27,4.38,0,2.46-.82,4.65-2.19,6.56-1.64,1.92-3.82,3.28-6.56,4.38-2.74,1.37-5.75,1.92-9.3,1.92-5.47,0-9.57-1.64-12.31-4.38-3.01-3.01-4.38-7.11-4.38-12.59,0-1.36.27-2.74.27-4.38.28-1.64.55-3.55,1.09-5.47.28-2.19.82-4.66,1.64-7.39l-6.57-1.36c-1.09,4.65-1.91,8.48-2.46,11.49-.82,3.28-1.09,6.3-1.09,9.03,0,7.39,2.19,12.86,6.3,17.24,4.1,4.1,9.84,6.02,17.24,6.02,4.92,0,9.3-.82,13.13-2.74,3.55-1.92,6.57-4.38,8.76-7.66,1.64-2.74,2.74-5.75,2.74-9.3.82,0,1.64.28,2.46.55,2.47.28,5.74.55,10.12.55h9.58c7.11,0,12.86-.55,16.96-1.91,4.38-1.37,7.66-3.56,9.57-6.02,1.92-2.74,2.74-5.75,2.74-9.57,0-3.28-.82-6.57-2.46-9.58M271.15,698c-1.37,1.37-3.55,2.46-7.12,3.01-3.28.55-7.93,1.09-14.22,1.09h-13.13c-1.09,0-1.92,0-2.74-.27,1.92-3.28,4.1-6.3,6.02-8.76,3.01-3.83,6.29-6.57,9.57-8.76,3.56-2.19,6.84-3.28,10.12-3.28,2.74,0,4.93.55,7.11,1.92,1.92,1.09,3.56,2.46,4.65,4.38,1.09,1.64,1.92,3.55,1.92,5.74,0,1.91-.82,3.83-2.19,4.93"/>
  <path class="cls-1" d="M304.8,679.66l-7.11,2.74c1.36,4.1,2.46,7.93,3.28,11.76,1.09,4.1,1.37,7.11,1.37,9.85,0,5.2-1.92,9.3-6.02,12.04-3.83,3.01-9.85,5.2-18.06,6.56l1.64,8.21c9.57-1.37,16.97-4.1,21.89-8.75,4.92-4.66,7.38-11.22,7.38-19.43,0-3.28-.55-7.11-1.09-10.94-.82-3.83-1.91-7.93-3.28-12.04"/>
  <path class="cls-1" d="M330.79,636.44c2.19-.28,4.38-.28,6.3-.55v-4.65c-2.2.27-4.11.54-5.47.54-1.37.28-2.19.28-2.74.28-1.64,0-2.74-.55-3.83-1.36-.82-1.09-1.37-2.19-1.37-3.56,0-1.09.55-2.19,1.37-3.01,1.09-.82,2.19-1.37,3.55-1.37.55,0,1.64.28,2.74.28.82.27,1.92.55,2.74.82l.82-4.1c-.82-.55-1.91-.82-3.01-1.09-1.09-.28-2.19-.55-3.28-.55-2.74,0-4.93.82-6.57,2.46s-2.46,3.83-2.46,6.3c0,1.64.55,3.28,1.09,4.92.27.28.55.82.82,1.1l-4.92.54v4.93c2.46-.55,4.92-.82,7.39-1.09,2.46-.27,4.65-.55,6.84-.82"/>
  <path class="cls-1" d="M356.24,650.66c0,2.74-.82,5.74-1.91,9.03-1.37,3.28-3.28,6.84-6.02,10.68-.27.27-.27.54-.55.82l-23.53-25.45-4.93,4.93,24.35,25.99c-1.92,2.46-3.83,4.65-6.02,7.11-4.38,5.2-9.3,10.67-15.59,16.96l-.28,7.93c1.92.55,4.11,1.1,6.3,1.37,2.46.27,4.65.82,6.84.82,2.19.28,4.38.55,6.57.55,7.38,0,12.59-1.09,15.87-3.28,3.28-1.92,4.92-5.47,4.92-10.13,0-3.55-1.09-7.39-3.01-11.49-1.64-3.56-4.11-7.11-7.11-10.67,2.19-2.74,3.83-5.47,5.2-8.21,1.91-3.28,3.28-6.57,4.1-9.58,1.09-3.01,1.64-6.01,1.64-8.48v-5.74l-6.84,1.09v5.74ZM353.23,688.42c1.36,3.01,2.19,5.74,2.19,7.93,0,2.47-.82,4.11-3.01,5.2-1.92.82-5.2,1.36-9.85,1.36-1.64,0-3.28,0-5.2-.27-1.91,0-3.82-.28-5.47-.28-.82,0-1.37-.27-1.92-.27,3.56-3.83,7.11-7.39,10.12-10.95,3.01-3.55,5.75-6.84,7.94-9.85,2.19,2.19,3.83,4.66,5.2,7.11"/>
  <polygon class="cls-1" points="377.31 710.31 383.87 710.31 383.87 643.82 377.03 644.92 377.31 710.31"/>
  <rect class="cls-1" x="451.02" y="741.34" width="8.51" height="8.51" transform="translate(-393.86 540.26) rotate(-45)"/>
  <rect class="cls-1" x="437.89" y="741.34" width="8.51" height="8.51" transform="translate(-397.7 530.97) rotate(-45)"/>
  <rect class="cls-1" x="625.57" y="660.91" width="8.51" height="8.51" transform="translate(-285.87 640.21) rotate(-45)"/>
  <path class="cls-1" d="M656.91,691.16c0,3.83-1.09,6.57-2.74,8.21-1.91,1.64-4.93,2.73-9.3,2.73-4.65,0-7.93-.82-9.85-2.18-1.91-1.37-2.73-3.28-2.73-5.75v-2.46c0-1.09.27-1.92.27-2.47l.55-7.66h-6.57l-1.37,12.86c0,1.09-.28,2.19-.82,3.28-.55,1.37-1.64,2.46-3.55,3.28-1.64.55-4.66,1.09-8.48,1.09h-1.64c-3.01,0-5.75-1.09-8.49-3.01-2.18-1.37-3.82-3.28-4.92-5.74,1.37-.82,2.47-1.37,3.28-1.64,1.1-.28,1.92-.55,2.47-.55l1.09-7.11c-2.19-.27-4.1-.82-5.74-1.36-1.92-.28-4.11-1.09-6.3-1.92-2.46-.82-5.2-2.19-8.48-3.55-4.38-1.92-7.66-3.01-10.12-3.83-2.47-.82-4.66-1.09-6.84-1.09-2.73,0-5.2.55-7.11,1.64-2.18,1.09-4.1,3.01-5.47,5.47l4.65,4.38c1.37-1.37,2.74-2.19,4.11-2.74,1.36-.55,2.73-.82,4.65-.82,1.37,0,2.46,0,3.83.28,1.09.27,2.74.82,4.1,1.09,1.64.55,3.28,1.09,4.93,1.91,3.01,1.09,5.74,2.19,8.48,3.28,1.64.55,3.01.82,4.38,1.09-1.37.55-2.74,1.09-4.65,2.19-1.91.82-4.66,2.19-8.21,4.1-2.74,1.37-5.2,2.47-7.93,3.56-2.47.82-4.93,1.64-7.39,2.46-2.73.55-5.2,1.09-7.66,1.37-2.47.27-4.93.54-7.39.54-2.19,0-4.37-.54-6.01-1.09s-3.01-1.64-4.11-3.01c-1.09-1.64-2.19-3.28-3.01-5.74l-2.47-6.57c-.55-1.91-1.37-3.83-2.46-5.2-1.09-1.64-2.19-3.01-3.55-4.11-1.37-1.09-2.74-1.91-4.11-2.46-1.36-.55-3.01-.82-4.65-.82-2.74,0-5.2.82-7.66,2.74-2.46,1.64-4.65,4.11-6.84,7.66l-5.75,10.12c-1.09,1.64-2.19,3.01-3.55,4.38-1.64,1.37-3.01,2.19-4.66,3.01-1.37.55-3.01,1.09-4.65,1.09-1.36,0-3.28-.27-5.74-.27-2.47-.27-5.2-.55-7.93-.82-3.01-.28-5.75-.55-8.21-1.09l-1.37,8.2c3.28.55,6.3,1.09,9.3,1.37,0,1.64-1.09,3.28-3.01,4.93-2.19,1.91-5.2,3.55-8.76,4.65-3.83,1.37-7.66,1.91-12.31,1.91-6.84,0-12.31-1.64-16.14-4.65-3.83-3.01-5.75-7.11-5.75-12.59,0-1.09.28-2.73.28-4.37.27-1.64.55-3.56,1.09-5.75.27-1.91.82-4.38,1.64-7.11l-6.57-1.37c-1.09,4.65-1.92,8.48-2.46,11.76-.82,3.28-1.1,6.3-1.1,8.76,0,7.11,2.74,12.86,7.66,17.24,4.93,4.38,12.32,6.57,21.61,6.57,6.02,0,11.49-1.09,16.14-2.74,4.66-1.92,8.21-4.38,10.67-7.66,2.18-2.46,3.28-5.74,3.55-9.03,2.46.27,4.65.27,6.29.27h1.09c2.47,0,4.65-.55,6.84-1.37,2.19-.82,4.11-2.19,6.02-4.1,1.09-1.1,2.19-2.47,3.28-4.11,1.64,3.01,4.11,5.2,7.11,7.11,3.55,2.19,7.38,3.55,11.22,3.55s7.12-1.37,9.85-3.55c1.64-1.37,3.01-3.01,3.83-4.93,1.09,1.92,2.46,3.55,4.1,4.65,3.01,1.92,6.57,2.74,11.22,2.74,2.74,0,5.47-.27,8.49-.55,2.73-.55,5.47-1.09,8.48-1.91,2.74-.82,5.74-1.92,8.76-3.28,3.01-1.36,6.29-3.01,9.84-4.93,2.74-1.37,4.93-2.46,6.57-3.55.82,3.01,2.47,5.47,3.83,7.39,1.92,2.19,3.83,3.83,6.29,5.2,2.47,1.09,5.2,1.64,8.21,1.64h1.92c4.65,0,8.2-.55,10.94-1.64,2.19-1.09,3.83-2.74,4.92-4.65,1.37,2.19,3.01,3.55,5.47,4.65,2.74,1.09,6.02,1.64,10.12,1.64h1.09c6.3,0,10.95-1.37,13.95-4.65,3.01-3.01,4.38-7.66,4.38-14.23l.28-47.6-6.84,1.09.28,46.24ZM528.05,700.73c-1.91,1.37-4.1,2.19-6.57,2.19-3.55,0-6.57-1.36-9.85-3.83-1.91-1.64-3.28-3.55-4.65-5.47l2.47-4.1c1.64-2.74,3.28-4.66,4.92-6.02,1.64-1.37,3.56-1.91,5.2-1.91,2.19,0,3.83.82,5.74,2.19,1.64,1.64,3.01,3.82,4.1,7.11l2.19,5.75c-.82,1.91-2.19,3.01-3.55,4.1"/>
  <rect class="cls-1" x="702.88" y="699.36" width="9.3" height="10.95"/>
  <rect class="cls-1" x="758.69" y="699.36" width="9.3" height="10.95"/>
  <rect class="cls-1" x="730.78" y="699.36" width="9.3" height="10.95"/>
  <rect class="cls-1" x="808.88" y="642.3" width="8.51" height="8.51" transform="translate(-219.02 764.38) rotate(-45)"/>
  <rect class="cls-1" x="795.75" y="642.3" width="8.51" height="8.51" transform="translate(-222.87 755.09) rotate(-45)"/>
  <polygon class="cls-1" points="874.42 726.72 880.44 732.74 886.73 726.72 880.44 720.7 874.42 726.72"/>
  <rect class="cls-1" x="889.31" y="722.47" width="8.51" height="8.51" transform="translate(-252.16 844.63) rotate(-45)"/>
  <polygon class="cls-1" points="913 727 919.56 733.56 926.13 727 919.56 720.7 913 727"/>
  <path class="cls-1" d="M1019.96,691.15c0,3.83-.82,6.57-2.73,8.21-1.64,1.64-4.92,2.74-9.03,2.74h-9.03c2.19-2.74,3.28-6.02,3.28-10.12,0-3.56-.82-6.84-2.19-9.57-1.37-2.74-3.55-5.2-6.02-6.84-2.74-1.64-5.47-2.46-8.76-2.46s-6.56.82-9.84,2.46c-3.56,1.64-6.84,3.83-10.12,6.57-.55.28-1.09.82-1.37,1.36l.55-39.67-6.84,1.09.55,44.59c-.82.82-1.64,1.64-2.19,2.47-2.19,3.28-4.38,6.56-6.02,10.12h-3.55c-4.66,0-7.66-.82-9.58-2.19-1.91-1.37-3.01-3.28-3.01-5.74v-2.47c.27-1.09.27-1.91.27-2.46l.55-7.66h-6.29l-1.37,12.86c-.27,1.09-.54,2.19-.82,3.28-.82,1.37-1.91,2.46-3.55,3.28-1.92.55-4.66,1.09-8.76,1.09-4.65,0-7.66-.82-9.57-2.19-1.92-1.37-3.01-3.28-3.01-5.74v-2.47c.28-1.09.28-1.91.28-2.46l.55-7.66h-6.29l-1.37,12.86c-.27,1.09-.55,2.19-1.09,3.28-.55,1.37-1.64,2.46-3.28,3.28-1.91.55-4.65,1.09-8.76,1.09s-7.66-.28-10.94-.82c-3.01-.55-5.47-1.1-7.94-2.19,1.64-1.09,3.28-2.19,4.93-3.56,3.28-3.01,6.3-6.29,9.03-9.85v-8.48c-3.55-2.19-7.11-3.83-10.67-5.2-3.55-1.09-7.11-1.64-10.67-1.64-3.28,0-6.84.55-10.4,1.36-3.82.82-7.38,2.19-10.94,4.11l-1.64,7.66c3.28,3.56,6.01,6.57,9.03,9.58,2.19,2.19,4.38,4.1,6.84,5.74-1.91.55-3.83,1.09-6.02,1.64-4.65,1.09-9.3,1.64-14.5,1.64-3.55,0-6.29-.55-8.21-1.09-1.91-.55-3.28-1.64-4.1-3.28-.82-1.64-1.36-3.83-1.36-6.57v-30.09l-6.57.82v4.92c-5.2,1.09-9.57,2.47-13.41,4.38-4.11,1.92-7.38,4.38-9.57,7.11-2.47,3.01-3.56,6.02-3.56,9.3,0,4.38,1.64,7.66,4.93,10.12,3.01,2.46,7.39,3.56,12.59,3.56,1.91,0,4.1,0,6.29-.28,1.37-.28,2.74-.28,3.83-.82,0,1.1.55,1.92.82,2.74,1.37,2.74,3.56,4.65,6.57,5.75,3.01,1.09,6.84,1.64,11.76,1.64,5.47,0,10.67-.55,15.59-1.92,4.11-1.09,8.21-2.74,11.77-4.65,1.37.82,2.73,1.64,4.1,2.19,3.28,1.64,6.57,2.74,10.4,3.28,3.55.82,7.66,1.09,12.03,1.09,4.66,0,8.21-.55,10.95-1.64,2.19-1.09,3.83-2.74,4.93-4.65,1.37,2.19,3.01,3.56,5.47,4.65,2.74,1.09,6.01,1.64,10.12,1.64h1.09c4.65,0,8.21-.55,10.95-1.64,2.18-1.09,3.82-2.74,4.93-4.65,1.37,2.19,3.01,3.56,5.47,4.65,2.74,1.09,6.02,1.64,10.13,1.64h27.36c6.57,0,12.04-.55,16.41-1.92.55-.27,1.37-.55,1.92-.82,1.37.55,2.74,1.09,4.1,1.37l4.11.82c1.64.27,3.01.27,4.37.55h4.38c6.3,0,10.95-1.37,13.95-4.65,3.01-3.01,4.38-7.66,4.38-14.22l.28-47.61-7.11,1.09.27,46.24ZM798.36,693.07c-3.56,0-6.3-.55-8.21-1.64-1.64-.82-2.74-2.19-2.74-4.11,0-2.19,1.09-3.83,2.74-5.74,1.91-1.64,4.38-3.28,7.66-4.38,3.01-1.09,6.02-1.91,9.57-2.19v17.24c-.82,0-1.37.28-2.19.28-2.47.27-4.66.55-6.84.55M855.27,695.53c-.55-.55-1.09-1.09-1.64-1.36-2.46-1.64-5.2-3.83-7.66-6.57-2.19-1.92-4.1-4.11-6.29-6.57,1.64-.55,3.28-1.09,5.47-1.64,3.28-.82,6.57-1.09,9.85-1.09,3.55,0,7.11.55,10.94,1.64,1.92.55,3.83,1.09,5.75,2.19-1.92,2.46-4.11,4.65-6.57,6.57-2.74,2.46-6.3,4.93-9.85,6.84M986.32,701.01c-3.55.55-7.94,1.09-13.68,1.09h-15.05c1.92-3.28,4.11-6.29,6.3-9.03,3.28-3.83,6.84-6.84,10.39-8.76,3.56-2.19,7.12-3.28,10.4-3.28,2.19,0,4.38.55,6.02,1.37,1.64,1.09,3.01,2.46,3.83,4.1,1.09,1.64,1.37,3.28,1.37,5.47,0,2.46-.55,4.38-2.19,5.74-1.64,1.64-4.1,2.74-7.38,3.28"/>
  <polygon class="cls-1" points="1045.69 710.31 1052.25 710.31 1052.25 643.82 1045.41 644.92 1045.69 710.31"/>
  <polygon class="cls-1" points="1117.37 745.6 1123.39 751.62 1129.68 745.6 1123.39 739.58 1117.37 745.6"/>
  <rect class="cls-1" x="1106.27" y="741.34" width="8.51" height="8.51" transform="translate(-201.9703 1003.5576) rotate(-44.9963)"/>
  <path class="cls-1" d="M1300.94,683.77c-.27-2.74-.55-5.47-1.09-8.21-.27-2.47-.82-4.93-1.09-7.11l-6.84,2.74c.27,2.19.82,4.38,1.09,7.11.55,2.46.82,4.92,1.36,7.38.28,2.46.55,4.38.82,6.29,0,1.92.27,3.28.27,4.11,0,1.91-1.09,3.55-3.28,4.38-2.19,1.09-6.02,1.64-11.76,1.64h-1.37c-3.28,0-6.02-1.09-8.48-3.01-2.47-1.37-3.83-3.28-4.93-5.74,1.37-.82,2.47-1.37,3.29-1.64,1.09-.28,1.91-.55,2.46-.55l.82-7.11c-1.92-.27-3.83-.82-5.75-1.36-1.91-.28-3.83-1.09-6.02-1.92-2.46-.82-5.2-2.19-8.75-3.55-4.11-1.92-7.66-3.01-9.85-3.83-2.47-.82-4.66-1.09-6.84-1.09-2.73,0-5.2.55-7.38,1.64-1.91,1.09-3.83,3.01-5.2,5.47l4.65,4.38c1.37-1.37,2.47-2.19,3.83-2.74,1.37-.55,3.01-.82,4.93-.82,1.09,0,2.46,0,3.83.28,1.09.27,2.46.82,4.1,1.09,1.37.55,3.01,1.09,4.93,1.91,2.74,1.09,5.74,2.19,8.48,3.28,1.37.27,2.74.82,4.11,1.09-1.09.55-2.74,1.09-4.38,2.19-2.19.82-4.93,2.19-8.21,4.1-2.74,1.37-5.47,2.47-7.93,3.56-2.74.82-5.2,1.64-7.66,2.46-2.46.55-4.93,1.09-7.38,1.37-2.47.27-4.93.54-7.66.54-2.19,0-4.1-.54-5.74-1.09s-3.01-1.64-4.11-3.01c-1.09-1.64-2.19-3.28-3.01-5.74l-2.47-6.57c-.82-1.91-1.64-3.83-2.46-5.2-1.09-1.64-2.19-3.01-3.55-4.11-1.37-1.09-2.74-1.91-4.11-2.46-1.64-.55-3.01-.82-4.65-.82-2.74,0-5.2.82-7.66,2.74-2.46,1.64-4.65,4.11-6.84,7.66l-6.02,10.12c-.82,1.64-2.19,3.01-3.56,4.38-1.37,1.37-2.73,2.19-4.37,3.01-1.64.55-3.01,1.09-4.66,1.09-1.36,0-3.28-.27-5.74-.27-2.47-.27-5.2-.55-8.21-.82-2.74-.28-5.47-.55-7.93-1.09l-1.37,8.2c3.28.55,6.3,1.09,9.3,1.37,0,1.64-1.09,3.28-3.01,4.93-2.19,1.91-5.2,3.55-8.76,4.65-3.83,1.37-7.93,1.91-12.31,1.91-7.11,0-12.31-1.64-16.14-4.65-3.83-3.01-5.75-7.11-5.75-12.59,0-1.09,0-2.73.28-4.37.27-1.64.55-3.56,1.09-5.75.27-1.91.82-4.38,1.36-7.11l-6.29-1.37c-1.37,4.65-2.19,8.48-2.74,11.76-.55,3.28-.82,6.3-.82,8.76,0,7.11,2.47,12.86,7.66,17.24,4.93,4.38,12.04,6.57,21.61,6.57,6.02,0,11.49-1.09,16.14-2.74,4.38-1.92,7.94-4.38,10.67-7.66,2.18-2.46,3.28-5.74,3.55-9.03,2.46.27,4.65.27,6.29.27h1.09c2.19,0,4.66-.55,6.57-1.37,2.19-.82,4.38-2.19,6.02-4.1,1.36-1.1,2.46-2.47,3.55-4.11,1.64,3.01,4.11,5.2,6.84,7.11,3.83,2.19,7.38,3.55,11.49,3.55,3.83,0,7.12-1.37,9.85-3.55,1.64-1.37,2.74-3.01,3.55-4.93,1.37,1.92,2.74,3.55,4.38,4.65,2.74,1.92,6.57,2.74,10.95,2.74,3.01,0,5.74-.27,8.48-.55,3.01-.55,5.75-1.09,8.76-1.91,2.74-.82,5.74-1.92,8.76-3.28,3.01-1.36,6.29-3.01,9.57-4.93,2.74-1.37,5.2-2.46,6.84-3.55.82,3.01,2.19,5.47,3.83,7.39,1.64,2.19,3.83,3.83,6.3,5.2,2.46,1.09,5.2,1.64,7.93,1.64h1.91c4.66,0,8.76-.55,11.76-1.64,3.28-.82,5.75-2.46,7.39-4.65,1.64-2.19,2.46-4.93,2.46-8.21,0-1.09-.28-2.74-.28-4.93-.27-2.19-.54-4.38-.82-7.11M1196.43,700.73c-1.91,1.37-4.1,2.19-6.57,2.19-3.55,0-6.84-1.36-9.84-3.83-1.92-1.64-3.56-3.55-4.66-5.47l2.47-4.1c1.37-2.74,3.01-4.66,4.92-6.02,1.64-1.37,3.28-1.91,5.2-1.91s3.83.82,5.47,2.19c1.91,1.64,3.28,3.82,4.37,7.11l1.92,5.75c-.55,1.91-1.92,3.01-3.28,4.1"/>
  <rect class="cls-1" x="1290.12" y="649.69" width="8.51" height="8.51" transform="translate(-83.325 1106.7117) rotate(-44.9963)"/>
</svg>