<?xml version="1.0" encoding="UTF-8"?>
<svg id="Layer_1" data-name="Layer 1" xmlns="http://www.w3.org/2000/svg" viewBox="0 0 1920 1080">
  <defs>
    <style>
      .cls-1 {
        fill: #fff;
      }
    </style>
  </defs>
  <polygon class="cls-1" points="1580.15 737 1443.07 737 1443.07 814.75 1580.15 814.75 1717.27 814.75 1854.37 814.75 1854.37 737 1717.27 737 1580.15 737"/>
  <polygon class="cls-1" points="1689.67 538.96 1525.42 538.96 1525.42 456.61 1644.4 365.37 1772.01 456.61 1854.37 456.61 1854.37 414.25 1642.91 263.08 1443.07 414.99 1443.07 621.32 1689.67 621.32 1689.67 538.96"/>
  <polygon class="cls-1" points="1854.37 538.96 1854.37 476.66 1772.01 476.66 1772.01 538.96 1709.71 538.96 1709.71 621.32 1772.01 621.32 1772.01 680.28 1854.37 680.28 1854.37 621.32 1920 621.32 1920 538.96 1854.37 538.96"/>
  <path class="cls-1" d="M51.83,633.53c-1.84-1.84-4.01-3.3-6.52-4.38-2.54-1.08-5.32-1.76-8.35-1.99v-.25c5.64-1.46,10.11-3.82,13.38-7.09,3.33-3.33,4.98-8.04,4.98-14.07,0-4.05-.75-7.54-2.27-10.39-1.52-2.87-3.66-5.2-6.4-6.98-2.78-1.76-6.06-3.07-9.92-3.88-3.82-.81-8.05-1.22-12.66-1.22H0v88.97h23.7c4.53,0,8.84-.34,12.96-1.03,4.08-.68,7.71-1.88,10.82-3.67,3.1-1.76,5.57-4.17,7.4-7.24,1.84-3.07,2.74-7,2.74-11.77,0-3.1-.52-5.92-1.52-8.45-1.02-2.53-2.44-4.72-4.27-6.57M12.77,593.76h13.38l5.67.57,5.32,2.13,3.9,4.05c1.01,1.71,1.52,3.85,1.52,6.47,0,3.29-.62,5.88-1.84,7.79l-4.98,4.3c-2.08.94-4.52,1.54-7.26,1.81-2.78.29-5.69.43-8.76.43h-6.96v-27.56ZM42.35,654.66l-4.8,4.38c-2.02,1.05-4.33,1.77-6.97,2.18-2.62.41-5.42.6-8.29.6h-9.52v-30.05h8.27c2.73,0,5.47.15,8.2.46,2.74.36,5.21,1.08,7.45,2.16l5.36,4.77c1.39,2.08,2.06,4.83,2.06,8.26,0,2.96-.59,5.37-1.76,7.24"/>
  <path class="cls-1" d="M87.33,672.68c2.92.75,6.14,1.16,9.63,1.16,2.68,0,5.13-.36,7.29-1.01l5.79-2.5,4.28-3.24,2.8-3.24h.24v8.4h11.2l-.37-4.3c-.08-1.9-.14-4.71-.14-8.45v-26.9c0-8.87-2-15.55-6.07-20.08-4.04-4.52-10.72-6.79-20.03-6.79-4.17,0-8.02.57-11.59,1.73-3.56,1.13-6.85,2.59-9.84,4.38l.63,10.19c2.5-2.02,5.4-3.63,8.73-4.82,3.37-1.17,6.71-1.76,10.12-1.76,6.06,0,10.26,1.42,12.58,4.27,2.32,2.83,3.48,7.03,3.48,12.64l-3.36-.18-2.99-.06h-6.34c-3.12,0-6.43.37-9.93,1.1-3.6.72-6.88,1.88-9.87,3.56l-4.17,2.86-3.3,3.67-2.21,4.59-.75,5.61c0,3.56.57,6.63,1.73,9.18,1.16,2.54,2.81,4.65,4.94,6.31,2.09,1.67,4.64,2.89,7.54,3.66M88.49,646.7c1.73-1.71,3.82-2.93,6.22-3.72,2.48-.92,4.98-1.48,7.48-1.64l3.48-.23,2.8-.08,3.78.12,3.81.14v5.71c0,4.79-1.52,8.87-4.59,12.19-3.04,3.27-7.53,4.91-13.45,4.91l-4.2-.71-3.93-2.05-2.89-3.31-1.12-4.5c0-2.87.89-5.13,2.62-6.85"/>
  <rect class="cls-1" x="149.1" y="579.25" width="13.5" height="13.51"/>
  <rect class="cls-1" x="149.83" y="607.3" width="12.01" height="64.97"/>
  <path class="cls-1" d="M214.65,673.23l4.64-1.2v-10.19l-3.36,1.55-4.8.71c-2.65,0-5-.95-7.11-2.89-1.96-1.91-2.98-4.8-2.98-8.65v-35.61h17.24v-9.63h-17.24v-18.92l-11.94,3.85v15.07h-14.69v9.63h14.69v37.97c0,6.49,1.79,11.29,5.35,14.36,3.53,3.05,8.39,4.53,14.63,4.53l5.55-.57Z"/>
  <path class="cls-1" d="M311.44,583.28h-13.38l-37.97,88.99h13.38l9.02-22.39h43.58l9.07,22.39h13.89l-37.6-88.99ZM286.61,639.41l17.67-44.12,17.75,44.12h-35.43Z"/>
  <rect class="cls-1" x="362.27" y="576.69" width="12.01" height="95.58"/>
  <path class="cls-1" d="M491.81,594.88c-4.3-3.75-9.33-6.62-15.07-8.61-5.75-1.99-11.91-2.99-18.52-2.99h-26.23v88.99h26.23c7.33,0,13.88-.97,19.74-2.86,5.86-1.91,10.81-4.76,14.93-8.54,4.08-3.75,7.26-8.5,9.47-14.16,2.19-5.66,3.3-12.22,3.3-19.7,0-6.85-1.26-12.95-3.73-18.38-2.47-5.43-5.84-9.98-10.12-13.76M489.9,642.41c-1.5,4.23-3.67,7.71-6.56,10.46-2.88,2.76-6.44,4.83-10.67,6.17-4.24,1.36-9.09,2.03-14.57,2.03h-13.38v-66.59h14.87c4.62,0,8.88.77,12.85,2.24,3.98,1.51,7.42,3.67,10.33,6.49,2.93,2.81,5.22,6.28,6.9,10.37,1.65,4.08,2.48,8.73,2.48,13.92,0,5.74-.76,10.69-2.25,14.91"/>
  <path class="cls-1" d="M574.21,659.51v-26.88c0-8.88-2.05-15.56-6.12-20.11-4.01-4.51-10.69-6.79-20.02-6.79-4.14,0-8.01.59-11.56,1.72-3.56,1.13-6.85,2.61-9.84,4.39l.63,10.22c2.5-2.03,5.39-3.67,8.73-4.84,3.33-1.19,6.73-1.76,10.13-1.76,6.03,0,10.23,1.42,12.55,4.3,2.33,2.81,3.49,7.02,3.49,12.61l-3.36-.19-2.98-.05h-6.36c-3.11,0-6.41.37-9.96,1.11-3.56.69-6.85,1.88-9.83,3.56l-4.18,2.85-3.33,3.67-2.18,4.62-.78,5.58c0,3.57.6,6.63,1.76,9.17,1.16,2.57,2.8,4.68,4.91,6.32,2.13,1.68,4.64,2.89,7.57,3.64,2.91.78,6.12,1.16,9.6,1.16,2.7,0,5.14-.34,7.31-.98l5.8-2.5,4.24-3.23,2.81-3.25h.26v8.39h11.2l-.37-4.27c-.11-1.91-.13-4.72-.13-8.47M562.2,647c0,4.8-1.55,8.88-4.61,12.19-3.02,3.28-7.5,4.94-13.45,4.94l-4.2-.73-3.91-2.05-2.89-3.3-1.13-4.52c0-2.86.87-5.14,2.63-6.83,1.74-1.71,3.81-2.95,6.22-3.73,2.5-.91,4.98-1.44,7.48-1.62l3.48-.21,2.78-.11,3.79.14,3.81.12v5.72Z"/>
  <polygon class="cls-1" points="661.39 661.07 661.16 661.07 644.83 607.32 630.64 607.32 614.09 661.07 613.86 661.07 598.96 607.32 585.85 607.32 606.7 672.26 620.64 672.26 637.05 617.7 637.31 617.7 654.09 672.26 668.05 672.26 688.88 607.32 677.19 607.32 661.39 661.07"/>
  <path class="cls-1" d="M751.24,659.51v-26.88c0-8.88-2.05-15.56-6.12-20.11-4.01-4.51-10.69-6.79-20.02-6.79-4.14,0-8.01.59-11.56,1.72-3.56,1.13-6.85,2.61-9.84,4.39l.63,10.22c2.5-2.03,5.39-3.67,8.73-4.84,3.33-1.19,6.73-1.76,10.13-1.76,6.03,0,10.23,1.42,12.55,4.3,2.33,2.81,3.49,7.02,3.49,12.61l-3.36-.19-2.98-.05h-6.36c-3.11,0-6.41.37-9.96,1.11-3.56.69-6.85,1.88-9.83,3.56l-4.18,2.85-3.33,3.67-2.18,4.62-.75,5.58c0,3.57.57,6.63,1.73,9.17,1.16,2.57,2.8,4.68,4.91,6.32,2.13,1.68,4.64,2.89,7.57,3.64,2.91.78,6.12,1.16,9.6,1.16,2.7,0,5.14-.34,7.31-.98l5.8-2.5,4.27-3.23,2.81-3.25h.23v8.39h11.2l-.37-4.27c-.11-1.91-.13-4.72-.13-8.47M739.23,647c0,4.8-1.55,8.88-4.61,12.19-3.02,3.28-7.5,4.94-13.44,4.94l-4.21-.73-3.91-2.05-2.89-3.3-1.13-4.52c0-2.86.87-5.14,2.63-6.83,1.74-1.71,3.81-2.95,6.22-3.73,2.5-.91,4.98-1.44,7.48-1.62l3.48-.21,2.78-.11,3.79.14,3.81.12v5.72Z"/>
  <path class="cls-1" d="M848.52,630.7l-6.17-5.27c-2.3-1.47-4.62-2.78-7.05-3.94-3.28-1.49-6.34-3.01-9.22-4.5-2.87-1.52-5.21-3.21-7.08-5.06-1.87-1.82-2.81-4.15-2.81-7.06l1.43-5.71,3.67-3.67,5.01-1.94,5.43-.56,4.53.25,3.91.72,3.88,1.16,4.35,1.6,1.82-11.75c-3.1-1.13-6.29-1.95-9.58-2.44-3.28-.49-6.43-.75-9.39-.75-3.98,0-7.69.53-11.17,1.58-3.48,1.08-6.49,2.62-9.09,4.64-2.59,2.06-4.62,4.57-6.11,7.61-1.46,3.02-2.21,6.5-2.21,10.4,0,3.44.56,6.44,1.64,8.92,1.07,2.51,2.51,4.7,4.32,6.55l6.17,4.8c2.28,1.34,4.64,2.6,7.02,3.73,2.39,1.16,4.72,2.29,7.03,3.34l6.17,3.67,4.32,4.71c1.08,1.76,1.62,3.87,1.62,6.37s-.57,4.84-1.73,6.66l-4.32,4.47-5.69,2.57-5.75.81-5.07-.44-5.01-1.11-4.57-1.39-3.82-1.36-1.26,11.77c2.99.94,6.02,1.81,8.99,2.57,3.02.76,6.12,1.16,9.27,1.16,4.38,0,8.58-.51,12.51-1.49,3.92-1.01,7.39-2.54,10.35-4.68,2.96-2.13,5.32-4.87,7.03-8.23,1.73-3.34,2.6-7.39,2.6-12.1,0-3.67-.56-6.85-1.64-9.55-1.07-2.67-2.51-5.06-4.32-7.08"/>
  <path class="cls-1" d="M906.27,663.15l-6.56.98c-3.85,0-7.15-.75-9.92-2.18-2.71-1.45-4.98-3.36-6.7-5.66-1.76-2.35-3.01-4.97-3.82-7.85-.82-2.89-1.2-5.78-1.2-8.65,0-3.12.46-6.13,1.39-9.02.94-2.9,2.29-5.51,4.05-7.77,1.82-2.28,4-4.11,6.56-5.49,2.57-1.36,5.51-2.04,8.84-2.04l6.28.69,6.74,2.13,1.05-9.96c-1.58-.66-3.82-1.26-6.73-1.74-2.64-.54-5.26-.8-7.84-.8-4.98,0-9.51.83-13.59,2.54-4.05,1.7-7.51,4.05-10.4,7.05-2.89,3.01-5.14,6.6-6.71,10.79-1.59,4.16-2.41,8.7-2.41,13.64,0,4.65.81,9.03,2.44,13.18,1.61,4.11,3.88,7.72,6.82,10.82,2.92,3.09,6.4,5.54,10.46,7.34,4.04,1.77,8.49,2.7,13.4,2.7,2.24,0,4.68-.15,7.34-.48,2.65-.3,5.21-1.04,7.71-2.19l-.86-10.7-6.32,2.7Z"/>
  <rect class="cls-1" x="927.94" y="579.25" width="13.51" height="13.51"/>
  <rect class="cls-1" x="928.7" y="607.3" width="12.01" height="64.97"/>
  <path class="cls-1" d="M1015.95,627.95c-.97-4.49-2.54-8.34-4.78-11.65-2.22-3.3-5.15-5.87-8.82-7.75-3.67-1.87-8.22-2.8-13.62-2.8-4.58,0-8.76.79-12.51,2.42-3.72,1.62-6.92,3.88-9.59,6.82-2.67,2.9-4.75,6.41-6.22,10.41-1.43,4.04-2.18,8.44-2.18,13.2,0,5.28.68,10.07,2.06,14.4,1.33,4.32,3.4,8.05,6.18,11.12,2.77,3.07,6.26,5.45,10.52,7.13,4.2,1.72,9.19,2.57,14.94,2.57,2.64,0,4.98-.17,7.01-.45l5.46-1.08,4.32-1.39,3.7-1.31v-12.03l-3.26,2.06-4.84,2.13-5.8,1.65-6.11.71c-2.83,0-5.54-.53-8.13-1.6-2.59-1.05-4.87-2.54-6.85-4.43-1.96-1.91-3.53-4.22-4.71-6.88-1.16-2.64-1.73-5.55-1.73-8.76h46.36c0-5.24-.47-10.05-1.42-14.51M971.01,633.5l1.49-6.32,3.18-5.82,5.19-4.23c2.09-1.11,4.64-1.67,7.63-1.67,2.57,0,4.84.48,6.86,1.42l5.06,3.91,3.18,5.72c.72,2.17,1.08,4.5,1.08,7h-33.67Z"/>
  <path class="cls-1" d="M1066.59,605.75c-4.56,0-8.81,1.05-12.77,3.12-3.85,2.02-6.67,4.94-8.51,8.71h-.25v-10.28h-11.58v64.97h11.95v-30.04c0-3.97.4-7.56,1.16-10.83.75-3.28,1.96-6.11,3.56-8.48,1.61-2.35,3.66-4.18,6.15-5.49,2.5-1.31,5.49-1.97,8.93-1.97,5.26.29,8.85,2.32,10.82,6.1,1.93,3.79,2.9,9.44,2.9,17.05v33.67h11.97v-38.65c0-8.76-1.94-15.58-5.86-20.48-3.95-4.92-10.12-7.39-18.48-7.39"/>
  <path class="cls-1" d="M1138.7,664.11c-2.65,0-5.03-.97-7.11-2.93-1.96-1.9-2.96-4.78-2.96-8.64v-35.59h17.22v-9.65h-17.22v-18.91l-11.95,3.86v15.05h-14.69v9.65h14.69v37.95c0,6.51,1.78,11.3,5.35,14.37,3.52,3.04,8.39,4.54,14.62,4.54l5.57-.57,4.64-1.23v-10.21l-3.36,1.61-4.8.71Z"/>
  <rect class="cls-1" x="1161.66" y="579.25" width="13.51" height="13.51"/>
  <rect class="cls-1" x="1162.41" y="607.3" width="12.01" height="64.97"/>
  <path class="cls-1" d="M1225.89,575.14c-4.49,0-8.13.63-10.97,1.87-2.82,1.25-5.03,3.01-6.6,5.29-1.64,2.28-2.73,5.04-3.34,8.23-.57,3.22-.89,6.79-.89,10.75v6.03h-15.29v9.65h15.29v55.32h11.95v-55.32h17.23v-9.65h-17.23v-7.04l.37-6.12,1.57-4.89,3.55-3.24c1.51-.79,3.6-1.19,6.15-1.19l3.07.18,2.65.57.5-9.64-3.78-.52-4.24-.3Z"/>
  <rect class="cls-1" x="1247.42" y="607.3" width="12.01" height="64.97"/>
  <rect class="cls-1" x="1246.65" y="579.25" width="13.5" height="13.51"/>
  <path class="cls-1" d="M1316.94,663.14l-6.56.98c-3.85,0-7.15-.72-9.92-2.18-2.73-1.45-4.95-3.33-6.7-5.66-1.73-2.35-3.01-4.94-3.82-7.85-.82-2.89-1.2-5.78-1.2-8.65,0-3.08.46-6.1,1.39-9.02.94-2.9,2.3-5.51,4.08-7.77,1.79-2.28,3.97-4.11,6.53-5.46,2.57-1.39,5.54-2.07,8.84-2.07l6.29.69,6.71,2.13,1.05-9.96c-1.58-.66-3.8-1.23-6.71-1.74-2.64-.54-5.28-.8-7.84-.8-4.98,0-9.5.83-13.56,2.54-4.07,1.7-7.56,4.05-10.44,7.08-2.89,2.98-5.11,6.57-6.71,10.76-1.61,4.16-2.39,8.73-2.39,13.64,0,4.65.78,9.06,2.42,13.18,1.62,4.13,3.87,7.72,6.82,10.82,2.92,3.09,6.4,5.52,10.46,7.34,4.04,1.81,8.49,2.7,13.4,2.7,2.25,0,4.69-.15,7.34-.48,2.65-.3,5.21-1.01,7.72-2.2l-.88-10.69-6.32,2.7Z"/>
  <path class="cls-1" d="M51.83,786.45c-1.84-1.84-4.01-3.3-6.52-4.38-2.54-1.08-5.32-1.73-8.35-1.99v-.25c5.64-1.46,10.11-3.82,13.38-7.09,3.33-3.33,4.98-8.01,4.98-14.07,0-4.05-.75-7.54-2.27-10.39-1.52-2.87-3.66-5.2-6.4-6.98-2.78-1.77-6.06-3.07-9.92-3.88-3.82-.81-8.05-1.22-12.66-1.22H0v88.97h23.7c4.53,0,8.84-.34,12.96-1,4.08-.71,7.71-1.91,10.82-3.7,3.1-1.74,5.57-4.17,7.4-7.24,1.84-3.07,2.74-7,2.74-11.77,0-3.1-.52-5.92-1.52-8.45-1.02-2.53-2.44-4.74-4.27-6.57M12.77,746.68h13.38l5.67.57,5.32,2.13,3.9,4.06c1.01,1.71,1.52,3.85,1.52,6.47,0,3.29-.62,5.88-1.84,7.79l-4.98,4.3c-2.08.94-4.52,1.54-7.26,1.81-2.78.29-5.69.43-8.76.43h-6.96v-27.56ZM42.35,807.58l-4.8,4.38c-2.02,1.08-4.33,1.79-6.97,2.18-2.62.4-5.42.6-8.29.6h-9.52v-30.05h8.27c2.73,0,5.47.15,8.2.46,2.74.36,5.21,1.05,7.45,2.16l5.36,4.77c1.39,2.08,2.06,4.83,2.06,8.26,0,2.96-.59,5.37-1.76,7.24"/>
  <path class="cls-1" d="M122.96,790.28c0,3.93-.4,7.56-1.16,10.82-.75,3.29-1.96,6.08-3.6,8.47-1.58,2.36-3.64,4.2-6.14,5.51-2.48,1.31-5.44,1.94-8.82,1.94-5.27-.29-8.91-2.32-10.92-6.08-1.93-3.78-2.9-9.5-2.9-17.12v-33.59h-11.97v38.57c0,8.77,1.94,15.64,5.86,20.53,3.94,4.95,10.08,7.42,18.48,7.42,4.56,0,8.81-1.05,12.77-3.13,3.86-2.07,6.7-4.98,8.52-8.74h.25v10.3h11.55v-64.94h-11.92v30.04Z"/>
  <path class="cls-1" d="M183.76,758.67c-3.53,0-6.82,1.08-9.89,3.25-3.18,2.18-5.54,4.95-7.11,8.32h-.24v-10.02h-11.23v64.97h11.97v-29.55c0-8.17,1.62-14.63,4.84-19.37,3.22-4.75,7.53-7.15,12.88-7.15l3.27.26,3.4.87v-10.71l-3.58-.63-4.32-.23Z"/>
  <path class="cls-1" d="M258.25,780.87c-.97-4.49-2.54-8.34-4.76-11.65-2.24-3.3-5.17-5.87-8.84-7.75-3.67-1.87-8.2-2.8-13.62-2.8-4.58,0-8.76.79-12.51,2.42-3.72,1.62-6.91,3.91-9.59,6.82-2.67,2.92-4.75,6.41-6.18,10.43-1.46,4.03-2.18,8.42-2.18,13.2,0,5.26.65,10.05,2.03,14.39,1.33,4.32,3.4,8.02,6.18,11.12,2.77,3.07,6.26,5.45,10.51,7.13,4.21,1.72,9.19,2.57,14.92,2.57,2.67,0,5.01-.17,7.05-.45l5.46-1.08,4.32-1.39,3.69-1.34v-12l-3.25,2.06-4.84,2.09-5.8,1.68-6.14.71c-2.8,0-5.51-.53-8.1-1.6-2.59-1.05-4.87-2.54-6.85-4.43-1.96-1.91-3.53-4.22-4.71-6.84-1.16-2.67-1.73-5.58-1.73-8.8h46.36c0-5.24-.47-10.05-1.42-14.51M213.31,786.42l1.49-6.32,3.18-5.82,5.19-4.23c2.09-1.14,4.64-1.67,7.63-1.67,2.57,0,4.84.48,6.86,1.45l5.09,3.89,3.13,5.71c.73,2.17,1.1,4.52,1.1,7h-33.67Z"/>
  <path class="cls-1" d="M326.37,812.43v-26.88c0-8.88-2.02-15.56-6.09-20.11-4.04-4.51-10.72-6.79-20.05-6.79-4.14,0-8.01.59-11.56,1.72-3.56,1.13-6.85,2.61-9.84,4.39l.63,10.21c2.5-2.02,5.4-3.66,8.73-4.83,3.33-1.19,6.73-1.76,10.13-1.76,6.05,0,10.24,1.42,12.55,4.27,2.33,2.84,3.49,7.05,3.49,12.64l-3.36-.19-2.98-.05h-6.36c-3.11,0-6.41.37-9.96,1.1-3.56.71-6.85,1.9-9.83,3.58l-4.18,2.85-3.33,3.67-2.18,4.6-.75,5.6c0,3.57.57,6.63,1.73,9.17,1.16,2.54,2.8,4.68,4.91,6.32,2.13,1.65,4.64,2.89,7.57,3.64,2.91.78,6.14,1.16,9.6,1.16,2.7,0,5.14-.34,7.31-.98l5.8-2.5,4.27-3.26,2.81-3.22h.23v8.42h11.2l-.37-4.3c-.11-1.91-.13-4.75-.13-8.47M314.36,799.93c0,4.83-1.55,8.87-4.61,12.19-3.02,3.28-7.5,4.94-13.44,4.94l-4.2-.75-3.93-2.03-2.89-3.3-1.13-4.52c0-2.86.87-5.14,2.63-6.83,1.74-1.71,3.81-2.95,6.22-3.73,2.5-.91,4.98-1.44,7.48-1.62l3.48-.21,2.78-.11,3.79.14,3.81.12v5.72Z"/>
  <path class="cls-1" d="M392.14,790.28c0,3.93-.4,7.56-1.16,10.82-.75,3.29-1.96,6.08-3.6,8.47-1.58,2.36-3.64,4.2-6.14,5.51-2.48,1.31-5.41,1.94-8.84,1.94-5.26-.29-8.91-2.32-10.9-6.08-1.94-3.78-2.9-9.5-2.9-17.12v-33.59h-11.97v38.57c0,8.77,1.94,15.64,5.86,20.53,3.92,4.95,10.08,7.42,18.48,7.42,4.56,0,8.81-1.05,12.77-3.13,3.86-2.07,6.68-4.98,8.52-8.74h.25v10.3h11.55v-64.94h-11.92v30.04Z"/>
  <polygon class="cls-1" points="975.04 351.63 972.46 351.07 969.87 351.63 967.8 353.04 966.38 355.17 965.86 357.73 967.74 362.45 972.46 364.33 975.04 363.81 977.16 362.42 978.57 360.32 979.12 357.73 978.57 355.17 977.16 353.04 975.04 351.63"/>
  <polygon class="cls-1" points="1068.86 275.16 1071.45 274.64 1073.54 273.22 1075 271.16 1075.52 268.56 1075 265.99 1073.54 263.86 1071.45 262.43 1068.86 261.9 1066.27 262.43 1064.18 263.86 1062.78 265.99 1062.26 268.56 1064.14 273.25 1068.86 275.16"/>
  <polygon class="cls-1" points="1086.61 275.16 1089.2 274.64 1091.29 273.22 1092.75 271.16 1093.27 268.56 1092.75 265.99 1091.29 263.86 1089.2 262.43 1086.61 261.9 1084.02 262.43 1081.93 263.86 1080.54 265.99 1080 268.56 1081.92 273.25 1086.61 275.16"/>
  <path class="cls-1" d="M1012.89,337.36l4.16-4.19c2,1.69,4.43,3.09,7.31,4.2,2.89,1.13,6.48,1.68,10.82,1.68h35.31c2.64,0,4.84-.56,6.56-1.7l4.16-4.19c2.03,1.69,4.46,3.09,7.34,4.2,2.86,1.13,6.45,1.68,10.79,1.68h60.32c4.78,0,8.76-.6,11.91-1.84,3.15-1.2,5.64-2.96,7.48-5.18l3.4,2.77,4.21,2.22,5.22,1.49c1.94.37,4.09.53,6.5.53h64.74l4.58-.45,3.78-1.4,3.18-2.65,2.78-4.09,3.64,3.27,5.04,2.96,6.34,2.16c2.36.54,4.87.83,7.57.83,2.84,0,5.39-.37,7.66-1.08l6.11-2.85,4.65-4.17,3.19-4.97,1.87-5.29.63-5.14-.63-5.66-1.91-5.87-3.31-5.58-4.67-4.71-6.11-3.22c-2.28-.78-4.83-1.17-7.6-1.17l-4.2.42-4.76,1.57-5.05,3.28-5.01,5.48c-1.65,2.25-3.19,5-4.71,8.24-1.49,3.22-2.83,7.01-4.03,11.47-.71,2.57-2.08,4.46-4.1,5.64-2.02,1.17-4.29,1.77-6.86,1.77h-62.66c-3.52,0-6.59-.34-9.18-1.02-2.59-.65-4.86-1.65-6.77-2.99l.45-4.72c0-2.74-.5-5.35-1.43-7.84-.96-2.5-2.32-4.87-4.01-7.12-1.74-2.27-3.81-4.41-6.2-6.4-2.4-2.01-5.06-3.84-7.91-5.54l18.98-33.27-8.13-5.72-24.86,42.71c3.38,1.97,6.53,3.93,9.39,5.9,2.86,1.96,5.35,3.97,7.42,5.97l4.83,6.05,1.7,6.07-.6,3.34-2.25,2.48-4.46,1.55c-1.88.36-4.3.54-7.27.54h-58.77c-3.52,0-6.59-.34-9.1-.97-2.57-.65-4.78-1.62-6.66-2.88v-33.03h-11.2v29.84l-1.16,5.29-3.15,1.76h-32.88c-3.53,0-6.57-.34-9.12-.97-2.57-.65-4.8-1.62-6.73-2.96v-32.96h-11.18v29.84l-1.16,5.29-3.15,1.76h-41.98c-6.63,0-11.94-.26-15.89-.78-3.93-.53-6.95-1.33-8.99-2.47l-4.01-4.32c-.63-1.76-.96-3.9-.96-6.37l.33-4.38.63-4.35-10.6-1.01-.48,3.02-.39,3.3-.29,3.22-.08,2.73.41,5.96,1.68,5.35,3.56,4.59c1.52,1.39,3.54,2.56,6.02,3.56,2.5,1.01,5.54,1.79,9.15,2.32,3.6.54,7.9.8,12.88.8h51.23c2.67,0,4.91-.56,6.66-1.7M1283.72,314.78c1.02-2.7,2.32-5.12,3.85-7.18l5.32-5.1c2.02-1.28,4.22-1.93,6.63-1.93,2.54,0,4.72.6,6.53,1.77l4.53,4.38,2.6,5.57.84,5.21-1.07,5.43-3.15,3.33-4.97,1.7-6.45.5-5.19-.5-5.1-1.26-4.2-1.74-2.44-1.84c.46-2.86,1.2-5.64,2.25-8.34"/>
  <polygon class="cls-1" points="53.4 540.6 55.53 539.21 56.94 537.11 57.48 534.52 56.94 531.95 55.53 529.82 53.4 528.38 50.83 527.86 48.24 528.38 46.14 529.82 44.75 531.95 44.22 534.52 46.11 539.24 50.83 541.12 53.4 540.6"/>
  <polygon class="cls-1" points="35.66 540.6 37.78 539.21 39.19 537.11 39.74 534.52 39.19 531.95 37.78 529.82 35.66 528.38 33.08 527.86 30.49 528.38 28.39 529.82 27 531.95 26.48 534.52 28.36 539.24 33.08 541.12 35.66 540.6"/>
  <path class="cls-1" d="M495.25,480.9h-41.88l-6.03-.22-5.48-.56-4.68-.93-3.56-1.2c3.12-3.18,5.61-6.09,7.45-8.79,1.84-2.7,3.25-5.16,4.23-7.39l1.92-5.99.47-4.55-1.79-4.78-4.55-3.33-6.25-1.96-6.79-.66c-2.99,0-5.83.23-8.49.66-2.69.45-5.14.97-7.4,1.62l-6.12,2.14-4.68,2.24-1.28,1.57-1.26,2.75-1.08,3.25-.75,2.96,2.93,3.84,4.04,5.52,4.83,5.9,5.32,4.91-2.22,1.1-3.92.92-5.32.69-6.41.28h-48.82c-3.56,0-6.63-.33-9.19-1.01-2.57-.66-4.83-1.64-6.74-2.99v-74.27h-11.23v71.23l-1.13,5.29-3.15,1.74h-32.82c-3.76,0-6.92-.36-9.57-1.08-2.62-.74-4.94-1.82-6.86-3.28.83-2.56,1.23-5,1.23-7.28l-.62-5.67-1.93-5.86-3.32-5.58-4.65-4.71-6.11-3.19c-2.28-.81-4.83-1.2-7.6-1.2l-4.2.42-4.78,1.57-5.03,3.27-5.01,5.49c-1.65,2.25-3.22,5-4.68,8.2-1.5,3.23-2.86,7.05-4.08,11.51-.71,2.57-2.06,4.46-4.05,5.64-2.02,1.17-4.33,1.76-6.89,1.76h-87.87l-2.93-.37-2.1-1.55-1.23-3.43c-.27-1.49-.43-3.51-.43-6.03v-25.62h-16.54c-8.79,0-15.26,2.1-19.43,6.23-4.23,4.15-6.29,10.37-6.29,18.62v20.81l-1.84,6.73-5.29,5.8c-2.31,1.71-5.12,3.07-8.45,4.08-3.3,1.04-7.05,1.53-11.24,1.53s-8.01-.37-11.17-1.08c-3.18-.68-5.88-1.62-8.13-2.82l-5.54-4.11-3.41-4.84-1.72-4.98-.45-4.59.37-4.72,1.09-4.68,1.68-4.38,2.14-3.72-9.25-5.04-2.9,4.56-2.32,5.64-1.52,6.41-.53,6.85.74,6.15c.46,2.35,1.28,4.72,2.48,7.18,1.19,2.45,2.8,4.87,4.78,7.23,2.02,2.36,4.56,4.47,7.65,6.31,3.1,1.87,6.8,3.34,11.04,4.46,4.24,1.13,9.22,1.68,14.91,1.68,5.98,0,11.33-.86,16.06-2.64,4.68-1.76,8.66-4.11,11.92-6.98,3.28-2.89,5.77-6.15,7.48-9.86,1.72-3.7,2.59-7.46,2.59-11.35v-18.36c0-3.28.42-5.92,1.23-7.94l3.52-4.71,5.51-2.24c2.16-.35,4.63-.57,7.34-.57h2.27v19.51c0,3.34.43,6.18,1.36,8.49l3.63,5.58,5.1,3.04,5.91.94h91.68l4.58-.42,3.78-1.45,3.18-2.64,2.78-4.11,3.64,3.28,5.04,2.96,6.37,2.14c2.33.56,4.84.85,7.54.85,4.41,0,8.16-.85,11.26-2.47,3.09-1.65,5.63-3.7,7.62-6.18l3.49,3.15,4.36,2.54,5.51,1.7c2.06.41,4.36.63,6.97.63h35.24c2.67,0,4.89-.57,6.64-1.7l4.12-4.27c2.02,1.74,4.49,3.16,7.37,4.29,2.88,1.13,6.5,1.68,10.88,1.68h48.18c2.76,0,5.38-.22,7.94-.6,2.54-.4,4.98-.91,7.26-1.58l6.41-2.31,5.54-2.75,4,2.13,6.03,2.35c2.32.76,4.92,1.41,7.8,1.93,2.9.55,6.03.81,9.39.81h56.3v-89.48h-11.2v78.27ZM257.05,476l-3.15,3.31-4.92,1.71c-1.94.34-4.09.5-6.47.5l-5.2-.5-5.09-1.28-4.21-1.74-2.44-1.84c.46-2.85,1.2-5.63,2.25-8.32,1.02-2.7,2.33-5.12,3.85-7.22l5.32-5.06c2.02-1.28,4.2-1.94,6.63-1.94,2.54,0,4.72.59,6.56,1.79l4.5,4.38,2.62,5.55.85,5.22-1.11,5.43ZM429.44,469.23l-5.28,4.01-5.21-4.19-5.06-5.32-4.15-5.29-2.56-4.12c3.22-1.45,6.23-2.47,9.03-3.07,2.77-.6,5.33-.92,7.65-.92l5.46.6,4.08,1.57,2.54,2.27.87,2.59-.87,3.22-2.53,4.17-3.98,4.49Z"/>
  <rect class="cls-1" x="527.61" y="402.69" width="11.23" height="89.48"/>
  <path class="cls-1" d="M629.93,482.14h-3.63l-6.86-.68-6.25-2.18-4.5-3.88-1.73-5.77,1.02-4.38,2.73-3.07,3.93-1.81,4.51-.57,4.9.24,3.64.55.82-9.7-5.28-.66-5.26-.15c-2.36,0-4.78.34-7.22,1.01-2.47.68-4.69,1.76-6.66,3.22l-4.88,5.54c-1.3,2.25-1.92,4.94-1.92,8.02l.73,4.62,1.88,4.02,2.68,3.27,3.01,2.36h-12.58v9.96h36.92v-9.96Z"/>
  <rect class="cls-1" x="648.43" y="402.69" width="11.23" height="89.48"/>
  <path class="cls-1" d="M685.88,484.39c2.08,2.33,4.72,4.21,8.02,5.7,3.25,1.46,7.27,2.22,12.01,2.22l2.86-.12,3.22-.4,3.39-.81,3.17-1.17c-.62,2.48-1.73,4.77-3.31,6.85-1.57,2.06-3.64,3.9-6.18,5.45-2.57,1.57-5.61,2.83-9.17,3.82-3.53,1.01-7.61,1.68-12.22,2l1.17,10.77c5.98-.57,11.46-1.62,16.47-3.12,5.01-1.47,9.33-3.7,12.96-6.6,3.61-2.95,6.41-6.69,8.47-11.26,2.02-4.59,3.04-10.26,3.04-17.01v-10.46c0-3.85-.37-7.25-1.05-10.18-.68-2.93-1.61-5.42-2.78-7.53l-4.04-5.18-4.91-3.28-5.27-1.68-5.11-.46c-4.07,0-7.74.65-11.01,1.99-3.26,1.33-6.06,3.17-8.39,5.51-2.32,2.36-4.08,5.1-5.35,8.26-1.26,3.15-1.88,6.54-1.88,10.15,0,2.88.49,5.77,1.4,8.71.95,2.9,2.45,5.52,4.49,7.86M692.02,461.11l2.89-4.64,4.35-2.96,5.35-1.05,5.09.81,4.46,3.17c1.31,1.57,2.38,3.73,3.19,6.54.78,2.81,1.2,6.41,1.2,10.85v5.4l-1.92.65-2.67.6-3.07.45-3.18.15c-2.99,0-5.55-.38-7.65-1.14l-5.22-3.07-2.96-4.49-.93-5.35,1.05-5.93Z"/>
  <path class="cls-1" d="M806.11,492.13h107.12v-89.51h-11.21v78.29h-96.41c-3.73,0-6.92-.36-9.59-1.07-2.66-.74-4.97-1.87-6.91-3.36l.37-4.3c0-3.07-.65-6.18-1.94-9.33-1.28-3.15-2.96-6.25-5.06-9.25-2.09-2.99-4.47-5.9-7.09-8.7-2.66-2.8-5.32-5.42-8.08-7.77l-8.29,8.16c2.47,1.99,4.87,4.14,7.28,6.44,2.42,2.32,4.59,4.68,6.54,7.06,1.92,2.44,3.49,4.84,4.66,7.25,1.19,2.45,1.76,4.78,1.76,6.95l-.6,3.34-2.25,2.48-4.46,1.57c-1.88.36-4.3.53-7.24.53h-21.24v11.23h22.65c4.91,0,8.94-.65,12.12-1.96,3.18-1.31,5.69-3.15,7.5-5.46l3.47,2.92,4.27,2.38,5.33,1.55c2,.36,4.23.57,6.69.57h.6Z"/>
  <rect class="cls-1" x="934.39" y="402.7" width="11.23" height="89.48"/>
  <polygon class="cls-1" points="1056.38 415.47 1053.79 414.94 1051.21 415.47 1049.11 416.9 1047.72 419.03 1047.2 421.64 1049.08 426.32 1053.79 428.2 1056.38 427.68 1058.5 426.29 1059.93 424.2 1060.43 421.64 1059.93 419.03 1058.5 416.9 1056.38 415.47"/>
  <polygon class="cls-1" points="1038.62 415.47 1036.03 414.94 1033.46 415.47 1031.36 416.9 1029.97 419.03 1029.45 421.64 1031.33 426.32 1036.03 428.2 1038.62 427.68 1040.75 426.29 1042.16 424.2 1042.71 421.64 1042.16 419.03 1040.75 416.9 1038.62 415.47"/>
  <polygon class="cls-1" points="1201.28 516.87 1203.41 515.48 1204.85 513.38 1205.36 510.79 1204.85 508.22 1203.41 506.09 1201.28 504.67 1198.71 504.13 1196.12 504.67 1194.05 506.09 1192.63 508.22 1192.1 510.79 1194.02 515.51 1198.71 517.39 1201.28 516.87"/>
  <polygon class="cls-1" points="1216.47 517.39 1219.04 516.87 1221.15 515.48 1222.57 513.39 1223.13 510.79 1222.57 508.22 1221.15 506.09 1219.04 504.67 1216.47 504.13 1213.88 504.67 1211.77 506.09 1210.39 508.22 1209.86 510.79 1211.74 515.51 1216.47 517.39"/>
  <polygon class="cls-1" points="1318.18 504.68 1315.59 504.12 1313.01 504.68 1310.91 506.09 1309.53 508.23 1309 510.79 1310.88 515.5 1315.59 517.4 1318.18 516.88 1320.3 515.47 1321.74 513.37 1322.26 510.79 1321.74 508.23 1320.3 506.09 1318.18 504.68"/>
  <path class="cls-1" d="M1321.14,492.11v-48.13h-11.2v36.93h-80.27c-3.55,0-6.59-.34-9.13-.97-2.57-.66-4.78-1.62-6.63-2.9v-33.02h-11.23v29.84c0,2.35-.37,4.13-1.16,5.29l-3.15,1.76h-92.1c-3.52,0-6.56-.34-9.12-.97-2.54-.66-4.78-1.62-6.7-2.96v-32.96h-11.2v29.84c0,2.35-.38,4.13-1.17,5.29l-3.13,1.76h-41.96c-6.66,0-11.97-.26-15.9-.78-3.93-.53-6.94-1.34-8.99-2.47l-4.03-4.32c-.61-1.76-.92-3.88-.92-6.4l.31-4.35.61-4.35-10.58-1.01-.46,3.01-.42,3.31-.26,3.19-.11,2.77.44,5.96,1.68,5.35,3.53,4.56c1.54,1.42,3.56,2.59,6.06,3.6,2.48.99,5.52,1.77,9.12,2.3,3.63.56,7.93.81,12.91.81h51.2c2.7,0,4.94-.57,6.66-1.7l4.16-4.22c2.03,1.69,4.43,3.12,7.34,4.24,2.86,1.13,6.48,1.68,10.79,1.68h94.53c2.66,0,4.86-.57,6.59-1.7l4.14-4.22c2.05,1.69,4.49,3.12,7.33,4.24,2.87,1.13,6.48,1.68,10.79,1.68h91.61Z"/>
</svg>