<?xml version="1.0" encoding="UTF-8"?>
<svg id="Layer_1" data-name="Layer 1" xmlns="http://www.w3.org/2000/svg" viewBox="0 0 1920 1080">
  <defs>
    <style>
      .cls-1 {
        fill: #fff;
      }
    </style>
  </defs>
  <path class="cls-1" d="M1869.86,347.6c10.15-2.37,21.96-2.64,30.89,3.57,21.08,12.58,20.98,48.37-.29,60.74-16.3,11.08-40.97,4.72-49.63-13-10.64-18.27-1.37-44.79,19.03-51.31M1874.41,352.57c-14.92,3.4-24.44,19.67-21.5,34.44,2.41,16.11,19.92,27.87,35.72,23.43,15.96-3.53,26.07-21.82,21.1-37.28-3.61-15-20.49-24.92-35.32-20.6"/>
  <path class="cls-1" d="M299.8,352.21c30.12-.21,60.24-.14,90.37-.02-5.2,30.58-10.76,61.13-15.65,91.75,41.05-.17,82.08-.11,123.13-.02-5.41,30.31-10.65,60.67-15.79,91.03-41.09.09-82.21.09-123.3,0-6,35.87-12.46,71.68-18.5,107.55,41.01-.04,82,.17,123.01-.12-4.93,30.56-10.26,61.04-15.71,91.52-42.73-.14-85.48.11-128.2-.12-26.03.44-50.98-15.67-62.51-38.79-7.76-15.48-9.82-33.44-7.09-50.43,16.63-97.48,33.9-194.85,50.26-292.35"/>
  <path class="cls-1" d="M1215.12,352.07c29.93.1,59.87-.04,89.8.08-5.1,30.65-10.8,61.19-15.6,91.88,52.77-.1,105.55-.02,158.35-.04,16.22-.13,32.6,4.59,45.62,14.38,16.58,12.07,27.13,31.53,29.05,51.84,1.55,11.81-.32,23.66-2.52,35.24-5.46,32.39-11.2,64.71-16.74,97.08-7.74,44.26-44.59,82.12-88.86,90.34-24.47,2.01-49.11.52-73.65.98-36.33-.1-72.68.24-109.01-.21-29.72-.65-56.74-22.8-64.63-51.24-7.5-22.86-.48-46.61,3.11-69.48,15.07-86.94,30.04-173.89,45.08-260.86M1273.1,536.03c-5.83,35.56-12.29,71-18.27,106.52,52.82-.17,105.64.19,158.46-.17,6-35.49,12.23-70.92,18.29-106.39-52.82.06-105.66-.02-158.48.04"/>
  <path class="cls-1" d="M1866.18,362.45c8.4.67,17.5-1.22,25.37,2.41,7.5,5.61,3.44,18.21-5.66,19.21,5.24,4.95,8.73,11.35,12.31,17.54-1.93-.06-5.81-.17-7.74-.23-4.26-7.09-7.53-18.37-17.98-16.53,0,5.56-.02,11.12-.09,16.7-1.55.02-4.66.04-6.21.06-.01-13.05-.01-26.11,0-39.16M1872.46,368.03c-.04,3.77-.06,7.55-.04,11.37,5.08.02,10.59.9,15.25-1.85,1.49-2.35,1.57-4.78.25-7.26-4.38-3.5-10.34-1.99-15.46-2.26"/>
  <path class="cls-1" d="M549.88,443.98c30.12-.06,60.24.04,90.39-.02-11.26,66.2-22.99,132.32-34.17,198.54,52.08-.02,104.15.12,156.21-.09,11.07-66.18,22.89-132.24,34.08-198.41,30.12-.06,60.24-.04,90.39.02-12.1,67.41-23.25,135.05-35.22,202.5-9.82,44.85-49.71,83.13-96.03,87.05-55.94.59-111.93.19-167.87.21-21.54.7-43.08-9.21-56.49-26.09-14.53-17.54-19.28-41.76-15.56-63.91,11.52-66.58,22.99-133.18,34.27-199.8"/>
  <path class="cls-1" d="M1011.17,445.68c11.77-2.52,23.85-1.6,35.79-1.7,33.29.04,66.6-.13,99.88.08-5.43,30.63-10.76,61.3-15.91,91.98-39.21,0-78.41-.19-117.61.11-11.23,65.91-22.86,131.75-34.01,197.7-30.1.04-60.2-.06-90.3.04,9.62-55.65,19.26-111.32,28.86-166.97,3.69-18.46,4.77-37.76,12.63-55.13,14.56-32.97,45.14-58.94,80.68-66.11"/>
  <path class="cls-1" d="M1672.66,444.38c54.33-.96,108.74-.1,163.09-.44,16.27-.59,32.99,2.83,46.9,11.56,16.74,10.13,28.38,27.64,32.41,46.67,4.07,25.87-2.94,51.44-6.92,76.82-3.65,20.9-7.22,41.83-10.85,62.74-7.65,45.81-46.92,85.02-93.08,91.45-27.23,1.47-54.56.29-81.83.68-32.16-.09-64.31.16-96.47-.13-24.9.27-49.15-14.07-61.42-35.64-9.78-16.97-12.16-37.44-8.66-56.51,6.06-35.18,12.15-70.33,18.16-105.49,8.33-47.55,50.41-87.3,98.65-91.71M1664.94,536.13c-5.87,35.47-12.19,70.9-18.21,106.37,53.11.02,106.24.02,159.36,0,6.23-35.49,12.36-70.99,18.38-106.5-53.18.08-106.35-.17-159.53.12"/>
  <path class="cls-1" d="M18.8,444.19c71.15-.34,142.31-.11,213.47-.11-4.63,27.08-9.46,54.12-14.01,81.2-.69,3.76-1.05,7.66-2.65,11.21-70.69-.88-141.4-.11-212.11-.4,4.09-30.77,10.47-61.21,15.29-91.9"/>
</svg>