<?xml version="1.0" encoding="UTF-8"?>
<svg id="Layer_1" data-name="Layer 1" xmlns="http://www.w3.org/2000/svg" viewBox="0 0 1920 1080">
  <defs>
    <style>
      .cls-1 {
        fill: #fff;
      }
    </style>
  </defs>
  <path class="cls-1" d="M1920,511.03v335.52l-55.03,1.45-.19-311.59c0-8.82-3.21-16.16-8.95-19.3-6.1-3.34-13.12-2.36-21.38-1.8l-.08-50.03,41.58.97c19.92,3.08,34.58,15.73,38.69,35.29.88,4.18,2.3,7.83,5.35,9.49"/>
  <path class="cls-1" d="M572.26,794.85l.63-128.47,48.02.23c2.87,7.58.02,13.82.03,20.68l.27,139.15c.02,7.43,2.91,14.2-2.18,21.19l-327.1-.31c6.63,85.73-44.36,159.85-129.56,157.78-74.17,4.22-128.13-63.89-128.66-132.89l-1.45-187.6c-.07-9.93-8.32-15.26-16.79-16.78l-13.97-2.52c-2.05-15.47-1.97-30.37.02-46.28l34.27.36c27.03.28,48.64,23.51,48.91,52.46l1.86,194.11c.15,16.53,5.5,31.92,11.92,46.26,11.23,25.07,34.42,40.59,59.87,42.29,27.73,1.86,53.58-12.61,66.52-37.56,7.8-15.04,13.92-30.78,14.01-48.64l.93-201.8,47.49.17.15,127.87,114.54.12-.06-127.87,57.65-.3-.14,128.36h112.8Z"/>
  <path class="cls-1" d="M916.59,941.03c42.89-9.68,64.55-47.87,63.32-93.24l-211.68-.02c-8.36-80.82,25.46-149.63,107.64-162.05,76.72-11.76,141.45,32.25,151.42,112.24l419.74.36c3.57,14.9,3.86,30.02,17.75,39.12-5.91-13.3-10.03-21.86-10.04-34.74l-.02-101.01c16.14,5.74,29.05,5.45,42.88.47l.89,77.35c1.03,5.62,5.1,18.21,12.99,18.22l191.98.32,1.48-286.56c.13-24.95,20.92-44.92,42.44-45.37l39.57-.83-.09,50.16c-7.93-.47-14.95-1.47-21.03,1.72-4.26,2.23-8.64,9.37-8.64,16.95l-.24,313.78-256.63-.13c-11.9,0-20.43-1.77-30.46-8.69-.89,5.37,1.99,9.57-.32,8.77l-440.66-.15c2.97,56.74-23.97,107.2-74.09,129.68-29.23,13.11-60.86,15.91-91.83,10.48-41.48-7.16-75.44-31.8-92.89-71.19l46.82-13.41c17.34,34.69,61.84,46.32,99.7,37.77M977.12,797.47c-6.68-42.71-39.33-68.4-78.73-67.27-40.39-1.44-72.74,25.99-78.81,67.75l157.54-.48Z"/>
  <path class="cls-1" d="M720.18,928.51c-3.77,70.93-59.48,124.36-130.02,121.15l-.51-47.33c46.13.9,77.3-37.91,77.69-80.46l1.6-176.66c.22-22.99,14.16-42.99,35.9-49.25,15.12-4.35,31.1-2.66,46.82-2.22l.44,41.72c-7.09,1.9-16.04,1.95-22.76,6.11-8.58,5.32-8,14.94-8.07,23.83l-1.08,163.11Z"/>
  <path class="cls-1" d="M1469.87,611.39c22.11-5.02,43.13,11.83,47.35,31.22,4.72,21.69-11,42.35-31.85,47.47-20.13,4.94-41.29-9.3-46.7-28.69-6.09-21.91,6.65-44.43,31.2-50"/>
  <path class="cls-1" d="M1718.48,30.2c6.33,22.54-.1,43.75-11.09,64.79-37.25,71.25-100.01,120.96-178.53,139.23-37.05,8.62-72.81,13.69-110.85,17.59l-139.11,20.43c-48.09,7.06-91.21,25.4-130.81,54.67-34.98-48.11-87.32-75.29-145.8-80.99-3.65-.36-.58-11.46,5.74-10.79,32.89-29.78,68.73-51.62,109.14-70.11,50.74-21.52,102.57-36.79,158.33-39.05l204.6-8.3c79.87-3.24,148.84-42.24,219.26-77.75,5.21-2.63,9.66-4.52,10.66-9.71h8.46Z"/>
  <path class="cls-1" d="M746.56,462.17l-195.68-79.46c-5.04-2.04-8.22-4.46-9.09-8.32-.76-3.38-1.25-13.08,4.3-12.94l49.07,1.29,39.72,2.52,64.85,5.13,59.91,3.78,47.62,2.99c-18.61-37.58-49.99-63.72-89.35-75.61-41.01-12.38-80.76-22.28-122.73-30.45l-96.36-18.76c-86.67-16.87-174-16.49-238.28-79.83-38.14-37.57-72.77-86.19-57.82-138.46,93.15,71.41,192.66,85.87,303.66,87.05l78.09.83c18,.2,34.66,2.97,52.92,2.73,79.83,9,155.74,34.2,223.41,77.29,44.7,28.47,76.65,67.83,97.61,116.61,51.53-21.65,105.35-5.17,137.65,36.86l26.8,34.87c12.38,11.57,26.47,18.84,37.13,35.74-26.18-1.19-49,1.75-70.01,16.15l-59.32,40.68c-57.98,39.75-127.93,42.4-192.12,14.83l-91.96-35.54Z"/>
</svg>