<?xml version="1.0" encoding="UTF-8"?>
<svg id="Layer_1" data-name="Layer 1" xmlns="http://www.w3.org/2000/svg" viewBox="0 0 1920 1080">
  <defs>
    <style>
      .cls-1 {
        fill: #fff;
      }
    </style>
  </defs>
  <path class="cls-1" d="M989.72,672.81c1.38,17.48-13.99,32.56-31.08,31.37-14.95-1.03-26.5-12.85-27.47-27.54-1.18-17.92,15.35-33.75,34.59-30.34,12.63,2.24,22.88,12.84,23.96,26.51"/>
  <path class="cls-1" d="M918.21,672.12c2.02,18.8-14.98,34.64-33.16,31.94-15.21-2.25-25.67-15.62-25.23-29.86.47-15.37,12.9-27.41,27.75-28.2,15.04-.8,28.92,10,30.65,26.12"/>
  <path class="cls-1" d="M1920,489.82v1.62l-15.12-10.01c-11.87-6.51-27.21-11.11-40.26-9.85-16.99,1.64-28.38,7.53-41.46,17.94-4.56,3.63-7.97,7.31-11.79,11.85l-65.13,77.33c-16.22,19.27-42.55,46.22-67.98,46.93l-23.31.65h-95.54s-26.22-.8-26.22-.8c-3.51-.63-5.96-5.61-8.07-7.82l-9.66-10.11-9.72-11.71-7.43,6.77c-10.72,9.75-29.09,22.49-42.7,22.88l-26.22.76-94.74.06-26.96-.4-9.72-10.25-17.68-19.95c-12.84,13.84-33.89,29.39-51.6,29.88l-24.07.67-94.73.08-24.04-.35c-3.39-.05-4.93-1.69-6.92-3.82l-9.79-10.53-13.48-15.88c-13.64,13.46-33.32,29.35-52.5,29.88l-23.32.64-95.54.02-26.49-.51c-3.31-1.48-5.55-5.64-7.89-8.14l-12.22-12.97-9.83-11.69-6.27,5.65c-16.96,15.3-28.26,23.43-51.08,25.95l-8.85.98-32.68-.05c-43.3-3.02-85.51-20.59-114.21-53.5-11.8-13.52-22.46-26.91-31.01-42.78-10.12-18.79-16.23-38.47-17.73-59.9l-.02-24.69c1.97-24.65,9.58-47.95,21.58-69.01h.81c-2.52,13.74-4.08,27.48-2.93,41.77,3.16,39.49,19.69,73.76,46.41,102.69,4.04,4.38,7.73,8.21,12.24,12.15l6.51,5.7c18.42,16.1,40.69,27.03,65.35,29.31,35.18,3.25,69.79-15.58,92.29-41.8l29.61-34.51,6.86-7.71,7.87-8.45,19.81-19.77c7.09-7.07,14.81-12.93,23.51-17.83,10.29-5.79,21.07-8.48,32.89-9.45,13.43-1.1,26.68,2.64,38.29,9.73,11.86,7.24,22.26,15.95,30.48,27.02l17.78,23.95c1.28.92-.15,2.19-.93.92l-5.72-4.4c-10.57-8.14-22.96-13.21-36.5-14.42l-7.99-.71-6.65.64c-18.25,1.77-36.74,13.12-48.45,26.97l-72.77,86.04c-.71.8.15,1.72,1.25,1.05l116.64.16c3.21,0,5.29.89,8.51.33,6.01-1.05,11.61-2.25,17.32-4.84,15.14-6.86,27.12-17.57,37.87-30.19l35.42-41.54,23.44-26.86,12.25-12.78,5.81-5.72c9.47-9.33,19.26-18.18,30.99-24.75,9.93-5.56,20.5-7.89,31.74-8.99,19.52-1.91,42.28,8.62,55.23,21.91l10.85,11.14c8.14,8.35,14.6,17.77,21.14,27.74.53,1.06-.73,1.68-1.32.44-9.08-7.06-18.74-12.51-29.56-15.98l-16.52-3.08c-2.89-.54-5.09-.1-7.91.13-15.9,1.26-29.41,7.64-41.37,17.99-4.65,3.17-7.82,6.96-11.51,11.33l-70.5,83.55,113.56.2c2.95,0,4.86.99,7.87.3l12.65-2.92c13.88-5.14,25.59-13.62,35.56-24.39l9.04-9.77,47.77-55.79,5.76-6.46,7.29-8.12,21.56-21.35c6.27-6.21,13.01-11.37,20.48-16.01,10.63-6.6,22.21-9.73,34.73-10.84,13.74-1.21,27.26,2.48,39.12,9.72,11.86,7.24,22.26,15.95,30.48,27.03l17.78,23.95c1.31.93-.21,2.24-.96.86-12.95-10.68-27.99-17.73-44.55-19.14-3.93-.33-6.9-.85-10.72-.12l-13.13,2.53c-14.66,4.92-27.18,13.27-37.32,25.27l-71.93,85.03,113.29.19c2.72,0,5.23,1.81,7.93.06,17.36-.84,38.72-15.48,50-28.38l4.62-5.28,48.16-56.2,8.41-9.48,9.42-10.15,16.98-17.01c7.44-7.45,15.45-13.84,24.59-19.11,22.92-13.22,53.34-13.9,75.21,2.09l9.44,6.9,16.9,16.98c7.13,8.44,13.83,16.63,19.41,26.75-31.98-25.07-66.58-28.31-97.72-2.05-6.64,5.6-11.66,11.75-17.33,18.48l-64.23,76.27,113.78.14c2.44,0,4.72,1.85,7.1.02,22-1.37,41.82-18.16,55.93-34.68l40.28-47.18,18.2-20.78,12.64-13.21,5-4.88c9.8-9.57,19.73-18.82,31.79-25.58,9.92-5.57,20.5-7.89,31.74-9,19.52-1.92,42.28,8.62,55.23,21.91l10.85,11.14c8.21,8.42,14.8,17.92,21.2,27.41"/>
  <path class="cls-1" d="M104.96,496.96l-62.54.24c1.38,3.2,1.03,5.97-.83,8.33-4.57,5.82-13.88,4.82-23.32,4.27-6.83-.4-13.33-4.63-13.25-11.91l.1-9.86c.13-1.2,4.39-1.06,4.46.34l.45,10.3c.16,3.59,4.45,6.3,8.11,6.32l15.05.08c2.7.02,4.43-1.66,4.96-3.68.64-2.49-.49-4.86-3.17-5.89l-7.55-2.89,2.29-4.43c3.69,1.1,7.62,3.86,12.03,3.86l62.78.15c1.9-1.05,2.68-4.47,2.69-6.31l.02-13.04,11.81.25c7.52.16,11.93,6.86,10.82,14.4-.19,1.26.15,2.84.8,3.6,1.86,2.22,8.9,1.64,8.91-1.36l.13-28.11c1.71-.28,3.1-.28,4.86,0l-.03,27.41c0,1.82,1.44,3.25,3.23,3.24l9.78-.07-3.31-7.31c-1-2.21-2.81-5.78-.64-8,2.69-2.75,7.29-3.87,11.19-4.07,5.51-.29,10.14,3.6,10.65,8.79.42,4.23-.56,7.58-3.45,10.54l10.73.02c1.06,0,1.59-2.11,1.59-3.14v-27.4c1.78-.26,3.07-.26,4.9,0l-.1,28.2c-.01,3.05-2.4,7.06-5.74,7.09l-33.96.37c-2.82.03-5.38-1.19-7.29-2.59-3.87,3.78-12.05,3.82-15.09-.92-2.64,1.56-5.72,3.71-8.84,3.56-3.52-.17-5.93-1.37-8.19-4.39-1.27,1.33-2.78,4.02-5.04,4.03M122.18,479.31c-3.06-2.18-7.16-1.96-10.12-1.3.37,4.15-.81,7.9.63,11.34,1.73,4.12,8.23,3.77,10.75.89,2.6-2.96,2.51-8.24-1.27-10.93M162.41,492.16c3.32-.1,5.61-2.19,6.96-4.17,1.5-2.23,1.92-5.95.51-7.98-2.17-3.14-5.86-2.6-9.23-1.54-6.17,1.93-1.45,2.95,1.76,13.69"/>
  <path class="cls-1" d="M379.99,496.73c-7.63-.1-9.04-16.47-6.67-18.65.81-.74,3.96-.83,4,.23l.34,9.59c.09,2.54,2,4.35,4.69,4.34l21.06-.08c1.59,0,2.39-2.55,2.41-3.96l.15-14.76c.01-1.19,4.43-.99,4.45.35l.27,15.28c.02,1.22,1.02,3.17,2.59,3.17l49.09-.1c1.38-.51,1.94-3.45,1.95-4.66l.06-9.59c1.16-.62,4.4-.48,4.43.76l.29,10.37c.05,1.84,1.42,3.25,3.28,3.25l27.53-.02-.12-7.98c-.06-4-4.72-6.54-8.68-6.64l-11.18-.27c-1.28-.69-2.03-3.2-2.66-4.64l10.33-14.69,3.87,2.83-8.58,11.89,10.29.33c6.65.21,11.69,5.79,11.72,12.67l.02,6.46,8.04-.06c1.27-.01,2.31-1.97,2.32-3.25l.13-16.06,11.08.16c5.42.08,9.36,3.28,10.88,7.58,1.85,5.25.7,10.27-3.52,14.01-4.63,4.1-12.05,3.35-15.58-1.49-1.14,2.03-3.22,3.84-5.52,3.85l-38.75.23c-2.97.02-5.11-.46-7.33-2.75-1.19.94-2.59,2.6-4.16,2.61l-49.34.07c-2.01,0-3.32-1.44-4.93-2.59-1.16.75-2.59,2.55-4.15,2.53l-24.11-.33ZM529.82,478.95c-2.89-1.63-6.3-1.51-9.54-1.12l.34,10.88c.87,3.16,4.64,3.98,7.22,3.55,2.97-.51,4.94-2.66,5.38-5.37.52-3.22.02-6.01-3.39-7.93"/>
  <path class="cls-1" d="M351.26,488.87l.29-15.11c1.62-.26,3.03-.28,4.82,0l-.25,15.87c-.06,4.11-3.97,6.54-6.93,7.26-4.24,1.04-7.47-.08-10.35-3.04-4.05,4.07-10.08,4.81-14.15.56-2.71,3.16-6.03,2.75-9.74,2.73-3.61-.02-6.92.47-9.44-2.49-1.26.94-2.33,2.01-3.67,2.48l-52.43-.28c-.26,5.31.52,10.02-4.27,9.97l-14.56-.14c-7.31-.08-11.94-10.43-10.51-20.01l4.87.05c-.66,7.89.6,15.33,7.22,15.29l12.18-.06.06-28.11c1.15-.66,4.49-.43,4.51.74l.29,14.44c.04,1.84,1.37,3.23,3.29,3.24l46.24.05c2.64,0,4.14-1.35,4.12-4.09l-.07-10.43h4.85s.04,10.46.04,10.46c0,1.39.83,3.91,2.41,3.89l11.09-.15.27-13.38c1.78-.24,3.08-.25,4.88.02l.19,10.25c.05,2.9,3.52,3.75,5.78,3.42,2.88-.42,4.51-2.45,4.54-5.8l.08-7.93h3.99l.08,7.93c.03,3.06,1.37,5.03,3.84,5.66,2.38.62,6.39-.13,6.45-3.28"/>
  <path class="cls-1" d="M202.22,496.75c-1.7.63-3.13.52-4.98.19l.26-34.52c.01-1.13,3.7-1.4,4.61-.76l.11,35.08Z"/>
  <path class="cls-1" d="M20.71,512.66c1.9-.62,2.93.73,3.43,2.24.51,1.52-.46,3.14-2.08,3.77-1.51.58-3.21-.59-3.78-2.1-.57-1.51.59-3.3,2.44-3.91"/>
  <path class="cls-1" d="M307.02,502.28c1.38-.78,3.52-.55,4.28.46.8,1.06.83,3.59-.36,4.49-1.09.83-3.6.8-4.49-.36-.84-1.09-.86-3.78.57-4.59"/>
  <path class="cls-1" d="M233.86,473.14c1.77-.64,3.28.88,3.71,2.06.56,1.56-.59,3.2-2.1,3.78-1.38.53-2.75-.35-3.52-1.55-.88-1.37-.35-3.47,1.91-4.29"/>
  <path class="cls-1" d="M28.02,512.75c1.53-.66,3.18.29,3.97,1.58.84,1.36-.37,2.95-1.58,3.81-1.49,1.06-3.32.2-3.96-.87-1.05-1.74-.13-3.79,1.58-4.52"/>
  <path class="cls-1" d="M391.27,502.37c1.8-1.02,3.57-.17,4.46,1.19.83,1.29.17,2.88-1.25,3.68-1.35.75-2.89.58-4.13-.73-.98-1.02-1.2-2.95.92-4.15"/>
  <path class="cls-1" d="M468.3,467.64c1.67-1.3,3.39-.2,4.17.65,1.1,1.2.76,3.16-.26,4.05-1.12.98-3.12.7-3.94.06-1.12-.87-1.34-3.69.04-4.76"/>
  <path class="cls-1" d="M461.09,467.52c1.73-1,3.47-.33,3.88.96.49,1.53.36,3.6-1.19,4.21-1.17.47-2.91.51-3.78-.82-.77-1.16-1.02-3.14,1.09-4.35"/>
  <path class="cls-1" d="M299.61,502.35c1.68-.97,3.43-.41,3.88.94.45,1.36.46,3.52-1.15,4.25-1.04.48-2.61.1-3.66-1.01-.99-1.02-1.24-2.92.94-4.18"/>
  <path class="cls-1" d="M735.23,486.23c-16.47,5.18-33.22-5.67-36.69-21.65-3.59-16.51,7.88-32.77,25.05-35.06,15.17-2.02,28.89,8.21,32.08,22.67,3.2,14.48-5.3,29.28-20.45,34.05"/>
  <path class="cls-1" d="M395.6,542.42c4.44,2.3,6.67,6.44,5.85,10.54-.81,4.11-4.08,7.86-8.8,7.91l-18.46.21v-35.64s18.03.47,18.03.47c4,.1,6.74,3.04,7.59,6.04,1.17,4.1.13,7.22-4.21,10.47M390.65,540.59c3.07-.06,4.1-3.48,3.83-5.72-.24-1.99-1.59-4.39-4.17-4.42l-11.22-.13v10.51s11.56-.24,11.56-.24ZM390.38,556.7c4.04-.11,5.82-3.13,5.55-6.36-.26-3.02-2.5-5.08-5.86-5.16l-10.99-.26v12.09s11.3-.31,11.3-.31Z"/>
  <path class="cls-1" d="M155.32,560.27c-7.75,3.49-17.92,1.91-21.97-6.07-.51-1.01,2.49-2.9,3.72-2.77,3.92,5.53,11.3,7.53,17,3.84,1.31-.85,1.94-3,1.85-4.25-.1-1.32-1.52-3.25-3.3-3.76l-11.21-3.19c-3.73-1.06-6.13-3.29-7.07-6.6-1.02-3.57.26-7.51,3.58-9.87,9.6-6.81,22.94.3,21.95,4.58-.28,1.19-2.38,2.98-3.39,1.84-3.66-4.16-9.65-5.6-14.48-3.09-1.91.99-2.53,2.84-2.35,4.53.23,2.25,1.61,3.29,3.98,3.96l11.81,3.35c4.17,1.19,5.59,4.56,5.56,8.57-.03,4.1-1.43,7.03-5.67,8.93"/>
  <path class="cls-1" d="M25.77,557.37c-7.14,7.46-20.25,5.82-25.63-2.85-.9-1.45,2.82-3.75,3.73-2.87,3.79,5.81,12.52,7.68,17.81,2.7,1.16-1.09.49-4.67-.33-5.75-3.12-4.16-22.39-1.9-20.36-15.28.4-2.6,2.05-5.29,5.14-6.78,10.48-5.02,21.4,2.22,20.66,5.7-.2.92-1.5,1.46-2.27,1.81-1.44.65-1.96-.46-3.12-1.51-3.97-3.62-10.57-4.08-14.42-.39-.96.92-.49,3.57-.24,4.78.24,1.14,1.92,2.07,3.67,2.55l10.78,2.96c2.97.81,5.3,3.08,5.97,5.25.94,3.02,1.24,6.93-1.39,9.68"/>
  <path class="cls-1" d="M43.53,557.28c4.17.81,7.88-1.1,10.94-3.66,1.22.58,2.21,2.16,2.13,3.11-1.64,2.76-4.41,4.1-7.39,4.78-6.15,1.42-12.08-.4-15.37-5.42-3.18-4.86-2.89-11.59.7-16.07,3.83-4.77,10.43-6.3,16.46-3.72,5.15,2.2,7.47,7.82,6.6,13.43l-20.11.02c-.58,3.83,1.86,6.72,6.04,7.53M52.82,546.48c-.33-4.42-3.61-7.46-7.7-7.37-3.86.09-7.94,2.99-7.83,7.34l15.53.03Z"/>
  <path class="cls-1" d="M73.56,557.27c3.93.76,7.59-.85,10.48-3.37l2.82,2.67c-2.12,2.99-4.47,4.2-7.64,4.94-6.1,1.42-12.07-.4-15.35-5.42-3.18-4.86-2.89-11.59.7-16.07,3.83-4.77,10.43-6.3,16.46-3.72,5.15,2.2,7.47,7.82,6.6,13.43l-20.11.02c-.57,3.82,1.85,6.72,6.04,7.52M82.84,546.48c-.33-4.45-3.66-7.47-7.7-7.36-4.13.11-8.01,2.71-7.78,7.36h15.47Z"/>
  <path class="cls-1" d="M211.16,549.76c.27,4.23,3.02,6.64,6.75,7.5,3.37.77,7.24-.4,9.77-3.37,1.27-.18,2.63,1.41,3.64,2.8-4.67,5.32-13.24,7.25-19.49,2.95-6.39-4.4-7.46-12.73-3.52-18.79,3.87-5.96,12.26-7.78,18.8-3.61,3.87,2.46,5.28,7.9,5.13,12.44l-21.07.08ZM226.59,546.39c.2-4.7-2.88-7.12-6.55-7.24-4.72-.14-8.28,2.72-8.99,7.35l15.54-.11Z"/>
  <path class="cls-1" d="M477.58,554.13c1.17-1.08,4,2.11,2.68,3.46-5.46,5.52-14.67,5.93-20.56.76-3.74-3.28-4.07-8.64-3.39-13.51.69-4.96,5.09-8.19,8.97-9.25,5.27-1.43,10.8-.18,14.04,3.9,2.24,2.82,2.66,6.75,2.05,10.18l-20.46.1c.17,3.92,3.04,6.29,6.2,7.37,3.48,1.19,7.2-.02,10.48-3.02M476.69,546.1c-.46-5.2-3.32-6.68-6.75-6.96-4.68-.52-8.75,2.58-9.03,7.34l15.78-.38Z"/>
  <path class="cls-1" d="M531.58,536.2c1.97-.44,3.69-.35,5.72-.09v24.72c-1.55.45-3.04.38-4.42.28-.85-.06-1.51-1.31-1.67-2.4-3.24,2.97-7.44,4.35-11.41,2.51-2.99-1.39-6.06-4.96-6.06-8.99v-16.17s5.66.02,5.66.02l.42,17.41c.06,2.73,4.17,3.98,6.39,3.54,2.05-.41,5.34-2.05,5.34-4.75l.03-16.08Z"/>
  <path class="cls-1" d="M492.7,546l9.84-.64c2.08-.13.16-5.13-2.2-5.74-3.88-1.01-7.34-.09-9.98,3.06-1.13-.58-2.34-1.69-2.62-2.71,2.28-3.53,6.1-5.09,10.26-4.93,3.31.12,8.75,1.73,9.63,6.13l.59,19.66c-1.55.46-2.88.43-3.68.12-.66-.26-.64-2.05-.73-3.17-3.71,4.07-9.69,5.56-14.49,2.68-3.06-1.83-3.96-5.22-3.51-8.13.53-3.41,2.97-5.21,6.89-6.32M503.07,548.98l-8.44.25c-3.02.09-4.19,3.21-3.49,5.63.68,2.33,2.81,3.36,5.54,2.99,2.24-.31,4.41-1.08,5.35-2.48,1.3-1.93,1.51-3.99,1.04-6.39"/>
  <path class="cls-1" d="M99.57,543.23l-.49,17.74-5.65.02v-24.76c1.49-.44,2.57-.38,3.74-.31,1.08.07,1.46,1.63,1.36,3.45,2.7-3.41,6.17-4.83,10.65-4.14,3.27.51,7.38,4.14,7.47,8.4l.37,17.32-5.7.02-.1-16.18c-.02-2.41-2.84-4.42-4.56-4.75-2.28-.45-7,.06-7.08,3.18"/>
  <path class="cls-1" d="M425.31,536.23c1.89-.48,3.68-.38,5.7-.12v24.73c-1.5.45-3.13.38-4.41.28-.87-.07-1.53-1.31-1.68-2.4-3.24,2.97-7.44,4.35-11.41,2.51-2.99-1.39-6.06-4.96-6.06-8.98v-16.15c1.78-.24,3.13-.25,4.89,0l.26,14.11c.06,3.52,1.96,6.18,5.17,6.82,2.42.48,7.22-1.07,7.28-4.15l.27-16.66Z"/>
  <path class="cls-1" d="M242.85,546.24l-.11,14.71c-1.78.27-3.07.27-4.91,0l.18-24.91c1.9-.17,3.29-.27,4.2.09.68.27.68,1.94.78,3.27,2.67-3.28,5.45-5.04,9.83-4.14,2.62.54,7.49,2.74,7.55,6.47l.32,19.23c-1.97.28-3.14.26-4.96.02l.02-14.48c0-3.8-2.77-6.66-6.07-6.61-3.5.05-6.79,1.92-6.83,6.36"/>
  <path class="cls-1" d="M337.53,549.49c.28,4.09,3.08,7.02,6.36,7.51,3.6.54,7.22-.85,9.03-4.19l3.84,2.82c-2.4,4.18-6.9,6.36-11.33,6.36-4.69.01-8.83-1.95-11.31-6.24-3.73-6.44-2.52-14.28,3.43-18.69,5.52-4.09,14.63-3.24,18.71,3.24.84,1.32-2.81,3.54-3.61,2.69-2.89-3.06-6.29-4.67-9.9-3.21-4.02,1.63-5.57,4.49-5.21,9.7"/>
  <path class="cls-1" d="M170.56,547.05c-.57,4.19,1.66,8.47,4.79,9.57,4.11,1.43,8.33.24,10.66-3.57,1.81.6,2.99,1.62,3.88,2.72-3.25,4.35-7.35,6.57-12.47,6.18-4.49-.35-9.46-2.99-11.08-8.04-1.01-3.14-1.17-7.1-.3-10.31,1.42-5.2,6.25-8.18,11.01-8.89,5.15-.76,10.62,2.16,13.09,6.33-1.74,1.2-2.57,1.92-4.27,2.46-1.83-3.21-5.58-4.74-8.85-3.97-3.14.74-5.9,3.39-6.47,7.51"/>
  <path class="cls-1" d="M309.28,540.06v20.92s-5.68,0-5.68,0l.02-20.89-5.64-.1v-3.96l5.75-.09c-.51-3.31-.17-5.97,1.82-8.1,3.51-3.75,10.78-2.46,10.94-1.92.3.99.17,2.2.15,3.24-.04,2.52-5.92-.02-6.97,1.95-.58,1.07-.56,2.63-.36,4.57,2.17.68,4.52.21,7.2.3l.03,4.03-7.25.06Z"/>
  <path class="cls-1" d="M282.16,556.5c1.44.06,1.61,3.17.94,4.49l-8.69.09c-2.38.02-4.07-1.69-4.07-4.05v-16.94s-5.63-.1-5.63-.1v-3.96l5.61-.08.03-7.96h4.84l.03,7.98,8.03.05v3.99l-8.06.06.02,16.16,6.95.29Z"/>
  <path class="cls-1" d="M443.2,560.82c-1.69.48-3.14.41-4.95.12l.19-24.9c1.8-.18,3.43-.25,4.17.08.68.3.69,1.95.81,3.3,2.62-3.45,5.84-5.14,10.23-4.07.12,1.57.26,2.92-.16,4.88-4.61-1.24-10.21,1.3-10.23,6.27l-.08,14.33Z"/>
  <path class="cls-1" d="M200.6,560.84c-2,.48-3.7.36-5.74.13v-24.89s5.7-.01,5.7-.01l.05,24.77Z"/>
  <path class="cls-1" d="M293.92,560.84c-2,.48-3.7.36-5.74.13v-24.89s5.7-.01,5.7-.01l.05,24.77Z"/>
  <path class="cls-1" d="M326.37,560.84c-2,.48-3.7.36-5.74.13v-24.89s5.7-.01,5.7-.01l.05,24.77Z"/>
  <path class="cls-1" d="M323.04,524.26c1.76-.37,3.15,1.34,3.57,2.37.66,1.61-.96,3.63-1.76,3.57-2.41.76-3.76-.23-4.13-1.26-.61-2.06-.05-4.17,2.32-4.68"/>
  <path class="cls-1" d="M197.26,524.29c2-.45,3.2,1.31,3.34,2.41.31,2.32-.39,3.65-2.85,3.78-1.13.06-2.84-.77-3.3-2.39-.35-1.24.69-3.32,2.81-3.8"/>
  <path class="cls-1" d="M290.57,524.27c2.07-.38,3.25,1.4,3.38,2.54.2,1.97-.51,3.49-2.18,3.61-2.12.16-3.41-.39-3.67-2.17-.23-1.63.23-3.56,2.47-3.98"/>
</svg>