<?xml version="1.0" encoding="UTF-8"?>
<svg id="Layer_1" data-name="Layer 1" xmlns="http://www.w3.org/2000/svg" viewBox="0 0 1920 1080">
  <defs>
    <style>
      .cls-1 {
        fill: #fff;
      }
    </style>
  </defs>
  <path class="cls-1" d="M1463.12,241.81c-37.82-5.17-72.1-8.88-108.89-10.2l-98.99-3.54c6.17-13.2,17.34-20.15,30.01-23.76,26.18-7.46,52.64-10.17,80.37-11.11,45.14-1.53,88.58-1.23,133.38-5.1,71.71-6.2,139.29-47.14,138.68-123.01-.18-22.4-6.4-42.01-13.43-65.09,34.91,61.42,32.05,125.02-15.47,182.11,6.6,39.49,17.74,74.49,18.91,114.1l-16.49-84.62c-1.7-8.76.96-18.04-5.01-27.06l-29.13,27.24,11.68,59.44c-40.07-17.14-81.39-23.37-125.62-29.41"/>
  <path class="cls-1" d="M934.06,1072.24l-34.6-69.52c-120.74,23.23-238.54,43.56-358.56,61.45-17.56,2.62-32.4,8.04-50.21,7.47l92.71-22.64c20.39-4.98,41.63-5.48,60.74-18.44l-286.28,49.43-15.77-96.65c-31.94-17.45-62.5-36.93-80.68-69.88,13.36,18.06,31.95,32,56.86,30.17,80.22-5.9,125.26-69.45,138.3-145.25,4.47-25.97,6.48-52.18-3.91-76.84-18.76-44.52-65.27-73.03-110.02-90l-43.09,82.01c-8.25-35.99-9.43-74.8-19.73-110.25l-89.05-74.2,70.28-51.2-27.02-167.04,543.75-61.02c9.97-1.12,16.61-2.8,26.56-5.02-9.7-4.03-16.8-1.17-26.21-.85l-211.26,7.2c-.6.02-1.22-.84-1.14-1.36l10.31-1.21,238.28-53.09,542.12-107.66,81.06-15.59-179.46,39.46-.37,4.63,290.39-52.85c-26.36,16.11-54.43,22.17-83.46,27.99-60.16,12.06-121.35,30.09-170.32,66.49-23.96,17.81-38.24,41.39-46.91,69.82l-34.92,114.46,384.97,24.66,42.52.84c-8.71,4.98-16.73,3.14-27.24,3.95l-416.39,31.52-227.35,17.64-328.61,24.43-157.1,11.85,44.17,63.02c-15.06,13.12-32.4,20.59-44.83,36.24l343.91-25.86,376.83-28.96,352.17-26.98c41.2-3.16,85.16-22.51,101.19-59.16-2.11,13.22-1.65,23.4.76,36.67l69.11,381.13c1.31,7.29,4.27,12.43,1.58,18.16l-197.64,33.16-16.22,7.22-295.71,53.39-183.78,125.14-24.01-47.39-76.72,49.3ZM746.45,363.88c26.62-12.77,50.51-17.91,75.65-11.45,14.38-.83,30.89,2.17,45.76,4.38l98.91,14.7c6.39.95,13.55,1.78,19.92,1.76l51.69-.12c19.98-.04,37.51-8.46,55.22-17.08,59.44-28.97,67.97-103.05,47.51-162.56-9.25,38.4-49.76,64.75-85.91,74.11-22.39,5.8-43.34,8.71-66.67,8.09-9.05-.23-18.82,3.66-28.26,1.92-7.13-1.32-45.88,2.76-64.28,5.57-40.1,6.13-79.17,15.85-113.14,38.28-16.37,10.81-30.92,24.15-36.41,42.4M291.4,586.79l73.6-54.41c12.88,15.24,23.77,31.59,35.41,48.67,5.63,1.32,10.26-1.88,14.2-5.53l69.43-52.2-55.27-76.33-81.88,59.94-19.95-27.92c-5.61-7.85-11.1-14.4-17.72-23.76l-80.8,60.64,49.76,71.23c3.09,4.42,8.02,3.51,13.21-.33M1200.04,656.19l65.54-49.19c3.01-2.25,4.94-4.94,8.66-4.12,2.43.54,4.12,2.5,6.06,5.13l30.74,41.55c2.54,2.69,10.76-2.29,12.21-4.65l70.04-52.74c8.58,6.29,12.25,13.87,17.38,21.41l15.04,22.13c1.98,2.91,4.26,5.3,6.8,5.54,3.11.3,6.17-.79,8.46-3.69l72.5-55.29-55.16-75.99-71.12,53.18c-3.53,4.42-7.93,6.73-13.85,5.81-2.06-6.4-6.52-10.5-10.31-15.82-7.18-10.09-13.03-21.67-22.51-30.07-4.18-3.71-10.08,2.12-13.25,4.46l-69.49,51.49c-4.74-3.57-8.14-7.47-11.47-12.1l-27.81-38.61c-27.33,20.4-54.19,38.76-80.4,61.36l49.14,69c2.91,4.08,8.14,4.74,12.82,1.22M556.55,921.9c42.21,29.7,127.49,15.24,169.64-17.44,32.49-25.19,53.64-60.44,66.72-98.74,8.88,20.39,17.49,40.08,28.47,59.36,7.39,13,20.05,21.65,35.92,20.37l99.73-8.11c41.83-3.4,73.28-31.32,85.75-71,7.3-23.24,7.57-46.22,7.89-71.44l9.9,41.82c11.74,49.6,35.87,93.4,90.32,87.01,17.48-2.04,34.83-3.22,50.35-12.09,44.01-25.16,50.27-82.12,49-131.86l11.98,59.21c3.81,18.83,11.47,36.47,23.12,51.78,24.71,32.48,81.54,18.67,104.42-7.8,26.48-30.61,31.19-73.46,29.19-113.95l10.64,49.19c8.33,38.5,26.66,82.18,67.56,78.99l81.61-6.37,45.68-82.56c11.79-21.31,18.99-43.7,24.88-67.28,6.79-27.21-1.09-52.83-20.79-72.95l-49.65-50.71c-12.15-12.62-17.61-27.03-26.18-45.13l-35.81,149.34c30.82,24.24,61.28,46.25,93.7,67.94l-122.23,8.9c-12.99.94-24-2.76-32.81-12.27-13.02-11.8-20.66-27.73-28.24-43.64-4.98-10.45-6.39-21.08-14.65-31.99-4.77,19.98-5.51,39.18-13.41,56.99-12.37,27.84-36.72,42.84-66.65,42.88-12.56.02-24.6,3.46-35.85-3.54-15.59-9.68-24.65-24.89-33.28-40.97-7.57-14.11-9.96-29.31-20.3-42.69-3.71,20.66-5.04,37.44-11.62,54.07-11.9,30.09-37.55,46.56-70.03,46.06-33.92-.52-54.36,14.33-89.78-34.4-11.47-15.78-17.15-32.91-28.53-51.32l-11.74,46.34c-10.76,27.89-34.31,50.78-65.78,53.38l-169.02,13.92c10.78-42.28,16.32-86.45-4.46-124.34-16.72-30.49-42.44-53.51-72.41-70.33-16.7-9.83-32.85-17.32-52.24-25.65l-52.01,118.84,179.51,72.01c-45.25,40.18-117.59,57.74-178.92,58.65-19.88.29-39.42-4.27-56.25-13.78-23.99-13.56-29.7-37.48-33.73-65.52-17.06,58.81-18.31,146.52,30.34,180.76M952.48,1043.15l59.64-44.22c14.77,13.65,22.79,36.29,30.17,36.58,2.92.12,4.23-1.7,6.7-3.55l72.95-55.23c-17.76-26.99-35.08-51.07-54.55-75.64l-62.88,44.16c-10.39-13.88-18.17-29.53-29.12-37.39l-78.97,59.47,30.06,42.7c7.88,11.18,13.43,23.42,25.99,33.12"/>
  <path class="cls-1" d="M312.73,831.6c-13.73.57-24.71-3.44-31.82-12.05-7.35-8.89-11.09-20.94-6.96-32.54l15.32-43.03,155.94,47.6c-40.85,25.02-84.01,38-132.48,40.01"/>
</svg>