<?xml version="1.0" encoding="UTF-8"?>
<svg id="Layer_1" data-name="Layer 1" xmlns="http://www.w3.org/2000/svg" viewBox="0 0 1920 1080">
  <defs>
    <style>
      .cls-1 {
        fill: #fff;
      }
    </style>
  </defs>
  <path class="cls-1" d="M1273.65,874.65h-20.06c1.61-6.55,1.66-13.99-1.34-20.86l-34.41-.33v-49.58c19.55-.93,37.65-.44,56.59-.21l-.78,70.98ZM1254.27,839.21c.73-8.2,2.4-16.11-1.27-21.99-2.35-3.76-15.03-3.35-16.58.93-2.17,6.01-2.3,15.84.41,20.7,3.97,3.47,12.51,2.41,17.44.35"/>
  <path class="cls-1" d="M1716.32,557.61c-14.05,10.44-30.08,12.67-45.87,15.17l-30.6,4.85c-106.74,11.55-231.39,22.03-336.31,5.45-29.55-4.67-77.63-18.94-77.9-46.83-.28-28.77,21.07-50.91,46.37-62.01l-104.01-4.24c-60.54-2.47-119.38-5.63-179.65-11.5-20.16-1.96-38.62-4.15-57.84-8.91-6.37-1.58-12-3.76-16.03-8.46,5.89-4.48,12.23-7.85,19.49-9.84,21.25-5.8,41.55-10.03,63.75-12.72l186.82-22.69c-37.58-17.07-83.79-32.56-111.35-62.51-13.23-14.37-13.81-33.15,1.13-46.85,15.51-14.2,34.76-23.75,55.37-31.29,46.89-17.14,94.56-28.85,144.15-37.08,36.2-6,71.34-6.39,107.6-9.67l34.19-3.09,69.32-.05,36.52,3.08c134.44,5.17,267.42,19.71,398.51,47.5l-41.39-2.38c-106.52-6.15-212.95-2.59-317.61,19.03-35.99,7.43-68.79,19.89-102.31,32.96-26.1,10.17-67.67,31.59-74.66,55.89-4.48,15.55,32.8,23.29,55.42,25.81l279.83,31.2c30.54,3.41,58.59,8.1,88.16,14.23,8.24,1.7,15.62,3.26,23.61,8.14l-20.39,3.5c-122.32,14.05-244.04,23.2-366.89,31.27-19.24,1.26-39.43,6.19-40.3,21.55-2.75,48.3,255.06,57.11,312.83,60.49"/>
  <path class="cls-1" d="M1827.96,670.98c5.89-1.67,12.48-1.31,19.48-.16l-.14,60.85c0,2.73-2.26,6.91-4.82,8.48l-182.15.72c-2.48,5.99-1.62,10.79-2.63,16.67-6.22,1.44-12.06,1.05-19.01.5l-2.76-17.01c-4.47-.49-12.03-.21-14.13-4.1-4.2-7.78-1.52-16.68-1.93-25.71-.23-5.3-1.99-14.78,3.01-18.03,10.62-4.33,24-3.07,34.72-.07,3.92,11.04,1.61,21.52,2.81,33.05.51,4.86,13,5.31,13.06.58l.72-55.45c6.39-1.73,13.17-1.53,20.01.47-.38,6.69-1.17,12.77.63,20.2l35.34.4c4.06.04,9.64,3.09,9.8,7.43l1.06,28.16,51.01.16c1.79-8.28,1.76-16.17-.1-24.71l-32.36-.65c-1.25-3.8-1.01-7.16-.15-10.75l46.42.29c8.91.06,3.64,19.4,6.84,33.99,2.04,3.2,11.1,2.54,14.92.06l.35-55.36ZM1721.95,727.72l-.26-23.97c-9.38-1.44-17.65-1.73-27.21-.02l-.57,23.41c8.97,2.1,17.77,1.92,28.04.58"/>
  <path class="cls-1" d="M1572.44,853.75l-.49-30.97,38.2-.6c2.21-1.2,1.45-5.99-1.69-5.95l-43.4.67-.71,27.85c-.15,5.74-4.47,9-10.1,8.99l-66.59-.1c-5.32,0-8.65-3.84-8.71-8.78l-.31-24.13c-.04-3.8-4.56-4.28-6.94-4.21-2.02.06-7.16.49-7.22,4.13l-.56,32.59c-6.59.92-13.1.87-20.15-.1l-.14-48.52c12.39-4.51,19.74,2.21,20.36,1.79l4-2.69,31.06.31.7,35.64c3.88,1,6.77,1.03,10.85-.04l.57-35.6c6.69-1.05,12.92-.81,19.8-.24l1.27,33.59c.16,4.24,10.69,4.33,10.8.2l.89-33.78,84.93-.34.12,50.27h-56.54Z"/>
  <path class="cls-1" d="M1391.51,693.84c.58,12.47-.95,23.56,1.12,36.05l48.25-.19c1.96-7.94,1.7-16.11.4-24.71l-31.91-1.36c-2.7-.63-2.25-8.92-.15-11.26l42.1.1c14,.04,7.01,19.75,10.64,35.22,2.11,3.13,10.85,2.62,14.1.35l.16-56.17c6.21-2.26,12.91-2.48,19.48-.46l.2,60.34c.02,3.13-.54,5.48-2.03,7.32-1.93,2.39-4.47,2.94-8.29,2.96l-92.84.34-1.91,17.41c-6.87.8-12.92.58-19.5-.31l-1.25-16.69c-4.86-.46-14.32.38-16.72-4.76-4.12-8.83-1.01-18.93-1.79-28.78-.35-4.5-1.07-12.51,4.08-14.42,10.91-4.05,23.01-2.88,35.88-1.02"/>
  <path class="cls-1" d="M1007.8,721.63c.03,3.99.86,6.79,2.11,8.07,1.87,1.92,8.96,1.49,8.99-1.33l.36-32.82,21.72.07.61,34.68c9.26.43,17.66,1.32,26.66-.44,3.26-.63,3.51-10.35-.14-10.7-4.61-.45-13.3,1.8-16.07-3.26-3.82-7.04-1.91-18.1-.44-26.24,13.02-2.65,24.65-1.28,37.68-1.08l.17,48.63c.01,4.4-4.27,8.49-8.93,8.49l-105.06.12c-5.52,0-9.97-3.93-9.97-9.28l-.04-32.15c0-5.46,4.29-9.27,9.68-9.23l32.47.25.19,26.22Z"/>
  <path class="cls-1" d="M1760.25,803.54c.86,4.77.96,8.99-.47,12.46-11.24,2.17-21.26-1.3-32.77,3.26,11.73,2.89,21.43,1.05,33.6,3.23l-.33,22.94c-.07,5.28-4.41,8.3-9.43,8.37l-51.32.74c-2.62,5.06-2.42,10.27-1.3,16.4-6.93,1.73-14.01,1.7-21.12.21.4-6.01.7-11-1.25-16.75l-36.17-.81-.08-49.52,19.18-.34,1.24,35.72c5.52,1.75,11.18,1.86,16.62.4l.83-35.42c6.48-1.67,12.89-1.36,20.2-.4l.52,36.09,43.73.1c1.31-.45,1.34-6.79-.01-7.26l-34.42-.46-.04-28.85,52.78-.11Z"/>
  <path class="cls-1" d="M1146.69,693.98l.53,36.33c6.01,1.23,11.83,1.85,17.52.22,3.8-1.1,3.78-6.98,2.67-10.69-.81-2.66-5.42-3.67-8.68-4.72-2.76-6.15-1.14-14.56-.57-21.12l40.19.1-.22,19.97c-2.7,1.79-7.61,2.4-8.78,4.74-1.52,3.05-1.91,9.85,1.04,11.06,5.68,2.31,11.36,1.73,18,.1l.13-58.25,19.83-.1-.03,61.57c0,4.57-3.38,9.14-8.35,9.2l-71.4.91c-2.21,6.58-1.78,12.73-1.45,19.74-6.21,1.46-12.4,1-19.14-.75-1.14-22.67-.48-44.47-.43-68.24l19.14-.07Z"/>
  <path class="cls-1" d="M1149.89,822.84l38.65-.45c1.29-.01,1.28-5.83,0-5.83l-44.47-.16c-4.69-.02-10.32,3.1-10.33,7.96l-.07,28.84c-6.92,1.13-13.24,1.02-20.33.1-.52-16.73-1.08-32.7.34-49.37,16.64-3.38,20.93,3.74,20.21,3.91,1.16-.27,3.05-2.53,3.91-4.47l69.82.29.02,50.11-57.61-.1-.12-30.85Z"/>
  <path class="cls-1" d="M1610.41,732.45c.02,6.45-6.43,9.29-11.77,9.23l-59.57-.55c-4.15-1.96-7.85-9.5-6.16-13.45,3.47,1.02,10.8.12,10.83-2.94l.48-53.18c6.69-1.79,13.4-1.96,20.04-.11-.31,6.77-1.02,12.85.71,20.58l35.29.33c4.61.05,10.07,3.65,10.09,8.61l.07,31.47ZM1591.48,727.87l-.25-24.2c-8.96-1.4-17.09-1.49-26.57.21-2.38,7.96-2.12,16.02-.08,24.01l26.91-.02Z"/>
  <path class="cls-1" d="M1344.38,692.14l.04,41.52c0,5.21-4.32,8.42-9.32,8.4l-56.87-.19c-4.39-.02-7.16-4.46-7.16-8.33l.06-33.23c0-4.88,3.62-8.55,8.59-8.4l26.58.81c8.56.26,2.96,22.3,6.13,35.6.66,2.74,10.42,2.73,10.53-.09l1.41-35.72c6.08-1.18,12.89-.97,19.99-.37"/>
  <path class="cls-1" d="M1347.73,822.84l35.75-.22c2.17-.02,3.77-1.55,3.76-2.72-.01-1.43-1.54-3.63-3.66-3.63l-34.34-.06.28-12.65,55.22.02c1.54,16.85,1.35,32.98.47,50.07l-57.41-.07-.06-30.73Z"/>
  <path class="cls-1" d="M1256.04,740.49c-7.14,1.93-12.86,1.27-20.01.4-1.21-23.23-.89-45.88-.22-69.95,6.5-1.7,12.92-1.34,20.11-.33l.12,69.88Z"/>
  <path class="cls-1" d="M1120.47,742.35c-6.16,1.45-13.21,1.25-19.94.25l-.05-69.7c6.43-1.46,12.51-1.34,19.91-.23l.08,69.68Z"/>
  <rect class="cls-1" x="1505.06" y="669.6" width="20.21" height="70.52" transform="translate(-2.3 4.97)"/>
  <rect class="cls-1" x="1085.64" y="784.17" width="20.42" height="69.97"/>
  <rect class="cls-1" x="1856.73" y="669.57" width="19.55" height="68.95"/>
  <path class="cls-1" d="M1435.51,852.32c-6.34,2.4-13,1.73-20.01,1-1.74-16.27-.37-31.94-.33-49.17,6.19-3.32,13.56-2.86,19.91.66l.43,47.51Z"/>
  <path class="cls-1" d="M1303.61,852.94c-6.8,1.43-13.55,1.33-20.34-.03l.31-48.05c6.16-3.42,12.77-3.65,19.42-1.47,1.67,16.5.72,32.1.61,49.55"/>
  <polygon class="cls-1" points="1007.5 684.12 966.98 684.34 967.3 674.85 1007.58 675.12 1007.5 684.12"/>
  <rect class="cls-1" x="1302.77" y="751.28" width="40.84" height="9.55" transform="translate(-1.77 3.1)"/>
  <path class="cls-1" d="M1311.6,678.66c-13.72,1.28-26.74.63-40.9.49-.47-3.41-.41-6.39.19-9.26l40.11.18c.65,2.84.85,4.62.61,8.59"/>
  <path class="cls-1" d="M1047.4,763.95l-39.89.04-1.67-8.82c14.25-1.34,27.07-1.25,41.51-.22l.05,9Z"/>
  <rect class="cls-1" x="1050.01" y="672.39" width="41.06" height="9.45" transform="translate(-2.64 4.19) rotate(-.22)"/>
  <path class="cls-1" d="M84.94,546.68c32.03,6.13,63.35,7.74,95.01,2.99,23.57-3.54,45.18-11.21,65.73-23.04,32.56-18.74,52.43-34.47,74.86-65.15l27.28-40.21,30.3-45.05c11.02-16.39,21.93-32.07,34.21-47.52,26.8-33.72,57.54-59.94,101.76-64.81,22.31-2.45,44.43-2.02,66.44,2.09,7.16,1.34,13.78,2.89,20.66,6.67-12.73,7.27-24.81,13.74-36.69,22.02-23.41,16.33-44.61,35.28-61.9,58.17l-67.05,93.5-42.24,61.52c-11.44,16.67-24.38,31.25-40.39,43.59-40.74,31.39-91.74,44.97-142.88,40.15-27.13-2.55-53.43-7.7-78.64-18.25-16.41-6.9-32.01-14.6-46.48-26.69"/>
  <path class="cls-1" d="M294.16,452.16c-32.25,36.13-73.98,64.78-122.85,71.22-32.45,4.28-71.93,5.56-102.76-4.55-7.36-2.41-14.53-4.74-20.76-9.77,8.77,1.57,16.18,3.42,24.45,4l15.63-.02c40.45-3.91,65.3-21.45,93.8-48.39,18.95-17.91,35.17-37.8,50.02-59.29,10.69-15.49,19.93-31.03,29.9-46.91l24.39-38.9c28.1-44.79,70.87-84.51,120.32-104.27,24.83-9.92,50.46-13.36,77.16-9.84,30.1,3.97,58.93,13.16,85.59,27.4,6.91,3.69,12.97,7.63,18.68,12.72,1.55,1.37,3.15,2.85,3.74,5.17-19.65-2.89-38.57-5.65-58.29-6.48h-27.78c-13.25,0-25.94,2.48-38.6,5.89-13.6,3.67-25.24,9.94-35.88,18.89-10.2,8.58-19.43,17.13-28.43,27.07-14.78,16.32-28.03,33.26-39.47,52.14l-30.3,50.03c-11.58,19.12-23.64,37.2-38.54,53.89"/>
  <path class="cls-1" d="M255.83,761.53l-88.27-.04-.07-17.47,32.59.03-.32-25.25c-.05-3.96-4.7-5.49-7.65-5.14-3.88.47-5.97,3.15-6.51,7.32l-15.69-.02c.87-13.62,10.02-19.56,23.43-19.62,6.72-.03,12.96,1.4,17.96,6.01,3.17,3.51,5.34,8.06,5.39,13.01l.26,23.61,36.72-.06c-4.42-5.28-8.06-9.7-11.33-15.48.58-7.12,2.96-14.18,7.4-20.01,9.91-12.98,32.65-12.77,42.61-1.85,5.51,6.02,8.32,13.96,9.2,21.88l-11.7,15.49,35.78-.02c3.53,0,6.14-3.44,6.17-6.57l.05-34.47,16.58.13-.04,32.88c-.02,13.75-6.88,25.45-20.16,25.48l-41.75.11c-5.15.02-9.76-1.18-14.37-3.59-5.21,2.66-10.28,3.63-16.29,3.62M272.03,739.08c5.53-4.3,8.62-8.05,11.86-13.39-1.23-5.99-6.27-11.43-13.13-10.92-4.67.35-10.81,5.81-10.47,10.47,1.69,5.89,7.25,10.3,11.73,13.84"/>
  <path class="cls-1" d="M632.91,761.4l-35.12.12c-1.13,9.56-6.98,17.14-15.97,20.35-7.16,2.55-14.64,2.72-22.05.66l-4.19-15.67c4.39,1.53,8.13,1.79,12.41,1.55,5.3.5,10.37-1.97,12.87-6.93-5.59-.13-10.9.48-16.21-.86-19.11-4.84-26.94-26.14-18.56-43.73,4.76-8.55,13.39-13.89,23.3-13.91l28.7-.07.1,41.07,31.88-.02c4.04,0,6.85-3.41,6.75-7.34l.06-33.66,16.49-.07.04,31.58c.02,14.24-6.09,26.89-20.48,26.93M581.4,743.77l-.18-25.33-10.88.21c-7.19.13-11.24,7.69-10.46,14.56.65,5.84,4.61,10.8,10.65,10.72l10.86-.16Z"/>
  <path class="cls-1" d="M493.44,735.89c0,13.55-6.93,25.47-20.1,25.48l-31.1.02c-8.26,0-15.11-4.96-17.98-12.83-5.86,7.1-15.07,9.17-23.34,5.21-9.02-4.32-14.03-13.61-13.8-23.51.46-19.53,16.7-26.3,34.96-26.39l.26-4.35,16.11-4.33.29,42.69c.02,3.3,2.98,5.98,6.09,5.98l25.29.05c3.74,0,6.66-2.98,6.69-6.68l.23-34.43,16.4.17v32.91ZM421.73,733.76l.33-18.68c-5.15-.09-10.41,1.11-14.4,4.89-5.71,5.41-6.37,14.99-1.04,20.84,2.51,2.75,6.67,2.74,9.96,1.28,2.63-1.17,5.09-4.52,5.15-8.32"/>
  <path class="cls-1" d="M29.13,842.94c7.72,1.44,11.35,7.97,11.58,15.97.23,8.08-4.27,16.7-13.1,16.74l-27.56.12-.05-65.34,28.98.34c7.99.09,12.39,9.24,11.47,16.74.63,7.51-3,13.41-11.33,15.43M27.01,831.63l-.05-7.6c-.57-3.17-3.05-6.21-6.34-6.24l-7.1-.06v21.78l7.72-.12c3.58-.05,5.79-3.92,5.77-7.76M26.99,862.18l-.08-9.65c-.02-3.16-2.46-5.7-5.6-5.71l-7.83-.02.08,21.72,7.66-.11c2.91-.04,5.27-3.19,5.77-6.23"/>
  <path class="cls-1" d="M477.53,846.77l-13.36-.07.02,29.1h-13.67s.26-52.4.26-52.4c.03-5.84,5.09-11.89,10.67-12.54,6.23-.72,12.15-.71,18.32-.1,6.68.65,11.37,7.41,11.37,13.98v50.96h-13.45s-.16-28.93-.16-28.93ZM477.65,839.53l-.19-15.55c-.04-3.55-3.38-6.25-6.54-6.19-3.3.05-6.63,2.64-6.66,6.29l-.12,15.47,13.51-.02Z"/>
  <path class="cls-1" d="M296.33,846.84l-13.41-.15v29.14l-13.54-.03.14-52.47c.02-5.74,4.98-11.77,10.74-12.44,6.31-.73,12.56-.84,18.79.02,6.1.84,10.65,7.27,10.66,13.23l.09,51.56-13.5.1.03-28.96ZM296.32,839.55l-.27-16.02c-.07-3.68-3.96-6.01-7.03-5.74-3.52.3-6.1,3.14-6.1,6.95v14.86s13.39-.04,13.39-.04Z"/>
  <path class="cls-1" d="M256.01,863.44c-1.49,6.11-5.6,12.08-11.81,12.14l-28.58.26-.16-65.26,28.37.03c6.51,0,10.76,5.96,12.13,12.18l.06,40.65ZM242.45,861.41l.08-35.97c0-4.22-2.92-7.64-7.23-7.68l-6.27-.05-.05,50.86,7.62-.15c3.21-.06,5.84-3.35,5.85-7.01"/>
  <path class="cls-1" d="M68.67,744.08l32.63-.15-.29-25.35c-.04-3.8-4.83-5.33-7.58-4.92-3.87.57-6.03,3.23-6.63,7.29l-15.43.07c-.26-8.88,5.64-16.39,14.58-18.71,5.64-1.46,11.56-1.27,17.31-.02,8.68,1.97,14.64,9.02,14.72,18.15l.37,40.95-49.55.15-.13-17.45Z"/>
  <polygon class="cls-1" points="202.12 875.68 188.62 875.65 188.75 846.79 175.05 846.71 175.04 875.78 161.55 875.68 161.54 810.67 175.03 810.52 175.13 839.56 188.68 839.43 188.72 810.57 202.08 810.56 202.12 875.68"/>
  <path class="cls-1" d="M80.86,846.83l-13.31-.4-.15,29.26-13.49.09.15-52.51c.02-5.74,5.17-11.81,10.78-12.43,6.19-.68,12.13-.7,18.28-.02,6.51.72,11.19,7.49,11.2,13.89l.03,50.93-13.46.1-.02-28.91ZM80.95,839.52l-.31-15.9c-.06-3.33-3.53-5.73-6.37-5.83-3.02-.11-6.6,2.1-6.63,5.51l-.18,16.27,13.48-.05Z"/>
  <path class="cls-1" d="M363.64,862.21c-.43,6.49-4.98,13.25-11.43,13.3l-28.93.26-.1-65.28,29.29.32c6.95.07,11.44,7.99,11.16,14.57v36.82ZM350.14,861.99l-.09-37.8c0-3.85-3.68-6.53-7.32-6.48l-6.05.07-.02,50.69h7.29c3.26,0,5.83-2.94,6.19-6.47"/>
  <path class="cls-1" d="M423.76,846.89l-6.57-.14c-.45-2.47-.49-4.58.05-7.2l20.04.04-.02,22.83c0,7.03-5.01,12.12-11.88,13.33l-17.6-.29c-6.36-.99-10.94-7.4-10.94-13.75l-.02-36.96c0-5.99,4-12.71,10.32-13.73l20.39-.09c6.34-.03,9.48,7.1,9.66,13.45-1.9,1.03-4.52,1.05-6.9.18-.22-2.86-1.45-5.57-4.14-6.4-2.59-.8-5.48-.37-8.17-.46-4.68-.14-7.72,3.2-7.72,7.75l.06,36.25c0,3.6,2.88,6.41,5.99,6.74,3.33.34,7.11-1.63,7.17-5.34l.27-16.22Z"/>
  <path class="cls-1" d="M134.73,846.74l-6.74-.07.04-7.19,20.06.05-.13,24.36c-.05,7.23-7.28,12.13-14.25,11.95l-15.16-.4c-6.22-1.16-10.8-7.3-10.79-13.68l.08-37.79c0-5.89,4.56-12.21,10.49-13.04l19.94-.02c6.51,0,10.07,7.7,9.69,13.72-2.35.64-4.24.58-6.51.05-.49-2.31-1.13-4.76-3.14-5.96-2.57-1.55-11.77-1.77-14.57.66-1.55,1.34-2.58,3.44-2.56,6.12l.16,36.71c.02,3.42,3.06,5.86,5.81,6.19,3.25.4,7.18-1.58,7.25-5.18l.33-16.49Z"/>
  <rect class="cls-1" x="510.95" y="676.06" width="16.55" height="85.46"/>
  <rect class="cls-1" x="135.73" y="676.06" width="16.58" height="85.46"/>
  <polygon class="cls-1" points="571.96 846.58 558.38 846.73 558.41 868.52 578.6 868.48 578.58 875.85 545.01 875.82 545 810.5 578.58 810.52 578.64 817.65 558.52 817.71 558.37 839.39 571.89 839.76 571.96 846.58"/>
  <path class="cls-1" d="M524.71,875.28c-4.24,1.08-8.37.41-13.32.5l-.04-57.96-13.65-.15.06-7.18,40.32-.07c.5,2.58.4,4.75.13,7.22l-13.48.07-.02,57.58Z"/>
  <polygon class="cls-1" points="344.84 783.74 328.21 784.17 328.11 768.91 344.54 768.8 344.84 783.74"/>
  <rect class="cls-1" x="263.3" y="670.34" width="16.82" height="15.27"/>
  <rect class="cls-1" x="391.47" y="674.45" width="16.6" height="15.43"/>
  <rect class="cls-1" x="415.72" y="674.45" width="16.62" height="15.37" transform="translate(-.99 .62)"/>
  <rect class="cls-1" x="473.78" y="767.97" width="15.41" height="16.88" transform="translate(-295.5656 1256.847) rotate(-89.9226)"/>
  <polygon class="cls-1" points="649.86 783.8 633.1 784.16 632.98 768.86 649.81 768.87 649.86 783.8"/>
  <polygon class="cls-1" points="821.4 778.26 811.2 778.51 811.2 301.49 821.4 301.5 821.4 778.26"/>
</svg>