<?xml version="1.0" encoding="UTF-8"?>
<svg id="Layer_1" xmlns="http://www.w3.org/2000/svg" version="1.1" viewBox="0 0 330.36 163.16">
  <!-- Generator: Adobe Illustrator 30.6.0, SVG Export Plug-In . SVG Version: 2.1.4 Build 109)  -->
  <defs>
    <style>
      .st0 {
        fill: #fff;
      }
    </style>
  </defs>
  <g>
    <polygon class="st0" points="258.21 62.1 240.61 62.1 240.61 72.08 258.21 72.08 275.81 72.08 293.41 72.08 293.41 62.1 275.81 62.1 258.21 62.1"/>
    <polygon class="st0" points="272.27 36.68 251.19 36.68 251.19 26.11 266.46 14.39 282.84 26.11 293.41 26.11 293.41 20.67 266.27 1.26 240.61 20.76 240.61 47.25 272.27 47.25 272.27 36.68"/>
    <polygon class="st0" points="293.41 36.68 293.41 28.68 282.84 28.68 282.84 36.68 274.84 36.68 274.84 47.25 282.84 47.25 282.84 54.82 293.41 54.82 293.41 47.25 301.84 47.25 301.84 36.68 293.41 36.68"/>
    <path class="st0" d="M62.02,48.82c-.24-.24-.51-.42-.84-.56-.33-.14-.68-.23-1.07-.26v-.03c.72-.19,1.3-.49,1.72-.91.43-.43.64-1.03.64-1.81,0-.52-.1-.97-.29-1.33-.2-.37-.47-.67-.82-.9-.36-.23-.78-.39-1.27-.5-.49-.1-1.03-.16-1.63-.16h-3.09v11.42h3.04c.58,0,1.13-.04,1.66-.13.52-.09.99-.24,1.39-.47.4-.23.71-.53.95-.93.24-.39.35-.9.35-1.51,0-.4-.07-.76-.2-1.08-.13-.32-.31-.61-.55-.84M57,43.71h1.72l.73.07.68.27.5.52c.13.22.2.49.2.83,0,.42-.08.75-.24,1l-.64.55c-.27.12-.58.2-.93.23-.36.04-.73.05-1.12.05h-.89v-3.54ZM60.8,51.53l-.62.56c-.26.13-.56.23-.89.28-.34.05-.7.08-1.06.08h-1.22v-3.86h1.06c.35,0,.7.02,1.05.06.35.05.67.14.96.28l.69.61c.18.27.26.62.26,1.06,0,.38-.08.69-.23.93"/>
    <path class="st0" d="M66.58,53.84c.37.1.79.15,1.24.15.34,0,.66-.05.94-.13l.74-.32.55-.42.36-.42h.03v1.08h1.44l-.05-.55c0-.24-.02-.61-.02-1.08v-3.45c0-1.14-.26-2-.78-2.58-.52-.58-1.38-.87-2.57-.87-.53,0-1.03.07-1.49.22-.46.14-.88.33-1.26.56l.08,1.31c.32-.26.69-.47,1.12-.62.43-.15.86-.23,1.3-.23.78,0,1.32.18,1.61.55.3.36.45.9.45,1.62l-.43-.02h-.38s-.81,0-.81,0c-.4,0-.83.05-1.28.14-.46.09-.88.24-1.27.46l-.53.37-.42.47-.28.59-.1.72c0,.46.07.85.22,1.18.15.33.36.6.63.81.27.21.6.37.97.47M66.73,50.51c.22-.22.49-.38.8-.48.32-.12.64-.19.96-.21l.45-.03h.36s.49,0,.49,0l.49.02v.73c0,.62-.2,1.14-.59,1.57-.39.42-.97.63-1.73.63l-.54-.09-.5-.26-.37-.42-.14-.58c0-.37.11-.66.34-.88"/>
    <rect class="st0" x="74.51" y="41.85" width="1.73" height="1.73"/>
    <rect class="st0" x="74.6" y="45.45" width="1.54" height="8.34"/>
    <path class="st0" d="M82.92,53.91l.6-.15v-1.31l-.43.2-.62.09c-.34,0-.64-.12-.91-.37-.25-.25-.38-.62-.38-1.11v-4.57h2.21v-1.24h-2.21v-2.43l-1.53.49v1.93h-1.89v1.24h1.89v4.87c0,.83.23,1.45.69,1.84.45.39,1.08.58,1.88.58l.71-.07Z"/>
    <path class="st0" d="M95.35,42.37h-1.72l-4.87,11.42h1.72l1.16-2.87h5.59l1.16,2.87h1.78l-4.83-11.42ZM92.16,49.57l2.27-5.66,2.28,5.66h-4.55Z"/>
    <rect class="st0" x="101.87" y="41.52" width="1.54" height="12.27"/>
    <path class="st0" d="M118.5,43.86c-.55-.48-1.2-.85-1.93-1.1-.74-.26-1.53-.38-2.38-.38h-3.37v11.42h3.37c.94,0,1.78-.13,2.53-.37.75-.25,1.39-.61,1.92-1.1.52-.48.93-1.09,1.22-1.82.28-.73.42-1.57.42-2.53,0-.88-.16-1.66-.48-2.36-.32-.7-.75-1.28-1.3-1.77M118.25,49.96c-.19.54-.47.99-.84,1.34-.37.35-.83.62-1.37.79-.54.17-1.17.26-1.87.26h-1.72v-8.55h1.91c.59,0,1.14.1,1.65.29.51.19.95.47,1.33.83.38.36.67.81.89,1.33.21.52.32,1.12.32,1.79,0,.74-.1,1.37-.29,1.91"/>
    <path class="st0" d="M129.08,52.15v-3.45c0-1.14-.26-2-.79-2.58-.51-.58-1.37-.87-2.57-.87-.53,0-1.03.08-1.48.22-.46.14-.88.34-1.26.56l.08,1.31c.32-.26.69-.47,1.12-.62.43-.15.86-.23,1.3-.23.77,0,1.31.18,1.61.55.3.36.45.9.45,1.62l-.43-.02h-.38s-.82,0-.82,0c-.4,0-.82.05-1.28.14-.46.09-.88.24-1.26.46l-.54.37-.43.47-.28.59-.1.72c0,.46.08.85.23,1.18.15.33.36.6.63.81.27.22.6.37.97.47.37.1.79.15,1.23.15.35,0,.66-.04.94-.13l.74-.32.54-.41.36-.42h.03v1.08h1.44l-.05-.55c-.01-.25-.02-.61-.02-1.09M127.54,50.55c0,.62-.2,1.14-.59,1.56-.39.42-.96.63-1.73.63l-.54-.09-.5-.26-.37-.42-.14-.58c0-.37.11-.66.34-.88.22-.22.49-.38.8-.48.32-.12.64-.18.96-.21l.45-.03h.36s.49,0,.49,0l.49.02v.73Z"/>
    <polygon class="st0" points="140.27 52.35 140.24 52.35 138.14 45.45 136.32 45.45 134.2 52.35 134.17 52.35 132.25 45.45 130.57 45.45 133.25 53.79 135.04 53.79 137.14 46.79 137.18 46.79 139.33 53.79 141.12 53.79 143.8 45.45 142.3 45.45 140.27 52.35"/>
    <path class="st0" d="M151.8,52.15v-3.45c0-1.14-.26-2-.79-2.58-.51-.58-1.37-.87-2.57-.87-.53,0-1.03.08-1.48.22-.46.14-.88.34-1.26.56l.08,1.31c.32-.26.69-.47,1.12-.62.43-.15.86-.23,1.3-.23.77,0,1.31.18,1.61.55.3.36.45.9.45,1.62l-.43-.02h-.38s-.82,0-.82,0c-.4,0-.82.05-1.28.14-.46.09-.88.24-1.26.46l-.54.37-.43.47-.28.59-.1.72c0,.46.07.85.22,1.18.15.33.36.6.63.81.27.22.6.37.97.47.37.1.79.15,1.23.15.35,0,.66-.04.94-.13l.74-.32.55-.41.36-.42h.03v1.08h1.44l-.05-.55c-.01-.25-.02-.61-.02-1.09M150.26,50.55c0,.62-.2,1.14-.59,1.56-.39.42-.96.63-1.72.63l-.54-.09-.5-.26-.37-.42-.14-.58c0-.37.11-.66.34-.88.22-.22.49-.38.8-.48.32-.12.64-.18.96-.21l.45-.03h.36s.49,0,.49,0l.49.02v.73Z"/>
    <path class="st0" d="M164.29,48.45l-.79-.68c-.3-.19-.59-.36-.9-.51-.42-.19-.81-.39-1.18-.58-.37-.2-.67-.41-.91-.65-.24-.23-.36-.53-.36-.91l.18-.73.47-.47.64-.25.7-.07.58.03.5.09.5.15.56.21.23-1.51c-.4-.14-.81-.25-1.23-.31-.42-.06-.83-.1-1.21-.1-.51,0-.99.07-1.43.2-.45.14-.83.34-1.17.6-.33.26-.59.59-.78.98-.19.39-.28.84-.28,1.34,0,.44.07.83.21,1.14.14.32.32.6.55.84l.79.62c.29.17.6.33.9.48.31.15.61.29.9.43l.79.47.55.6c.14.23.21.5.21.82s-.07.62-.22.86l-.55.57-.73.33-.74.1-.65-.06-.64-.14-.59-.18-.49-.17-.16,1.51c.38.12.77.23,1.15.33.39.1.79.15,1.19.15.56,0,1.1-.07,1.61-.19.5-.13.95-.33,1.33-.6.38-.27.68-.62.9-1.06.22-.43.33-.95.33-1.55,0-.47-.07-.88-.21-1.23-.14-.34-.32-.65-.55-.91"/>
    <path class="st0" d="M171.7,52.62l-.84.13c-.49,0-.92-.1-1.27-.28-.35-.19-.64-.43-.86-.73-.23-.3-.39-.64-.49-1.01-.11-.37-.15-.74-.15-1.11,0-.4.06-.79.18-1.16.12-.37.29-.71.52-1,.23-.29.51-.53.84-.7.33-.17.71-.26,1.13-.26l.81.09.87.27.13-1.28c-.2-.09-.49-.16-.86-.22-.34-.07-.68-.1-1.01-.1-.64,0-1.22.11-1.74.33-.52.22-.96.52-1.34.9-.37.39-.66.85-.86,1.38-.2.53-.31,1.12-.31,1.75,0,.6.1,1.16.31,1.69.21.53.5.99.88,1.39.37.4.82.71,1.34.94.52.23,1.09.35,1.72.35.29,0,.6-.02.94-.06.34-.04.67-.13.99-.28l-.11-1.37-.81.35Z"/>
    <rect class="st0" x="174.49" y="41.85" width="1.73" height="1.73"/>
    <rect class="st0" x="174.58" y="45.45" width="1.54" height="8.34"/>
    <path class="st0" d="M185.78,48.1c-.12-.58-.33-1.07-.61-1.5-.28-.42-.66-.75-1.13-1-.47-.24-1.06-.36-1.75-.36-.59,0-1.12.1-1.61.31-.48.21-.89.5-1.23.88-.34.37-.61.82-.8,1.34-.18.52-.28,1.08-.28,1.69,0,.68.09,1.29.26,1.85.17.55.44,1.03.79,1.43.36.39.8.7,1.35.92.54.22,1.18.33,1.92.33.34,0,.64-.02.9-.06l.7-.14.55-.18.48-.17v-1.54l-.42.26-.62.27-.74.21-.78.09c-.36,0-.71-.07-1.04-.21-.33-.13-.63-.33-.88-.57-.25-.25-.45-.54-.61-.88-.15-.34-.22-.71-.22-1.12h5.95c0-.67-.06-1.29-.18-1.86M180.02,48.81l.19-.81.41-.75.67-.54c.27-.14.6-.21.98-.21.33,0,.62.06.88.18l.65.5.41.73c.09.28.14.58.14.9h-4.32Z"/>
    <path class="st0" d="M192.28,45.25c-.59,0-1.13.13-1.64.4-.49.26-.86.63-1.09,1.12h-.03v-1.32h-1.49v8.34h1.53v-3.86c0-.51.05-.97.15-1.39.1-.42.25-.78.46-1.09.21-.3.47-.54.79-.7.32-.17.7-.25,1.15-.25.67.04,1.14.3,1.39.78.25.49.37,1.21.37,2.19v4.32h1.54v-4.96c0-1.12-.25-2-.75-2.63-.51-.63-1.3-.95-2.37-.95"/>
    <path class="st0" d="M201.54,52.74c-.34,0-.65-.13-.91-.38-.25-.24-.38-.61-.38-1.11v-4.57h2.21v-1.24h-2.21v-2.43l-1.53.5v1.93h-1.89v1.24h1.89v4.87c0,.84.23,1.45.69,1.85.45.39,1.08.58,1.88.58l.71-.07.6-.16v-1.31l-.43.21-.62.09Z"/>
    <rect class="st0" x="204.49" y="41.85" width="1.73" height="1.73"/>
    <rect class="st0" x="204.59" y="45.45" width="1.54" height="8.34"/>
    <path class="st0" d="M212.73,41.32c-.58,0-1.04.08-1.41.24-.36.16-.65.39-.85.68-.21.29-.35.65-.43,1.06-.07.41-.11.87-.11,1.38v.77h-1.96v1.24h1.96v7.1h1.53v-7.1h2.21v-1.24h-2.21v-.9l.05-.79.2-.63.46-.42c.19-.1.46-.15.79-.15l.39.02.34.07.06-1.24-.49-.07-.54-.04Z"/>
    <rect class="st0" x="215.5" y="45.45" width="1.54" height="8.34"/>
    <rect class="st0" x="215.4" y="41.85" width="1.73" height="1.73"/>
    <path class="st0" d="M224.42,52.62l-.84.13c-.49,0-.92-.09-1.27-.28-.35-.19-.64-.43-.86-.73-.22-.3-.39-.63-.49-1.01-.11-.37-.15-.74-.15-1.11,0-.4.06-.78.18-1.16.12-.37.3-.71.52-1,.23-.29.51-.53.84-.7.33-.18.71-.27,1.13-.27l.81.09.86.27.13-1.28c-.2-.09-.49-.16-.86-.22-.34-.07-.68-.1-1.01-.1-.64,0-1.22.11-1.74.33-.52.22-.97.52-1.34.91-.37.38-.66.84-.86,1.38-.21.53-.31,1.12-.31,1.75,0,.6.1,1.16.31,1.69.21.53.5.99.88,1.39.37.4.82.71,1.34.94.52.23,1.09.35,1.72.35.29,0,.6-.02.94-.06.34-.04.67-.13.99-.28l-.11-1.37-.81.35Z"/>
    <path class="st0" d="M62.02,68.45c-.24-.24-.51-.42-.84-.56-.33-.14-.68-.22-1.07-.26v-.03c.72-.19,1.3-.49,1.72-.91.43-.43.64-1.03.64-1.81,0-.52-.1-.97-.29-1.33-.2-.37-.47-.67-.82-.9-.36-.23-.78-.39-1.27-.5-.49-.1-1.03-.16-1.63-.16h-3.09v11.42h3.04c.58,0,1.13-.04,1.66-.13.52-.09.99-.25,1.39-.48.4-.22.71-.53.95-.93.24-.39.35-.9.35-1.51,0-.4-.07-.76-.2-1.08-.13-.32-.31-.61-.55-.84M57,63.34h1.72l.73.07.68.27.5.52c.13.22.2.49.2.83,0,.42-.08.75-.24,1l-.64.55c-.27.12-.58.2-.93.23-.36.04-.73.05-1.12.05h-.89v-3.54ZM60.8,71.16l-.62.56c-.26.14-.56.23-.89.28-.34.05-.7.08-1.06.08h-1.22v-3.86h1.06c.35,0,.7.02,1.05.06.35.05.67.13.96.28l.69.61c.18.27.26.62.26,1.06,0,.38-.08.69-.23.93"/>
    <path class="st0" d="M71.15,68.94c0,.5-.05.97-.15,1.39-.1.42-.25.78-.46,1.09-.2.3-.47.54-.79.71-.32.17-.7.25-1.13.25-.68-.04-1.14-.3-1.4-.78-.25-.48-.37-1.22-.37-2.2v-4.31h-1.54v4.95c0,1.13.25,2.01.75,2.64.51.64,1.29.95,2.37.95.59,0,1.13-.13,1.64-.4.5-.27.86-.64,1.09-1.12h.03v1.32h1.48v-8.34h-1.53v3.86Z"/>
    <path class="st0" d="M78.95,64.88c-.45,0-.88.14-1.27.42-.41.28-.71.64-.91,1.07h-.03v-1.29h-1.44v8.34h1.54v-3.79c0-1.05.21-1.88.62-2.49.41-.61.97-.92,1.65-.92l.42.03.44.11v-1.37l-.46-.08-.55-.03Z"/>
    <path class="st0" d="M88.52,67.73c-.12-.58-.33-1.07-.61-1.5-.29-.42-.66-.75-1.14-1-.47-.24-1.05-.36-1.75-.36-.59,0-1.12.1-1.61.31-.48.21-.89.5-1.23.88-.34.37-.61.82-.79,1.34-.19.52-.28,1.08-.28,1.69,0,.68.08,1.29.26,1.85.17.55.44,1.03.79,1.43.36.39.8.7,1.35.92.54.22,1.18.33,1.92.33.34,0,.64-.02.9-.06l.7-.14.55-.18.47-.17v-1.54l-.42.26-.62.27-.74.22-.79.09c-.36,0-.71-.07-1.04-.21-.33-.13-.63-.33-.88-.57-.25-.25-.45-.54-.61-.88-.15-.34-.22-.72-.22-1.13h5.95c0-.67-.06-1.29-.18-1.86M82.75,68.44l.19-.81.41-.75.67-.54c.27-.15.6-.21.98-.21.33,0,.62.06.88.19l.65.5.4.73c.09.28.14.58.14.9h-4.32Z"/>
    <path class="st0" d="M97.26,71.78v-3.45c0-1.14-.26-2-.78-2.58-.52-.58-1.38-.87-2.57-.87-.53,0-1.03.08-1.48.22-.46.14-.88.34-1.26.56l.08,1.31c.32-.26.69-.47,1.12-.62.43-.15.86-.23,1.3-.23.78,0,1.32.18,1.61.55.3.36.45.91.45,1.62l-.43-.02h-.38s-.82,0-.82,0c-.4,0-.82.05-1.28.14-.46.09-.88.24-1.26.46l-.54.37-.43.47-.28.59-.1.72c0,.46.07.85.22,1.18.15.33.36.6.63.81.27.21.6.37.97.47.37.1.79.15,1.23.15.35,0,.66-.04.94-.13l.74-.32.55-.42.36-.41h.03v1.08h1.44l-.05-.55c-.01-.25-.02-.61-.02-1.09M95.72,70.18c0,.62-.2,1.14-.59,1.56-.39.42-.96.63-1.72.63l-.54-.1-.5-.26-.37-.42-.14-.58c0-.37.11-.66.34-.88.22-.22.49-.38.8-.48.32-.12.64-.18.96-.21l.45-.03h.36s.49,0,.49,0l.49.02v.73Z"/>
    <path class="st0" d="M105.71,68.94c0,.5-.05.97-.15,1.39-.1.42-.25.78-.46,1.09-.2.3-.47.54-.79.71-.32.17-.69.25-1.13.25-.67-.04-1.14-.3-1.4-.78-.25-.48-.37-1.22-.37-2.2v-4.31h-1.54v4.95c0,1.13.25,2.01.75,2.64.5.64,1.29.95,2.37.95.59,0,1.13-.13,1.64-.4.5-.27.86-.64,1.09-1.12h.03v1.32h1.48v-8.34h-1.53v3.86Z"/>
    <polygon class="st0" points="180.53 12.63 180.2 12.56 179.87 12.63 179.6 12.81 179.42 13.09 179.35 13.41 179.6 14.02 180.2 14.26 180.53 14.19 180.8 14.02 180.99 13.75 181.06 13.41 180.99 13.09 180.8 12.81 180.53 12.63"/>
    <polygon class="st0" points="192.58 2.81 192.91 2.75 193.18 2.56 193.36 2.3 193.43 1.97 193.36 1.64 193.18 1.36 192.91 1.18 192.58 1.11 192.24 1.18 191.98 1.36 191.8 1.64 191.73 1.97 191.97 2.57 192.58 2.81"/>
    <polygon class="st0" points="194.85 2.81 195.19 2.75 195.46 2.56 195.64 2.3 195.71 1.97 195.64 1.64 195.46 1.36 195.19 1.18 194.85 1.11 194.52 1.18 194.25 1.36 194.08 1.64 194.01 1.97 194.25 2.57 194.85 2.81"/>
    <path class="st0" d="M185.39,10.8l.53-.54c.26.22.57.4.94.54.37.14.83.22,1.39.22h4.53c.34,0,.62-.07.84-.22l.53-.54c.26.22.57.4.94.54.37.14.83.22,1.38.22h7.74c.61,0,1.12-.08,1.53-.24.4-.15.72-.38.96-.66l.44.36.54.29.67.19c.25.05.53.07.83.07h8.31l.59-.06.48-.18.41-.34.36-.53.47.42.65.38.81.28c.3.07.63.11.97.11.36,0,.69-.05.98-.14l.78-.37.6-.53.41-.64.24-.68.08-.66-.08-.73-.25-.75-.42-.72-.6-.6-.78-.41c-.29-.1-.62-.15-.98-.15l-.54.05-.61.2-.65.42-.64.7c-.21.29-.41.64-.61,1.06-.19.41-.36.9-.52,1.47-.09.33-.27.57-.53.72-.26.15-.55.23-.88.23h-8.04c-.45,0-.85-.04-1.18-.13-.33-.08-.62-.21-.87-.38l.06-.61c0-.35-.06-.69-.18-1.01-.12-.32-.3-.62-.52-.91-.22-.29-.49-.57-.8-.82-.31-.26-.65-.49-1.01-.71l2.44-4.27-1.04-.73-3.19,5.48c.43.25.84.5,1.21.76.37.25.69.51.95.77l.62.78.22.78-.08.43-.29.32-.57.2c-.24.05-.55.07-.93.07h-7.54c-.45,0-.85-.04-1.17-.13-.33-.08-.61-.21-.85-.37v-4.24h-1.44v3.83l-.15.68-.4.23h-4.22c-.45,0-.84-.04-1.17-.13-.33-.08-.62-.21-.86-.38v-4.23h-1.44v3.83l-.15.68-.4.23h-5.39c-.85,0-1.53-.03-2.04-.1-.5-.07-.89-.17-1.15-.32l-.51-.55c-.08-.23-.12-.5-.12-.82l.04-.56.08-.56-1.36-.13-.06.39-.05.42-.04.41v.35s.04.77.04.77l.22.69.46.59c.2.18.45.33.77.46.32.13.71.23,1.17.3.46.07,1.01.1,1.65.1h6.58c.34,0,.63-.07.86-.22M220.16,7.9c.13-.35.3-.66.49-.92l.68-.65c.26-.16.54-.25.85-.25.33,0,.61.08.84.23l.58.56.33.71.11.67-.14.7-.4.43-.64.22-.83.06-.67-.06-.66-.16-.54-.22-.31-.24c.06-.37.15-.72.29-1.07"/>
    <polygon class="st0" points="62.22 36.89 62.49 36.71 62.67 36.44 62.75 36.11 62.67 35.78 62.49 35.5 62.22 35.32 61.89 35.25 61.56 35.32 61.29 35.5 61.11 35.78 61.04 36.11 61.28 36.71 61.89 36.96 62.22 36.89"/>
    <polygon class="st0" points="59.94 36.89 60.22 36.71 60.4 36.44 60.47 36.11 60.4 35.78 60.22 35.5 59.94 35.32 59.61 35.25 59.28 35.32 59.01 35.5 58.83 35.78 58.76 36.11 59.01 36.71 59.61 36.96 59.94 36.89"/>
    <path class="st0" d="M118.94,29.22h-5.38l-.77-.03-.7-.07-.6-.12-.46-.15c.4-.41.72-.78.96-1.13.24-.35.42-.66.54-.95l.25-.77.06-.58-.23-.61-.58-.43-.8-.25-.87-.09c-.38,0-.75.03-1.09.09-.35.06-.66.13-.95.21l-.79.27-.6.29-.16.2-.16.35-.14.42-.1.38.38.49.52.71.62.76.68.63-.29.14-.5.12-.68.09-.82.04h-6.27c-.46,0-.85-.04-1.18-.13-.33-.09-.62-.21-.87-.38v-9.53h-1.44v9.14l-.14.68-.4.22h-4.21c-.48,0-.89-.05-1.23-.14-.34-.09-.63-.23-.88-.42.11-.33.16-.64.16-.93l-.08-.73-.25-.75-.43-.72-.6-.6-.78-.41c-.29-.1-.62-.15-.98-.15l-.54.05-.61.2-.65.42-.64.7c-.21.29-.41.64-.6,1.05-.19.41-.37.91-.52,1.48-.09.33-.26.57-.52.72-.26.15-.56.23-.88.23h-11.28l-.38-.05-.27-.2-.16-.44c-.03-.19-.06-.45-.06-.77v-3.29h-2.12c-1.13,0-1.96.27-2.49.8-.54.53-.81,1.33-.81,2.39v2.67l-.24.86-.68.74c-.3.22-.66.39-1.08.52-.42.13-.9.2-1.44.2s-1.03-.05-1.43-.14c-.41-.09-.75-.21-1.04-.36l-.71-.53-.44-.62-.22-.64-.06-.59.05-.61.14-.6.22-.56.27-.48-1.19-.65-.37.59-.3.72-.2.82-.07.88.09.79c.06.3.16.61.32.92.15.31.36.63.61.93.26.3.59.57.98.81.4.24.87.43,1.42.57.54.15,1.18.22,1.91.22.77,0,1.45-.11,2.06-.34.6-.23,1.11-.53,1.53-.9.42-.37.74-.79.96-1.27.22-.48.33-.96.33-1.46v-2.36c0-.42.05-.76.16-1.02l.45-.61.71-.29c.28-.04.59-.07.94-.07h.29v2.51c0,.43.06.79.17,1.09l.47.72.66.39.76.12h11.77l.59-.05.49-.19.41-.34.36-.53.47.42.65.38.82.27c.3.07.62.11.97.11.57,0,1.05-.11,1.45-.32.4-.21.72-.48.98-.79l.45.4.56.33.71.22c.26.05.56.08.89.08h4.52c.34,0,.63-.07.85-.22l.53-.55c.26.22.58.41.95.55.37.14.84.22,1.4.22h6.19c.35,0,.69-.03,1.02-.08.33-.05.64-.12.93-.2l.82-.3.71-.35.51.27.77.3c.3.1.63.18,1,.25.37.07.77.1,1.21.1h7.23v-11.49h-1.44v10.05ZM88.36,28.6l-.4.43-.63.22c-.25.04-.53.06-.83.06l-.67-.06-.65-.16-.54-.22-.31-.24c.06-.37.15-.72.29-1.07.13-.35.3-.66.49-.93l.68-.65c.26-.16.54-.25.85-.25.33,0,.61.08.84.23l.58.56.34.71.11.67-.14.7ZM110.49,27.73l-.68.51-.67-.54-.65-.68-.53-.68-.33-.53c.41-.19.8-.32,1.16-.39.36-.08.68-.12.98-.12l.7.08.52.2.33.29.11.33-.11.41-.32.53-.51.58Z"/>
    <rect class="st0" x="123.1" y="19.18" width="1.44" height="11.49"/>
    <path class="st0" d="M136.23,29.38h-.47l-.88-.09-.8-.28-.58-.5-.22-.74.13-.56.35-.39.5-.23.58-.07.63.03.47.07.11-1.24-.68-.09-.67-.02c-.3,0-.61.04-.93.13-.32.09-.6.23-.86.41l-.63.71c-.17.29-.25.63-.25,1.03l.09.59.24.52.34.42.39.3h-1.62v1.28h4.74v-1.28Z"/>
    <rect class="st0" x="138.6" y="19.18" width="1.44" height="11.49"/>
    <path class="st0" d="M143.41,29.67c.27.3.61.54,1.03.73.42.19.93.28,1.54.28l.37-.02.41-.05.44-.1.41-.15c-.08.32-.22.61-.42.88-.2.26-.47.5-.79.7-.33.2-.72.36-1.18.49-.45.13-.98.22-1.57.26l.15,1.38c.77-.07,1.47-.21,2.11-.4.64-.19,1.2-.48,1.66-.85.46-.38.82-.86,1.09-1.45.26-.59.39-1.32.39-2.18v-1.34c0-.49-.05-.93-.13-1.31-.09-.38-.21-.7-.36-.97l-.52-.66-.63-.42-.68-.22-.66-.06c-.52,0-.99.08-1.41.26-.42.17-.78.41-1.08.71-.3.3-.52.66-.69,1.06-.16.4-.24.84-.24,1.3,0,.37.06.74.18,1.12.12.37.31.71.58,1.01M144.2,26.68l.37-.6.56-.38.69-.13.65.1.57.41c.17.2.31.48.41.84.1.36.15.82.15,1.39v.69l-.25.08-.34.08-.39.06-.41.02c-.38,0-.71-.05-.98-.15l-.67-.39-.38-.58-.12-.69.13-.76Z"/>
    <path class="st0" d="M158.85,30.67h13.75v-11.49h-1.44v10.05h-12.38c-.48,0-.89-.05-1.23-.14-.34-.09-.64-.24-.89-.43l.05-.55c0-.39-.08-.79-.25-1.2-.16-.4-.38-.8-.65-1.19-.27-.38-.57-.76-.91-1.12-.34-.36-.68-.7-1.04-1l-1.06,1.05c.32.26.63.53.93.83.31.3.59.6.84.91.25.31.45.62.6.93.15.31.23.61.23.89l-.08.43-.29.32-.57.2c-.24.05-.55.07-.93.07h-2.73v1.44h2.91c.63,0,1.15-.08,1.56-.25.41-.17.73-.4.96-.7l.45.37.55.31.68.2c.26.05.54.07.86.07h.08Z"/>
    <rect class="st0" x="175.31" y="19.19" width="1.44" height="11.49"/>
    <polygon class="st0" points="190.97 20.82 190.64 20.76 190.31 20.82 190.04 21.01 189.86 21.28 189.8 21.62 190.04 22.22 190.64 22.46 190.97 22.39 191.25 22.21 191.43 21.95 191.49 21.62 191.43 21.28 191.25 21.01 190.97 20.82"/>
    <polygon class="st0" points="188.69 20.82 188.36 20.76 188.03 20.82 187.76 21.01 187.58 21.28 187.52 21.62 187.76 22.22 188.36 22.46 188.69 22.39 188.97 22.21 189.15 21.95 189.22 21.62 189.15 21.28 188.97 21.01 188.69 20.82"/>
    <polygon class="st0" points="209.58 33.84 209.85 33.66 210.03 33.39 210.1 33.06 210.03 32.73 209.85 32.46 209.58 32.28 209.24 32.21 208.91 32.28 208.65 32.46 208.46 32.73 208.4 33.06 208.64 33.67 209.24 33.91 209.58 33.84"/>
    <polygon class="st0" points="211.52 33.91 211.85 33.84 212.13 33.66 212.31 33.39 212.38 33.06 212.31 32.73 212.13 32.46 211.85 32.28 211.52 32.21 211.19 32.28 210.92 32.46 210.74 32.73 210.68 33.06 210.92 33.67 211.52 33.91"/>
    <polygon class="st0" points="224.58 32.28 224.25 32.21 223.92 32.28 223.65 32.46 223.47 32.73 223.4 33.06 223.64 33.67 224.25 33.91 224.58 33.84 224.85 33.66 225.04 33.39 225.11 33.06 225.04 32.73 224.85 32.46 224.58 32.28"/>
    <path class="st0" d="M224.96,30.66v-6.18h-1.44v4.74h-10.3c-.46,0-.85-.04-1.17-.12-.33-.08-.61-.21-.85-.37v-4.24h-1.44v3.83c0,.3-.05.53-.15.68l-.4.23h-11.82c-.45,0-.84-.04-1.17-.12-.33-.08-.61-.21-.86-.38v-4.23h-1.44v3.83c0,.3-.05.53-.15.68l-.4.23h-5.39c-.86,0-1.54-.03-2.04-.1-.5-.07-.89-.17-1.15-.32l-.52-.55c-.08-.23-.12-.5-.12-.82l.04-.56.08-.56-1.36-.13-.06.39-.05.43-.03.41v.35s.04.77.04.77l.22.69.45.59c.2.18.46.33.78.46.32.13.71.23,1.17.3.47.07,1.02.1,1.66.1h6.57c.35,0,.63-.07.86-.22l.53-.54c.26.22.57.4.94.54.37.14.83.22,1.39.22h12.13c.34,0,.62-.07.85-.22l.53-.54c.26.22.58.4.94.54.37.14.83.22,1.38.22h11.76Z"/>
  </g>
  <g>
    <path class="st0" d="M170.3,157.73c.24,3.01-2.41,5.6-5.35,5.4-2.57-.18-4.56-2.21-4.73-4.74-.2-3.08,2.64-5.81,5.95-5.22,2.17.39,3.94,2.21,4.12,4.56"/>
    <path class="st0" d="M157.99,157.61c.35,3.24-2.58,5.96-5.71,5.5-2.62-.39-4.42-2.69-4.34-5.14.08-2.64,2.22-4.72,4.77-4.85,2.59-.14,4.98,1.72,5.27,4.49"/>
    <path class="st0" d="M330.36,126.24v.28l-2.6-1.72c-2.04-1.12-4.68-1.91-6.93-1.69-2.92.28-4.88,1.3-7.13,3.09-.78.62-1.37,1.26-2.03,2.04l-11.21,13.31c-2.79,3.32-7.32,7.95-11.7,8.08l-4.01.11h-16.44s-4.51-.14-4.51-.14c-.6-.11-1.03-.97-1.39-1.35l-1.66-1.74-1.67-2.01-1.28,1.16c-1.84,1.68-5.01,3.87-7.35,3.94l-4.51.13h-16.3s-4.64-.06-4.64-.06l-1.67-1.76-3.04-3.43c-2.21,2.38-5.83,5.06-8.88,5.14l-4.14.11h-16.3s-4.14-.05-4.14-.05c-.58,0-.85-.29-1.19-.66l-1.68-1.81-2.32-2.73c-2.35,2.32-5.73,5.05-9.03,5.14l-4.01.11h-16.44s-4.56-.08-4.56-.08c-.57-.26-.95-.97-1.36-1.4l-2.1-2.23-1.69-2.01-1.08.97c-2.92,2.63-4.86,4.03-8.79,4.47l-1.52.17h-5.62c-7.45-.53-14.71-3.55-19.65-9.21-2.03-2.33-3.86-4.63-5.34-7.36-1.74-3.23-2.79-6.62-3.05-10.31v-4.25c.34-4.24,1.65-8.25,3.71-11.88h.14c-.43,2.36-.7,4.73-.51,7.19.54,6.8,3.39,12.69,7.99,17.67.7.75,1.33,1.41,2.11,2.09l1.12.98c3.17,2.77,7,4.65,11.24,5.04,6.05.56,12.01-2.68,15.88-7.19l5.09-5.94,1.18-1.33,1.35-1.45,3.41-3.4c1.22-1.22,2.55-2.22,4.05-3.07,1.77-1,3.63-1.46,5.66-1.63,2.31-.19,4.59.45,6.59,1.67,2.04,1.24,3.83,2.74,5.24,4.65l3.06,4.12c.22.16-.03.38-.16.16l-.98-.76c-1.82-1.4-3.95-2.27-6.28-2.48l-1.38-.12-1.14.11c-3.14.3-6.32,2.26-8.34,4.64l-12.52,14.8c-.12.14.03.3.21.18l20.07.03c.55,0,.91.15,1.46.06,1.03-.18,2-.39,2.98-.83,2.6-1.18,4.67-3.02,6.52-5.19l6.09-7.15,4.03-4.62,2.11-2.2,1-.98c1.63-1.6,3.31-3.13,5.33-4.26,1.71-.96,3.53-1.36,5.46-1.55,3.36-.33,7.28,1.48,9.5,3.77l1.87,1.92c1.4,1.44,2.51,3.06,3.64,4.77.09.18-.12.29-.23.08-1.56-1.21-3.22-2.15-5.09-2.75l-2.84-.53c-.5-.09-.88-.02-1.36.02-2.73.22-5.06,1.32-7.12,3.1-.8.55-1.35,1.2-1.98,1.95l-12.13,14.38,19.54.03c.51,0,.84.17,1.35.05l2.18-.5c2.39-.89,4.4-2.34,6.12-4.2l1.56-1.68,8.22-9.6.99-1.11,1.25-1.4,3.71-3.67c1.08-1.07,2.24-1.96,3.52-2.76,1.83-1.14,3.82-1.67,5.97-1.86,2.36-.21,4.69.43,6.73,1.67,2.04,1.25,3.83,2.74,5.24,4.65l3.06,4.12c.22.16-.04.39-.17.15-2.23-1.84-4.82-3.05-7.67-3.29-.68-.06-1.19-.15-1.84-.02l-2.26.43c-2.52.85-4.68,2.28-6.42,4.35l-12.38,14.63,19.49.03c.47,0,.9.31,1.36.01,2.99-.14,6.66-2.66,8.6-4.88l.8-.91,8.29-9.67,1.45-1.63,1.62-1.75,2.92-2.93c1.28-1.28,2.66-2.38,4.23-3.29,3.94-2.27,9.18-2.39,12.94.36l1.62,1.19,2.91,2.92c1.23,1.45,2.38,2.86,3.34,4.6-5.5-4.31-11.46-4.87-16.81-.35-1.14.96-2.01,2.02-2.98,3.18l-11.05,13.12,19.58.02c.42,0,.81.32,1.22,0,3.79-.23,7.2-3.12,9.62-5.97l6.93-8.12,3.13-3.58,2.17-2.27.86-.84c1.69-1.65,3.39-3.24,5.47-4.4,1.71-.96,3.53-1.36,5.46-1.55,3.36-.33,7.28,1.48,9.5,3.77l1.87,1.92c1.41,1.45,2.55,3.08,3.65,4.72"/>
    <path class="st0" d="M18.06,127.47l-10.76.04c.24.55.18,1.03-.14,1.43-.79,1-2.39.83-4.01.73-1.18-.07-2.29-.8-2.28-2.05l.02-1.7c.02-.21.76-.18.77.06l.08,1.77c.03.62.77,1.08,1.4,1.09h2.59c.46.02.76-.27.85-.62.11-.43-.09-.84-.55-1.01l-1.3-.5.39-.76c.64.19,1.31.66,2.07.66l10.8.03c.33-.18.46-.77.46-1.08v-2.24s2.04.04,2.04.04c1.29.03,2.05,1.18,1.86,2.48-.03.22.03.49.14.62.32.38,1.53.28,1.53-.23l.02-4.84c.29-.05.53-.05.84,0v4.72c0,.31.24.56.55.56h1.68s-.57-1.27-.57-1.27c-.17-.38-.48-.99-.11-1.38.46-.47,1.26-.67,1.93-.7.95-.05,1.74.62,1.83,1.51.07.73-.1,1.31-.59,1.81h1.85c.18,0,.27-.36.27-.54v-4.72c.31-.04.53-.04.84,0l-.02,4.85c0,.52-.41,1.21-.99,1.22l-5.84.06c-.48,0-.93-.21-1.26-.45-.67.65-2.07.66-2.6-.16-.45.27-.98.64-1.52.61-.6-.03-1.02-.23-1.41-.76-.22.23-.48.69-.87.69M21.02,124.43c-.53-.38-1.23-.34-1.74-.22.06.71-.14,1.36.11,1.95.3.71,1.42.65,1.85.15.45-.51.43-1.42-.22-1.88M27.94,126.64c.57-.02.97-.38,1.2-.72.26-.38.33-1.02.09-1.37-.37-.54-1.01-.45-1.59-.27-1.06.33-.25.51.3,2.35"/>
    <path class="st0" d="M65.38,127.43c-1.31-.02-1.56-2.83-1.15-3.21.14-.13.68-.14.69.04l.06,1.65c.02.44.34.75.81.75h3.62c.27-.01.41-.45.41-.7l.03-2.54c0-.21.76-.17.77.06l.05,2.63c0,.21.18.54.45.54l8.45-.02c.24-.09.33-.59.33-.8v-1.65c.21-.11.77-.08.77.13l.05,1.79c0,.32.24.56.56.56h4.74s-.02-1.38-.02-1.38c-.01-.69-.81-1.13-1.49-1.14l-1.92-.05c-.22-.12-.35-.55-.46-.8l1.78-2.53.67.49-1.48,2.05,1.77.06c1.15.04,2.01,1,2.02,2.18v1.11s1.39-.01,1.39-.01c.22,0,.4-.34.4-.56l.02-2.76,1.91.03c.93.01,1.61.56,1.87,1.3.32.9.12,1.77-.61,2.41-.8.71-2.07.58-2.68-.26-.2.35-.55.66-.95.66l-6.67.04c-.51,0-.88-.08-1.26-.47-.2.16-.44.45-.72.45h-8.49c-.35.01-.57-.24-.85-.43-.2.13-.45.44-.71.43l-4.15-.06ZM91.16,124.37c-.5-.28-1.08-.26-1.64-.19l.06,1.87c.15.54.8.68,1.24.61.51-.09.85-.46.93-.92.09-.55,0-1.03-.58-1.37"/>
    <path class="st0" d="M60.44,126.08l.05-2.6c.28-.04.52-.05.83,0l-.04,2.73c-.01.71-.68,1.12-1.19,1.25-.73.18-1.29-.01-1.78-.52-.7.7-1.73.83-2.43.1-.47.54-1.04.47-1.68.47-.62,0-1.19.08-1.62-.43-.22.16-.4.35-.63.43l-9.02-.05c-.05.91.09,1.72-.73,1.71l-2.51-.02c-1.26-.01-2.05-1.79-1.81-3.44h.84c-.11,1.37.1,2.65,1.24,2.64h2.1s.01-4.85.01-4.85c.2-.11.77-.07.78.13l.05,2.48c0,.32.24.56.57.56h7.96c.45,0,.71-.22.71-.7v-1.79s.82,0,.82,0v1.8c0,.24.15.67.42.67l1.91-.03.05-2.3c.31-.04.53-.04.84,0l.03,1.76c0,.5.61.65.99.59.5-.07.78-.42.78-1v-1.36h.7v1.36c.02.53.25.86.68.97.41.11,1.1-.02,1.11-.56"/>
    <path class="st0" d="M34.8,127.43c-.29.11-.54.09-.86.03l.05-5.94c0-.19.64-.24.79-.13l.02,6.04Z"/>
    <path class="st0" d="M3.56,130.17c.33-.11.5.12.59.39.09.26-.08.54-.36.65-.26.1-.55-.1-.65-.36-.1-.26.1-.57.42-.67"/>
    <path class="st0" d="M52.83,128.38c.24-.13.61-.09.74.08.14.18.14.62-.06.77-.19.14-.62.14-.77-.06-.14-.19-.15-.65.1-.79"/>
    <path class="st0" d="M40.24,123.37c.3-.11.56.15.64.36.1.27-.1.55-.36.65-.24.09-.47-.06-.61-.27-.15-.23-.06-.6.33-.74"/>
    <path class="st0" d="M4.82,130.19c.26-.11.55.05.68.27.14.23-.06.51-.27.65-.26.18-.57.03-.68-.15-.18-.3-.02-.65.27-.78"/>
    <path class="st0" d="M67.32,128.4c.31-.18.61-.03.77.21.14.22.03.5-.22.63-.23.13-.5.1-.71-.12-.17-.18-.21-.51.16-.71"/>
    <path class="st0" d="M80.58,122.43c.29-.22.58-.03.72.11.19.21.13.54-.04.7-.19.17-.54.12-.68.01-.19-.15-.23-.64,0-.82"/>
    <path class="st0" d="M79.34,122.41c.3-.17.6-.06.67.17.08.26.06.62-.2.72-.2.08-.5.09-.65-.14-.13-.2-.18-.54.19-.75"/>
    <path class="st0" d="M51.55,128.4c.29-.17.59-.07.67.16.08.23.08.61-.2.73-.18.08-.45.02-.63-.17-.17-.18-.21-.5.16-.72"/>
    <path class="st0" d="M126.51,125.62c-2.83.89-5.72-.97-6.31-3.73-.62-2.84,1.36-5.64,4.31-6.03,2.61-.35,4.97,1.41,5.52,3.9.55,2.49-.91,5.04-3.52,5.86"/>
    <path class="st0" d="M68.07,135.29c.76.4,1.15,1.11,1.01,1.81-.14.71-.7,1.35-1.52,1.36l-3.18.04v-6.13s3.1.08,3.1.08c.69.02,1.16.52,1.31,1.04.2.71.02,1.24-.72,1.8M67.22,134.98c.53-.01.71-.6.66-.98-.04-.34-.27-.76-.72-.76l-1.93-.02v1.81s1.99-.04,1.99-.04ZM67.17,137.75c.69-.02,1-.54.95-1.09-.05-.52-.43-.87-1.01-.89l-1.89-.04v2.08s1.94-.05,1.94-.05Z"/>
    <path class="st0" d="M26.73,138.36c-1.33.6-3.08.33-3.78-1.04-.09-.17.43-.5.64-.48.67.95,1.94,1.3,2.92.66.22-.15.33-.52.32-.73-.02-.23-.26-.56-.57-.65l-1.93-.55c-.64-.18-1.06-.57-1.22-1.14-.18-.61.04-1.29.62-1.7,1.65-1.17,3.95.05,3.78.79-.05.2-.41.51-.58.32-.63-.72-1.66-.96-2.49-.53-.33.17-.43.49-.41.78.04.39.28.57.69.68l2.03.58c.72.21.96.79.96,1.47,0,.71-.25,1.21-.97,1.54"/>
    <path class="st0" d="M4.43,137.87c-1.23,1.28-3.49,1-4.41-.49-.15-.25.49-.65.64-.49.65,1,2.15,1.32,3.06.46.2-.19.08-.8-.06-.99-.54-.72-3.85-.33-3.5-2.63.07-.45.35-.91.89-1.17,1.8-.86,3.68.38,3.55.98-.03.16-.26.25-.39.31-.25.11-.34-.08-.54-.26-.68-.62-1.82-.7-2.48-.07-.17.16-.08.61-.04.82.04.2.33.36.63.44l1.85.51c.51.14.91.53,1.03.9.16.52.21,1.19-.24,1.67"/>
    <path class="st0" d="M7.49,137.85c.72.14,1.36-.19,1.88-.63.21.1.38.37.37.53-.28.47-.76.71-1.27.82-1.06.24-2.08-.07-2.65-.93-.55-.84-.5-1.99.12-2.77.66-.82,1.8-1.08,2.83-.64.89.38,1.29,1.35,1.14,2.31h-3.46c-.1.66.32,1.16,1.04,1.3M9.09,135.99c-.06-.76-.62-1.28-1.33-1.27-.66.01-1.37.51-1.35,1.26h2.67Z"/>
    <path class="st0" d="M12.66,137.85c.68.13,1.31-.15,1.8-.58l.49.46c-.36.51-.77.72-1.31.85-1.05.24-2.08-.07-2.64-.93-.55-.84-.5-1.99.12-2.77.66-.82,1.8-1.08,2.83-.64.89.38,1.29,1.35,1.14,2.31h-3.46c-.1.66.32,1.16,1.04,1.3M14.25,135.99c-.06-.77-.63-1.28-1.32-1.27-.71.02-1.38.47-1.34,1.27h2.66Z"/>
    <path class="st0" d="M36.33,136.56c.05.73.52,1.14,1.16,1.29.58.13,1.25-.07,1.68-.58.22-.03.45.24.63.48-.8.92-2.28,1.25-3.35.51-1.1-.76-1.28-2.19-.61-3.23.67-1.03,2.11-1.34,3.23-.62.67.42.91,1.36.88,2.14h-3.62ZM38.99,135.98c.03-.81-.5-1.23-1.13-1.25-.81-.02-1.42.47-1.55,1.27l2.67-.02Z"/>
    <path class="st0" d="M82.17,137.31c.2-.18.69.36.46.59-.94.95-2.52,1.02-3.54.13-.64-.57-.7-1.49-.58-2.32.12-.85.88-1.41,1.54-1.59.91-.25,1.86-.03,2.42.67.39.49.46,1.16.35,1.75l-3.52.02c.03.67.52,1.08,1.07,1.27.6.21,1.24,0,1.8-.52M82.02,135.93c-.08-.89-.57-1.15-1.16-1.2-.81-.09-1.51.44-1.55,1.26l2.72-.07Z"/>
    <path class="st0" d="M91.47,134.22c.34-.07.63-.06.98-.02v4.25c-.27.08-.52.07-.76.05-.15-.01-.26-.23-.29-.41-.56.51-1.28.75-1.96.43-.52-.24-1.04-.85-1.04-1.55v-2.78s.97,0,.97,0l.07,2.99c.01.47.72.68,1.1.61.35-.07.92-.35.92-.82v-2.77Z"/>
    <path class="st0" d="M84.78,135.91l1.69-.11c.36-.02.03-.88-.38-.99-.67-.17-1.26-.02-1.72.53-.2-.1-.4-.29-.45-.47.39-.61,1.05-.88,1.77-.85.57.02,1.51.3,1.66,1.05l.1,3.38c-.27.08-.5.07-.63.02-.11-.04-.11-.35-.12-.55-.64.7-1.67.96-2.49.46-.53-.32-.68-.9-.6-1.4.09-.59.51-.9,1.19-1.09M86.56,136.42l-1.45.04c-.52.02-.72.55-.6.97.12.4.48.58.95.51.39-.05.76-.18.92-.43.22-.33.26-.69.18-1.1"/>
    <path class="st0" d="M17.13,135.43l-.09,3.05h-.97s0-4.26,0-4.26c.26-.08.44-.07.64-.05.19.01.25.28.23.59.46-.59,1.06-.83,1.83-.71.56.09,1.27.71,1.29,1.45l.06,2.98h-.98s-.02-2.78-.02-2.78c0-.41-.49-.76-.78-.82-.39-.08-1.2.01-1.22.55"/>
    <path class="st0" d="M73.18,134.23c.33-.08.63-.06.98-.02v4.26c-.26.08-.54.07-.76.05-.15-.01-.26-.22-.29-.41-.56.51-1.28.75-1.96.43-.52-.24-1.04-.85-1.04-1.55v-2.78c.31-.04.54-.04.84,0l.04,2.43c.01.61.34,1.06.89,1.17.42.08,1.24-.18,1.25-.71l.05-2.87Z"/>
    <path class="st0" d="M41.79,135.95l-.02,2.53c-.31.05-.53.05-.84,0l.03-4.29c.33-.03.57-.05.72.02.12.05.12.33.14.56.46-.56.94-.87,1.69-.71.45.09,1.29.47,1.3,1.11l.06,3.31c-.34.05-.54.04-.85,0v-2.49c0-.65-.47-1.15-1.04-1.14-.6,0-1.17.33-1.17,1.09"/>
    <path class="st0" d="M58.08,136.51c.05.7.53,1.21,1.09,1.29.62.09,1.24-.15,1.55-.72l.66.48c-.41.72-1.19,1.09-1.95,1.09-.81,0-1.52-.33-1.95-1.07-.64-1.11-.43-2.46.59-3.22.95-.7,2.52-.56,3.22.56.14.23-.48.61-.62.46-.5-.53-1.08-.8-1.7-.55-.69.28-.96.77-.9,1.67"/>
    <path class="st0" d="M29.35,136.09c-.1.72.28,1.46.82,1.65.71.25,1.43.04,1.83-.61.31.1.51.28.67.47-.56.75-1.27,1.13-2.15,1.06-.77-.06-1.63-.51-1.91-1.38-.17-.54-.2-1.22-.05-1.77.24-.89,1.08-1.41,1.9-1.53.89-.13,1.83.37,2.25,1.09-.3.21-.44.33-.73.42-.31-.55-.96-.82-1.52-.68-.54.13-1.02.58-1.11,1.29"/>
    <path class="st0" d="M53.22,134.89v3.6s-.98,0-.98,0v-3.59s-.97-.02-.97-.02v-.68l.99-.02c-.09-.57-.03-1.03.31-1.39.6-.65,1.85-.42,1.88-.33.05.17.03.38.03.56,0,.43-1.02,0-1.2.34-.1.18-.1.45-.06.79.37.12.78.04,1.24.05v.69s-1.24.01-1.24.01Z"/>
    <path class="st0" d="M48.55,137.72c.25.01.28.55.16.77l-1.5.02c-.41,0-.7-.29-.7-.7v-2.91s-.97-.02-.97-.02v-.68h.97s0-1.38,0-1.38h.83v1.37s1.39,0,1.39,0v.69h-1.39s0,2.79,0,2.79l1.2.05Z"/>
    <path class="st0" d="M76.26,138.46c-.29.08-.54.07-.85.02l.03-4.28c.31-.03.59-.04.72.01.12.05.12.34.14.57.45-.59,1.01-.89,1.76-.7.02.27.04.5-.03.84-.79-.21-1.76.22-1.76,1.08v2.47Z"/>
    <path class="st0" d="M34.52,138.46c-.34.08-.64.06-.99.02v-4.28s.98,0,.98,0v4.26Z"/>
    <path class="st0" d="M50.57,138.46c-.34.08-.64.06-.99.02v-4.28s.98,0,.98,0v4.26Z"/>
    <path class="st0" d="M56.16,138.46c-.34.08-.64.06-.99.02v-4.28s.98,0,.98,0v4.26Z"/>
    <path class="st0" d="M55.58,132.17c.3-.06.54.23.61.41.11.28-.17.62-.3.61-.41.13-.65-.04-.71-.22-.1-.36,0-.72.4-.81"/>
    <path class="st0" d="M33.94,132.17c.34-.08.55.23.57.41.05.4-.07.63-.49.65-.19.01-.49-.13-.57-.41-.06-.21.12-.57.48-.65"/>
    <path class="st0" d="M50,132.17c.36-.07.56.24.58.44.04.34-.09.6-.38.62-.36.03-.59-.07-.63-.37-.04-.28.04-.61.43-.68"/>
  </g>
</svg>