<?xml version="1.0" encoding="UTF-8"?>
<svg id="Layer_1" xmlns="http://www.w3.org/2000/svg" version="1.1" viewBox="0 0 246.47 73.62">
  <!-- Generator: Adobe Illustrator 30.6.0, SVG Export Plug-In . SVG Version: 2.1.4 Build 109)  -->
  <defs>
    <style>
      .st0 {
        fill: #fff;
      }
    </style>
  </defs>
  <polygon class="st0" points="202.85 62.1 185.25 62.1 185.25 72.08 202.85 72.08 220.45 72.08 238.05 72.08 238.05 62.1 220.45 62.1 202.85 62.1"/>
  <polygon class="st0" points="216.9 36.68 195.82 36.68 195.82 26.11 211.09 14.39 227.47 26.11 238.05 26.11 238.05 20.67 210.9 1.26 185.25 20.76 185.25 47.25 216.9 47.25 216.9 36.68"/>
  <polygon class="st0" points="238.05 36.68 238.05 28.68 227.47 28.68 227.47 36.68 219.48 36.68 219.48 47.25 227.47 47.25 227.47 54.82 238.05 54.82 238.05 47.25 246.47 47.25 246.47 36.68 238.05 36.68"/>
  <path class="st0" d="M6.65,48.82c-.24-.24-.51-.42-.84-.56-.33-.14-.68-.23-1.07-.26v-.03c.72-.19,1.3-.49,1.72-.91.43-.43.64-1.03.64-1.81,0-.52-.1-.97-.29-1.33-.2-.37-.47-.67-.82-.9-.36-.23-.78-.39-1.27-.5-.49-.1-1.03-.16-1.63-.16H0v11.42h3.04c.58,0,1.13-.04,1.66-.13.52-.09.99-.24,1.39-.47.4-.23.71-.53.95-.93.24-.39.35-.9.35-1.51,0-.4-.07-.76-.2-1.08-.13-.32-.31-.61-.55-.84M1.64,43.71h1.72l.73.07.68.27.5.52c.13.22.2.49.2.83,0,.42-.08.75-.24,1l-.64.55c-.27.12-.58.2-.93.23-.36.04-.73.05-1.12.05h-.89v-3.54ZM5.44,51.53l-.62.56c-.26.13-.56.23-.89.28-.34.05-.7.08-1.06.08h-1.22v-3.86h1.06c.35,0,.7.02,1.05.06.35.05.67.14.96.28l.69.61c.18.27.26.62.26,1.06,0,.38-.08.69-.23.93"/>
  <path class="st0" d="M11.21,53.84c.37.1.79.15,1.24.15.34,0,.66-.05.94-.13l.74-.32.55-.42.36-.42h.03v1.08h1.44l-.05-.55c0-.24-.02-.61-.02-1.08v-3.45c0-1.14-.26-2-.78-2.58-.52-.58-1.38-.87-2.57-.87-.53,0-1.03.07-1.49.22-.46.14-.88.33-1.26.56l.08,1.31c.32-.26.69-.47,1.12-.62.43-.15.86-.23,1.3-.23.78,0,1.32.18,1.61.55.3.36.45.9.45,1.62l-.43-.02h-.38s-.81,0-.81,0c-.4,0-.83.05-1.28.14-.46.09-.88.24-1.27.46l-.53.37-.42.47-.28.59-.1.72c0,.46.07.85.22,1.18.15.33.36.6.63.81.27.21.6.37.97.47M11.36,50.51c.22-.22.49-.38.8-.48.32-.12.64-.19.96-.21l.45-.03h.36s.49,0,.49,0l.49.02v.73c0,.62-.2,1.14-.59,1.57-.39.42-.97.63-1.73.63l-.54-.09-.5-.26-.37-.42-.14-.58c0-.37.11-.66.34-.88"/>
  <rect class="st0" x="19.14" y="41.85" width="1.73" height="1.73"/>
  <rect class="st0" x="19.23" y="45.45" width="1.54" height="8.34"/>
  <path class="st0" d="M27.55,53.91l.6-.15v-1.31l-.43.2-.62.09c-.34,0-.64-.12-.91-.37-.25-.25-.38-.62-.38-1.11v-4.57h2.21v-1.24h-2.21v-2.43l-1.53.49v1.93h-1.89v1.24h1.89v4.87c0,.83.23,1.45.69,1.84.45.39,1.08.58,1.88.58l.71-.07Z"/>
  <path class="st0" d="M39.98,42.37h-1.72l-4.87,11.42h1.72l1.16-2.87h5.59l1.16,2.87h1.78l-4.83-11.42ZM36.79,49.57l2.27-5.66,2.28,5.66h-4.55Z"/>
  <rect class="st0" x="46.5" y="41.52" width="1.54" height="12.27"/>
  <path class="st0" d="M63.13,43.86c-.55-.48-1.2-.85-1.93-1.1-.74-.26-1.53-.38-2.38-.38h-3.37v11.42h3.37c.94,0,1.78-.13,2.53-.37.75-.25,1.39-.61,1.92-1.1.52-.48.93-1.09,1.22-1.82.28-.73.42-1.57.42-2.53,0-.88-.16-1.66-.48-2.36-.32-.7-.75-1.28-1.3-1.77M62.89,49.96c-.19.54-.47.99-.84,1.34-.37.35-.83.62-1.37.79-.54.17-1.17.26-1.87.26h-1.72v-8.55h1.91c.59,0,1.14.1,1.65.29.51.19.95.47,1.33.83.38.36.67.81.89,1.33.21.52.32,1.12.32,1.79,0,.74-.1,1.37-.29,1.91"/>
  <path class="st0" d="M73.71,52.15v-3.45c0-1.14-.26-2-.79-2.58-.51-.58-1.37-.87-2.57-.87-.53,0-1.03.08-1.48.22-.46.14-.88.34-1.26.56l.08,1.31c.32-.26.69-.47,1.12-.62.43-.15.86-.23,1.3-.23.77,0,1.31.18,1.61.55.3.36.45.9.45,1.62l-.43-.02h-.38s-.82,0-.82,0c-.4,0-.82.05-1.28.14-.46.09-.88.24-1.26.46l-.54.37-.43.47-.28.59-.1.72c0,.46.08.85.23,1.18.15.33.36.6.63.81.27.22.6.37.97.47.37.1.79.15,1.23.15.35,0,.66-.04.94-.13l.74-.32.54-.41.36-.42h.03v1.08h1.44l-.05-.55c-.01-.25-.02-.61-.02-1.09M72.17,50.55c0,.62-.2,1.14-.59,1.56-.39.42-.96.63-1.73.63l-.54-.09-.5-.26-.37-.42-.14-.58c0-.37.11-.66.34-.88.22-.22.49-.38.8-.48.32-.12.64-.18.96-.21l.45-.03h.36s.49,0,.49,0l.49.02v.73Z"/>
  <polygon class="st0" points="84.9 52.35 84.87 52.35 82.78 45.45 80.96 45.45 78.83 52.35 78.8 52.35 76.89 45.45 75.21 45.45 77.88 53.79 79.67 53.79 81.78 46.79 81.81 46.79 83.97 53.79 85.76 53.79 88.43 45.45 86.93 45.45 84.9 52.35"/>
  <path class="st0" d="M96.44,52.15v-3.45c0-1.14-.26-2-.79-2.58-.51-.58-1.37-.87-2.57-.87-.53,0-1.03.08-1.48.22-.46.14-.88.34-1.26.56l.08,1.31c.32-.26.69-.47,1.12-.62.43-.15.86-.23,1.3-.23.77,0,1.31.18,1.61.55.3.36.45.9.45,1.62l-.43-.02h-.38s-.82,0-.82,0c-.4,0-.82.05-1.28.14-.46.09-.88.24-1.26.46l-.54.37-.43.47-.28.59-.1.72c0,.46.07.85.22,1.18.15.33.36.6.63.81.27.22.6.37.97.47.37.1.79.15,1.23.15.35,0,.66-.04.94-.13l.74-.32.55-.41.36-.42h.03v1.08h1.44l-.05-.55c-.01-.25-.02-.61-.02-1.09M94.9,50.55c0,.62-.2,1.14-.59,1.56-.39.42-.96.63-1.72.63l-.54-.09-.5-.26-.37-.42-.14-.58c0-.37.11-.66.34-.88.22-.22.49-.38.8-.48.32-.12.64-.18.96-.21l.45-.03h.36s.49,0,.49,0l.49.02v.73Z"/>
  <path class="st0" d="M108.93,48.45l-.79-.68c-.3-.19-.59-.36-.9-.51-.42-.19-.81-.39-1.18-.58-.37-.2-.67-.41-.91-.65-.24-.23-.36-.53-.36-.91l.18-.73.47-.47.64-.25.7-.07.58.03.5.09.5.15.56.21.23-1.51c-.4-.14-.81-.25-1.23-.31-.42-.06-.83-.1-1.21-.1-.51,0-.99.07-1.43.2-.45.14-.83.34-1.17.6-.33.26-.59.59-.78.98-.19.39-.28.84-.28,1.34,0,.44.07.83.21,1.14.14.32.32.6.55.84l.79.62c.29.17.6.33.9.48.31.15.61.29.9.43l.79.47.55.6c.14.23.21.5.21.82s-.07.62-.22.86l-.55.57-.73.33-.74.1-.65-.06-.64-.14-.59-.18-.49-.17-.16,1.51c.38.12.77.23,1.15.33.39.1.79.15,1.19.15.56,0,1.1-.07,1.61-.19.5-.13.95-.33,1.33-.6.38-.27.68-.62.9-1.06.22-.43.33-.95.33-1.55,0-.47-.07-.88-.21-1.23-.14-.34-.32-.65-.55-.91"/>
  <path class="st0" d="M116.34,52.62l-.84.13c-.49,0-.92-.1-1.27-.28-.35-.19-.64-.43-.86-.73-.23-.3-.39-.64-.49-1.01-.11-.37-.15-.74-.15-1.11,0-.4.06-.79.18-1.16.12-.37.29-.71.52-1,.23-.29.51-.53.84-.7.33-.17.71-.26,1.13-.26l.81.09.87.27.13-1.28c-.2-.09-.49-.16-.86-.22-.34-.07-.68-.1-1.01-.1-.64,0-1.22.11-1.74.33-.52.22-.96.52-1.34.9-.37.39-.66.85-.86,1.38-.2.53-.31,1.12-.31,1.75,0,.6.1,1.16.31,1.69.21.53.5.99.88,1.39.37.4.82.71,1.34.94.52.23,1.09.35,1.72.35.29,0,.6-.02.94-.06.34-.04.67-.13.99-.28l-.11-1.37-.81.35Z"/>
  <rect class="st0" x="119.12" y="41.85" width="1.73" height="1.73"/>
  <rect class="st0" x="119.22" y="45.45" width="1.54" height="8.34"/>
  <path class="st0" d="M130.42,48.1c-.12-.58-.33-1.07-.61-1.5-.28-.42-.66-.75-1.13-1-.47-.24-1.06-.36-1.75-.36-.59,0-1.12.1-1.61.31-.48.21-.89.5-1.23.88-.34.37-.61.82-.8,1.34-.18.52-.28,1.08-.28,1.69,0,.68.09,1.29.26,1.85.17.55.44,1.03.79,1.43.36.39.8.7,1.35.92.54.22,1.18.33,1.92.33.34,0,.64-.02.9-.06l.7-.14.55-.18.48-.17v-1.54l-.42.26-.62.27-.74.21-.78.09c-.36,0-.71-.07-1.04-.21-.33-.13-.63-.33-.88-.57-.25-.25-.45-.54-.61-.88-.15-.34-.22-.71-.22-1.12h5.95c0-.67-.06-1.29-.18-1.86M124.65,48.81l.19-.81.41-.75.67-.54c.27-.14.6-.21.98-.21.33,0,.62.06.88.18l.65.5.41.73c.09.28.14.58.14.9h-4.32Z"/>
  <path class="st0" d="M136.92,45.25c-.59,0-1.13.13-1.64.4-.49.26-.86.63-1.09,1.12h-.03v-1.32h-1.49v8.34h1.53v-3.86c0-.51.05-.97.15-1.39.1-.42.25-.78.46-1.09.21-.3.47-.54.79-.7.32-.17.7-.25,1.15-.25.67.04,1.14.3,1.39.78.25.49.37,1.21.37,2.19v4.32h1.54v-4.96c0-1.12-.25-2-.75-2.63-.51-.63-1.3-.95-2.37-.95"/>
  <path class="st0" d="M146.18,52.74c-.34,0-.65-.13-.91-.38-.25-.24-.38-.61-.38-1.11v-4.57h2.21v-1.24h-2.21v-2.43l-1.53.5v1.93h-1.89v1.24h1.89v4.87c0,.84.23,1.45.69,1.85.45.39,1.08.58,1.88.58l.71-.07.6-.16v-1.31l-.43.21-.62.09Z"/>
  <rect class="st0" x="149.12" y="41.85" width="1.73" height="1.73"/>
  <rect class="st0" x="149.22" y="45.45" width="1.54" height="8.34"/>
  <path class="st0" d="M157.37,41.32c-.58,0-1.04.08-1.41.24-.36.16-.65.39-.85.68-.21.29-.35.65-.43,1.06-.07.41-.11.87-.11,1.38v.77h-1.96v1.24h1.96v7.1h1.53v-7.1h2.21v-1.24h-2.21v-.9l.05-.79.2-.63.46-.42c.19-.1.46-.15.79-.15l.39.02.34.07.06-1.24-.49-.07-.54-.04Z"/>
  <rect class="st0" x="160.13" y="45.45" width="1.54" height="8.34"/>
  <rect class="st0" x="160.03" y="41.85" width="1.73" height="1.73"/>
  <path class="st0" d="M169.06,52.62l-.84.13c-.49,0-.92-.09-1.27-.28-.35-.19-.64-.43-.86-.73-.22-.3-.39-.63-.49-1.01-.11-.37-.15-.74-.15-1.11,0-.4.06-.78.18-1.16.12-.37.3-.71.52-1,.23-.29.51-.53.84-.7.33-.18.71-.27,1.13-.27l.81.09.86.27.13-1.28c-.2-.09-.49-.16-.86-.22-.34-.07-.68-.1-1.01-.1-.64,0-1.22.11-1.74.33-.52.22-.97.52-1.34.91-.37.38-.66.84-.86,1.38-.21.53-.31,1.12-.31,1.75,0,.6.1,1.16.31,1.69.21.53.5.99.88,1.39.37.4.82.71,1.34.94.52.23,1.09.35,1.72.35.29,0,.6-.02.94-.06.34-.04.67-.13.99-.28l-.11-1.37-.81.35Z"/>
  <path class="st0" d="M6.65,68.45c-.24-.24-.51-.42-.84-.56-.33-.14-.68-.22-1.07-.26v-.03c.72-.19,1.3-.49,1.72-.91.43-.43.64-1.03.64-1.81,0-.52-.1-.97-.29-1.33-.2-.37-.47-.67-.82-.9-.36-.23-.78-.39-1.27-.5-.49-.1-1.03-.16-1.63-.16H0v11.42h3.04c.58,0,1.13-.04,1.66-.13.52-.09.99-.25,1.39-.48.4-.22.71-.53.95-.93.24-.39.35-.9.35-1.51,0-.4-.07-.76-.2-1.08-.13-.32-.31-.61-.55-.84M1.64,63.34h1.72l.73.07.68.27.5.52c.13.22.2.49.2.83,0,.42-.08.75-.24,1l-.64.55c-.27.12-.58.2-.93.23-.36.04-.73.05-1.12.05h-.89v-3.54ZM5.44,71.16l-.62.56c-.26.14-.56.23-.89.28-.34.05-.7.08-1.06.08h-1.22v-3.86h1.06c.35,0,.7.02,1.05.06.35.05.67.13.96.28l.69.61c.18.27.26.62.26,1.06,0,.38-.08.69-.23.93"/>
  <path class="st0" d="M15.78,68.94c0,.5-.05.97-.15,1.39-.1.42-.25.78-.46,1.09-.2.3-.47.54-.79.71-.32.17-.7.25-1.13.25-.68-.04-1.14-.3-1.4-.78-.25-.48-.37-1.22-.37-2.2v-4.31h-1.54v4.95c0,1.13.25,2.01.75,2.64.51.64,1.29.95,2.37.95.59,0,1.13-.13,1.64-.4.5-.27.86-.64,1.09-1.12h.03v1.32h1.48v-8.34h-1.53v3.86Z"/>
  <path class="st0" d="M23.59,64.88c-.45,0-.88.14-1.27.42-.41.28-.71.64-.91,1.07h-.03v-1.29h-1.44v8.34h1.54v-3.79c0-1.05.21-1.88.62-2.49.41-.61.97-.92,1.65-.92l.42.03.44.11v-1.37l-.46-.08-.55-.03Z"/>
  <path class="st0" d="M33.15,67.73c-.12-.58-.33-1.07-.61-1.5-.29-.42-.66-.75-1.14-1-.47-.24-1.05-.36-1.75-.36-.59,0-1.12.1-1.61.31-.48.21-.89.5-1.23.88-.34.37-.61.82-.79,1.34-.19.52-.28,1.08-.28,1.69,0,.68.08,1.29.26,1.85.17.55.44,1.03.79,1.43.36.39.8.7,1.35.92.54.22,1.18.33,1.92.33.34,0,.64-.02.9-.06l.7-.14.55-.18.47-.17v-1.54l-.42.26-.62.27-.74.22-.79.09c-.36,0-.71-.07-1.04-.21-.33-.13-.63-.33-.88-.57-.25-.25-.45-.54-.61-.88-.15-.34-.22-.72-.22-1.13h5.95c0-.67-.06-1.29-.18-1.86M27.38,68.44l.19-.81.41-.75.67-.54c.27-.15.6-.21.98-.21.33,0,.62.06.88.19l.65.5.4.73c.09.28.14.58.14.9h-4.32Z"/>
  <path class="st0" d="M41.9,71.78v-3.45c0-1.14-.26-2-.78-2.58-.52-.58-1.38-.87-2.57-.87-.53,0-1.03.08-1.48.22-.46.14-.88.34-1.26.56l.08,1.31c.32-.26.69-.47,1.12-.62.43-.15.86-.23,1.3-.23.78,0,1.32.18,1.61.55.3.36.45.91.45,1.62l-.43-.02h-.38s-.82,0-.82,0c-.4,0-.82.05-1.28.14-.46.09-.88.24-1.26.46l-.54.37-.43.47-.28.59-.1.72c0,.46.07.85.22,1.18.15.33.36.6.63.81.27.21.6.37.97.47.37.1.79.15,1.23.15.35,0,.66-.04.94-.13l.74-.32.55-.42.36-.41h.03v1.08h1.44l-.05-.55c-.01-.25-.02-.61-.02-1.09M40.35,70.18c0,.62-.2,1.14-.59,1.56-.39.42-.96.63-1.72.63l-.54-.1-.5-.26-.37-.42-.14-.58c0-.37.11-.66.34-.88.22-.22.49-.38.8-.48.32-.12.64-.18.96-.21l.45-.03h.36s.49,0,.49,0l.49.02v.73Z"/>
  <path class="st0" d="M50.34,68.94c0,.5-.05.97-.15,1.39-.1.42-.25.78-.46,1.09-.2.3-.47.54-.79.71-.32.17-.69.25-1.13.25-.67-.04-1.14-.3-1.4-.78-.25-.48-.37-1.22-.37-2.2v-4.31h-1.54v4.95c0,1.13.25,2.01.75,2.64.5.64,1.29.95,2.37.95.59,0,1.13-.13,1.64-.4.5-.27.86-.64,1.09-1.12h.03v1.32h1.48v-8.34h-1.53v3.86Z"/>
  <polygon class="st0" points="125.17 12.63 124.84 12.56 124.5 12.63 124.24 12.81 124.06 13.09 123.99 13.41 124.23 14.02 124.84 14.26 125.17 14.19 125.44 14.02 125.62 13.75 125.69 13.41 125.62 13.09 125.44 12.81 125.17 12.63"/>
  <polygon class="st0" points="137.21 2.81 137.54 2.75 137.81 2.56 138 2.3 138.07 1.97 138 1.64 137.81 1.36 137.54 1.18 137.21 1.11 136.88 1.18 136.61 1.36 136.43 1.64 136.36 1.97 136.6 2.57 137.21 2.81"/>
  <polygon class="st0" points="139.49 2.81 139.82 2.75 140.09 2.56 140.28 2.3 140.34 1.97 140.28 1.64 140.09 1.36 139.82 1.18 139.49 1.11 139.16 1.18 138.89 1.36 138.71 1.64 138.64 1.97 138.89 2.57 139.49 2.81"/>
  <path class="st0" d="M130.03,10.8l.53-.54c.26.22.57.4.94.54.37.14.83.22,1.39.22h4.53c.34,0,.62-.07.84-.22l.53-.54c.26.22.57.4.94.54.37.14.83.22,1.38.22h7.74c.61,0,1.12-.08,1.53-.24.4-.15.72-.38.96-.66l.44.36.54.29.67.19c.25.05.53.07.83.07h8.31l.59-.06.48-.18.41-.34.36-.53.47.42.65.38.81.28c.3.07.63.11.97.11.36,0,.69-.05.98-.14l.78-.37.6-.53.41-.64.24-.68.08-.66-.08-.73-.25-.75-.42-.72-.6-.6-.78-.41c-.29-.1-.62-.15-.98-.15l-.54.05-.61.2-.65.42-.64.7c-.21.29-.41.64-.61,1.06-.19.41-.36.9-.52,1.47-.09.33-.27.57-.53.72-.26.15-.55.23-.88.23h-8.04c-.45,0-.85-.04-1.18-.13-.33-.08-.62-.21-.87-.38l.06-.61c0-.35-.06-.69-.18-1.01-.12-.32-.3-.62-.52-.91-.22-.29-.49-.57-.8-.82-.31-.26-.65-.49-1.01-.71l2.44-4.27-1.04-.73-3.19,5.48c.43.25.84.5,1.21.76.37.25.69.51.95.77l.62.78.22.78-.08.43-.29.32-.57.2c-.24.05-.55.07-.93.07h-7.54c-.45,0-.85-.04-1.17-.13-.33-.08-.61-.21-.85-.37v-4.24h-1.44v3.83l-.15.68-.4.23h-4.22c-.45,0-.84-.04-1.17-.13-.33-.08-.62-.21-.86-.38v-4.23h-1.44v3.83l-.15.68-.4.23h-5.39c-.85,0-1.53-.03-2.04-.1-.5-.07-.89-.17-1.15-.32l-.51-.55c-.08-.23-.12-.5-.12-.82l.04-.56.08-.56-1.36-.13-.06.39-.05.42-.04.41v.35s.04.77.04.77l.22.69.46.59c.2.18.45.33.77.46.32.13.71.23,1.17.3.46.07,1.01.1,1.65.1h6.58c.34,0,.63-.07.86-.22M164.79,7.9c.13-.35.3-.66.49-.92l.68-.65c.26-.16.54-.25.85-.25.33,0,.61.08.84.23l.58.56.33.71.11.67-.14.7-.4.43-.64.22-.83.06-.67-.06-.66-.16-.54-.22-.31-.24c.06-.37.15-.72.29-1.07"/>
  <polygon class="st0" points="6.86 36.89 7.13 36.71 7.31 36.44 7.38 36.11 7.31 35.78 7.13 35.5 6.86 35.32 6.52 35.25 6.19 35.32 5.92 35.5 5.74 35.78 5.68 36.11 5.92 36.71 6.52 36.96 6.86 36.89"/>
  <polygon class="st0" points="4.58 36.89 4.85 36.71 5.03 36.44 5.1 36.11 5.03 35.78 4.85 35.5 4.58 35.32 4.25 35.25 3.91 35.32 3.64 35.5 3.47 35.78 3.4 36.11 3.64 36.71 4.25 36.96 4.58 36.89"/>
  <path class="st0" d="M63.58,29.22h-5.38l-.77-.03-.7-.07-.6-.12-.46-.15c.4-.41.72-.78.96-1.13.24-.35.42-.66.54-.95l.25-.77.06-.58-.23-.61-.58-.43-.8-.25-.87-.09c-.38,0-.75.03-1.09.09-.35.06-.66.13-.95.21l-.79.27-.6.29-.16.2-.16.35-.14.42-.1.38.38.49.52.71.62.76.68.63-.29.14-.5.12-.68.09-.82.04h-6.27c-.46,0-.85-.04-1.18-.13-.33-.09-.62-.21-.87-.38v-9.53h-1.44v9.14l-.14.68-.4.22h-4.21c-.48,0-.89-.05-1.23-.14-.34-.09-.63-.23-.88-.42.11-.33.16-.64.16-.93l-.08-.73-.25-.75-.43-.72-.6-.6-.78-.41c-.29-.1-.62-.15-.98-.15l-.54.05-.61.2-.65.42-.64.7c-.21.29-.41.64-.6,1.05-.19.41-.37.91-.52,1.48-.09.33-.26.57-.52.72-.26.15-.56.23-.88.23h-11.28l-.38-.05-.27-.2-.16-.44c-.03-.19-.06-.45-.06-.77v-3.29h-2.12c-1.13,0-1.96.27-2.49.8-.54.53-.81,1.33-.81,2.39v2.67l-.24.86-.68.74c-.3.22-.66.39-1.08.52-.42.13-.9.2-1.44.2s-1.03-.05-1.43-.14c-.41-.09-.75-.21-1.04-.36l-.71-.53-.44-.62-.22-.64-.06-.59.05-.61.14-.6.22-.56.27-.48-1.19-.65-.37.59-.3.72-.2.82-.07.88.09.79c.06.3.16.61.32.92.15.31.36.63.61.93.26.3.59.57.98.81.4.24.87.43,1.42.57.54.15,1.18.22,1.91.22.77,0,1.45-.11,2.06-.34.6-.23,1.11-.53,1.53-.9.42-.37.74-.79.96-1.27.22-.48.33-.96.33-1.46v-2.36c0-.42.05-.76.16-1.02l.45-.61.71-.29c.28-.04.59-.07.94-.07h.29v2.51c0,.43.06.79.17,1.09l.47.72.66.39.76.12h11.77l.59-.05.49-.19.41-.34.36-.53.47.42.65.38.82.27c.3.07.62.11.97.11.57,0,1.05-.11,1.45-.32.4-.21.72-.48.98-.79l.45.4.56.33.71.22c.26.05.56.08.89.08h4.52c.34,0,.63-.07.85-.22l.53-.55c.26.22.58.41.95.55.37.14.84.22,1.4.22h6.19c.35,0,.69-.03,1.02-.08.33-.05.64-.12.93-.2l.82-.3.71-.35.51.27.77.3c.3.1.63.18,1,.25.37.07.77.1,1.21.1h7.23v-11.49h-1.44v10.05ZM33,28.6l-.4.43-.63.22c-.25.04-.53.06-.83.06l-.67-.06-.65-.16-.54-.22-.31-.24c.06-.37.15-.72.29-1.07.13-.35.3-.66.49-.93l.68-.65c.26-.16.54-.25.85-.25.33,0,.61.08.84.23l.58.56.34.71.11.67-.14.7ZM55.13,27.73l-.68.51-.67-.54-.65-.68-.53-.68-.33-.53c.41-.19.8-.32,1.16-.39.36-.08.68-.12.98-.12l.7.08.52.2.33.29.11.33-.11.41-.32.53-.51.58Z"/>
  <rect class="st0" x="67.73" y="19.18" width="1.44" height="11.49"/>
  <path class="st0" d="M80.87,29.38h-.47l-.88-.09-.8-.28-.58-.5-.22-.74.13-.56.35-.39.5-.23.58-.07.63.03.47.07.11-1.24-.68-.09-.67-.02c-.3,0-.61.04-.93.13-.32.09-.6.23-.86.41l-.63.71c-.17.29-.25.63-.25,1.03l.09.59.24.52.34.42.39.3h-1.62v1.28h4.74v-1.28Z"/>
  <rect class="st0" x="83.24" y="19.18" width="1.44" height="11.49"/>
  <path class="st0" d="M88.05,29.67c.27.3.61.54,1.03.73.42.19.93.28,1.54.28l.37-.02.41-.05.44-.1.41-.15c-.08.32-.22.61-.42.88-.2.26-.47.5-.79.7-.33.2-.72.36-1.18.49-.45.13-.98.22-1.57.26l.15,1.38c.77-.07,1.47-.21,2.11-.4.64-.19,1.2-.48,1.66-.85.46-.38.82-.86,1.09-1.45.26-.59.39-1.32.39-2.18v-1.34c0-.49-.05-.93-.13-1.31-.09-.38-.21-.7-.36-.97l-.52-.66-.63-.42-.68-.22-.66-.06c-.52,0-.99.08-1.41.26-.42.17-.78.41-1.08.71-.3.3-.52.66-.69,1.06-.16.4-.24.84-.24,1.3,0,.37.06.74.18,1.12.12.37.31.71.58,1.01M88.84,26.68l.37-.6.56-.38.69-.13.65.1.57.41c.17.2.31.48.41.84.1.36.15.82.15,1.39v.69l-.25.08-.34.08-.39.06-.41.02c-.38,0-.71-.05-.98-.15l-.67-.39-.38-.58-.12-.69.13-.76Z"/>
  <path class="st0" d="M103.48,30.67h13.75v-11.49h-1.44v10.05h-12.38c-.48,0-.89-.05-1.23-.14-.34-.09-.64-.24-.89-.43l.05-.55c0-.39-.08-.79-.25-1.2-.16-.4-.38-.8-.65-1.19-.27-.38-.57-.76-.91-1.12-.34-.36-.68-.7-1.04-1l-1.06,1.05c.32.26.63.53.93.83.31.3.59.6.84.91.25.31.45.62.6.93.15.31.23.61.23.89l-.08.43-.29.32-.57.2c-.24.05-.55.07-.93.07h-2.73v1.44h2.91c.63,0,1.15-.08,1.56-.25.41-.17.73-.4.96-.7l.45.37.55.31.68.2c.26.05.54.07.86.07h.08Z"/>
  <rect class="st0" x="119.95" y="19.19" width="1.44" height="11.49"/>
  <polygon class="st0" points="135.61 20.82 135.28 20.76 134.94 20.82 134.67 21.01 134.5 21.28 134.43 21.62 134.67 22.22 135.28 22.46 135.61 22.39 135.88 22.21 136.06 21.95 136.13 21.62 136.06 21.28 135.88 21.01 135.61 20.82"/>
  <polygon class="st0" points="133.33 20.82 133 20.76 132.67 20.82 132.4 21.01 132.22 21.28 132.15 21.62 132.39 22.22 133 22.46 133.33 22.39 133.6 22.21 133.78 21.95 133.85 21.62 133.78 21.28 133.6 21.01 133.33 20.82"/>
  <polygon class="st0" points="154.21 33.84 154.48 33.66 154.67 33.39 154.73 33.06 154.67 32.73 154.48 32.46 154.21 32.28 153.88 32.21 153.55 32.28 153.28 32.46 153.1 32.73 153.03 33.06 153.28 33.67 153.88 33.91 154.21 33.84"/>
  <polygon class="st0" points="156.16 33.91 156.49 33.84 156.76 33.66 156.94 33.39 157.01 33.06 156.94 32.73 156.76 32.46 156.49 32.28 156.16 32.21 155.83 32.28 155.56 32.46 155.38 32.73 155.31 33.06 155.55 33.67 156.16 33.91"/>
  <polygon class="st0" points="169.22 32.28 168.88 32.21 168.55 32.28 168.28 32.46 168.1 32.73 168.04 33.06 168.28 33.67 168.88 33.91 169.22 33.84 169.49 33.66 169.67 33.39 169.74 33.06 169.67 32.73 169.49 32.46 169.22 32.28"/>
  <path class="st0" d="M169.6,30.66v-6.18h-1.44v4.74h-10.3c-.46,0-.85-.04-1.17-.12-.33-.08-.61-.21-.85-.37v-4.24h-1.44v3.83c0,.3-.05.53-.15.68l-.4.23h-11.82c-.45,0-.84-.04-1.17-.12-.33-.08-.61-.21-.86-.38v-4.23h-1.44v3.83c0,.3-.05.53-.15.68l-.4.23h-5.39c-.86,0-1.54-.03-2.04-.1-.5-.07-.89-.17-1.15-.32l-.52-.55c-.08-.23-.12-.5-.12-.82l.04-.56.08-.56-1.36-.13-.06.39-.05.43-.03.41v.35s.04.77.04.77l.22.69.45.59c.2.18.46.33.78.46.32.13.71.23,1.17.3.47.07,1.02.1,1.66.1h6.57c.35,0,.63-.07.86-.22l.53-.54c.26.22.57.4.94.54.37.14.83.22,1.39.22h12.13c.34,0,.62-.07.85-.22l.53-.54c.26.22.58.4.94.54.37.14.83.22,1.38.22h11.76Z"/>
</svg>