<?xml version="1.0" encoding="UTF-8"?>
<svg id="Layer_1" xmlns="http://www.w3.org/2000/svg" version="1.1" viewBox="0 0 313.46 83.02">
  <!-- Generator: Adobe Illustrator 30.6.0, SVG Export Plug-In . SVG Version: 2.1.4 Build 109)  -->
  <defs>
    <style>
      .st0 {
        fill: #fff;
      }
    </style>
  </defs>
  <path class="st0" d="M302.96,14.36c-10.01-10.38-28.08-16.61-42.32-13.61-8.1,1.68-11.47,6.14-13.11,14.02-.5,2.37-.68,6.51-1.5,8.47-.27.68-.91,1.23-1.59.64-.59-.55-1.27-2.73-1.5-3.6-1.18-4-2.64-13.24-6.05-15.66-3.55-2.46-8.06,2.41-10.01,5.1-5.51,7.55-5.28,15.61-2.5,24.26,6.23,19.48,27.67,43.1,47.92,48.1,13.84,3.41,24.39-2.78,32.18-13.84,11.51-16.34,12.97-38.82-1.5-53.88M249.53,34.57c2.82-5.37,8.01-9.97,13.52-12.47,3.46-1.55,7.19-2.28,10.97-2.46v-3.78c-5.42-.46-9.6-5.01-9.47-10.47,5.01-.05,9.1,3.41,10.38,8.19,1.14-4.73,5.46-8.28,10.42-8.19.14,5.42-4.14,10.06-9.51,10.47v3.78c9.56.23,18.57,5.19,23.71,13.2.32.5,1.73,2.73,1.73,3.14.05.23-.05.36-.27.36-.18,0-1.05-1.23-1.27-1.5-3.69-4.23-8.1-7.92-13.38-9.87-13.2-4.92-26.53-.96-35.63,9.42-.46.5-.96,1.32-1.41,1.77-.27.32-.55.23-.5-.14.05-.23.59-1.18.73-1.46M244.89,47.95c-2.87-.68-7.65-6.01-8.24-8.87-.46-2.18.59-5.23,3.05-5.6,4.19-.64,8.01,5.96,8.6,9.47.41,2.37-.27,5.78-3.41,5.01M249.58,62.6c-1.5-2.46-2.5-5.23-3.14-8.01.14-.05.18-.05.32.05.18.18.41.59.68.82,2.96,2.41,5.69-2.91,6.6-5.1,1.05-2.55,1.27-5.28,2.18-7.69,1.32-3.64,6.1-3.73,7.69-.23.73,1.59-.18,4.78-.64,6.51-1.09,4.55-4.14,14.24-9.33,15.47-2.14.5-3.28-.04-4.37-1.82M254.54,68.79c-.09-.09-.18-.14-.14-.32h1.87c.64,0,2.23-.82,2.78-1.18,5.37-3.64,8.33-13.7,9.74-19.71.59-2.46.87-5.23,1.5-7.6,1.59-5.87,10.69-4.87,10.19,2.46-.32,4.91-2.55,12.7-4.32,17.34-1.73,4.46-6.28,14.02-11.79,14.43-2.91.18-7.78-3.41-9.83-5.42M272.65,76.35c-.5-.05-2.46-.23-2.82-.36-.64-.27.59-.64.77-.73,1.41-.77,2.68-1.77,3.82-2.91,5.83-6.1,9.38-19.02,10.88-27.21.41-2.23.55-4.46.91-6.64.46-2.96,3.14-4.6,6.01-3.55,3.69,1.41,2.87,5.23,2.46,8.37-.87,7.74-3.14,16.79-6.55,23.8-3.41,7.05-7.42,9.69-15.47,9.24M302.55,50.41c-.91,8.37-5.55,16.16-12.51,20.8-.27.18-1.78,1.37-1.5.41,2-2.05,3.37-4.73,4.46-7.37,1.64-3.82,2.82-7.87,3.73-11.92.36-1.68.64-4.28,1.18-5.83.32-.87,1.32-1.78,2.27-1.78,3.14-.14,2.59,3.64,2.37,5.69"/>
  <path class="st0" d="M33.77,41.03c.09-.04.18-.09.27-.14.45.23.91.41,1.41.5.59.18,1.23.32,1.82.36.64.05,1.27.09,1.87.09.91,0,1.82-.04,2.73-.18.86-.14,1.77-.32,2.73-.59.96-.27,1.96-.64,2.96-1.09,1.05-.46,2.14-1,3.37-1.68,1.27-.68,2.28-1.18,3.05-1.55.73-.36,1.32-.64,1.77-.77.41-.14.68-.23.91-.23l.5-3.6c-.68-.09-1.27-.23-1.87-.36-.64-.14-1.27-.36-2-.64-.68-.32-1.55-.64-2.59-1.09-1.5-.59-2.69-1.05-3.55-1.27-.86-.23-1.64-.36-2.32-.36-1.05,0-2,.23-2.82.68-.77.46-1.5,1.18-2.05,2.18l2.09,2.14c.36-.41.77-.68,1.27-.91.5-.18,1.05-.27,1.59-.27.36,0,.77,0,1.23.09.46.09.96.18,1.46.32.55.18,1.09.36,1.59.59,1.05.41,1.91.73,2.69,1-.23.09-.46.18-.68.27-.73.23-1.55.59-2.59,1-.86.32-1.68.64-2.46.91-.77.23-1.55.45-2.27.64-.73.14-1.46.27-2.23.36-.77.09-1.59.14-2.5.14h-1.96c.32-.73.45-1.55.45-2.41,0-1.32-.27-2.41-.82-3.41-.55-.96-1.27-1.68-2.23-2.23-.96-.55-2-.82-3.14-.82-1,0-2,.27-3.05.73-1.05.46-2,1.14-3,2-.96.87-1.82,1.91-2.64,3.1-.46.68-.91,1.41-1.27,2.18-.41-.32-.64-.82-.64-1.46v-.68c.04-.32.04-.59.09-.82l.23-2.73h-3.05l-.41,4c-.05.46-.18.87-.27,1.18-.23.5-.59.87-1.09,1.05-.55.23-1.32.32-2.32.32-.82,0-1.5-.09-1.96-.23-.5-.18-.87-.46-1.14-.82-.27-.36-.5-.91-.68-1.59l-.87-3-3.23.91c.27.96.5,1.82.68,2.64.18.82.32,1.55.41,2.18.09.64.14,1.18.14,1.64,0,1.59-.59,2.87-1.77,3.78-1.18.86-3.05,1.55-5.6,2l.77,3.87c2.23-.32,4.05-.86,5.51-1.64,1.41-.82,2.5-1.87,3.19-3.28.5-.96.82-2.09.96-3.37.27.23.59.46.96.64.77.36,1.64.55,2.64.55,1.41,0,2.59-.18,3.41-.55.77-.32,1.32-.82,1.68-1.46.41.68,1.05,1.14,1.91,1.46.96.36,2.27.55,3.96.55h4.1c1.87,0,3.41-.27,4.69-.82M24.85,37.57c-.32,0-.64,0-.91-.05.46-.64.96-1.18,1.41-1.73.96-1.09,1.91-1.87,2.96-2.46,1-.55,2-.82,3-.82.59,0,1.14.09,1.64.32.5.23.86.55,1.14.96.27.36.41.82.41,1.37s-.18,1-.55,1.32c-.37.36-.96.64-1.78.82-.82.18-1.87.27-3.19.27h-4.14Z"/>
  <rect class="st0" x="25.27" y="22.25" width="3.15" height="3.15" transform="translate(-8.99 25.97) rotate(-45)"/>
  <rect class="st0" x="44.25" y="22.12" width="3.15" height="3.15" transform="translate(-3.33 39.35) rotate(-45)"/>
  <path class="st0" d="M73.59,37.35c0-1.23-.32-2.41-.96-3.69-.55-1.05-1.27-2.05-2.23-3.05.82-1.05,1.41-2,1.91-2.91.55-.96.96-1.87,1.18-2.73.23-.91.36-1.73.36-2.59v-1.5l-3.64.46v1.46c0,.82-.18,1.64-.5,2.55-.36.82-.91,1.82-1.68,2.91l-6.96-6.78-2.37,2.64,7.28,6.69c-.41.45-.82.91-1.27,1.41-1.37,1.46-3.05,3.19-5.01,5.14l-.23,3.87c.68.18,1.41.36,2.18.5.77.14,1.55.23,2.32.32.82.09,1.59.09,2.32.09,2.46,0,4.28-.36,5.46-1.18,1.23-.77,1.82-2,1.82-3.59M69.36,37.66c-.59.23-1.5.36-2.87.36-.46,0-.96,0-1.46-.05-.41-.05-.77-.05-1.14-.09,1.09-1.14,2.09-2.14,2.96-3.09.55-.59,1.09-1.18,1.55-1.73.5.5.86,1,1.14,1.46.46.68.68,1.32.68,1.87,0,.59-.27,1-.86,1.27"/>
  <polygon class="st0" points="81.28 41.85 81.28 20.87 77.64 21.33 77.91 41.85 81.28 41.85"/>
  <rect class="st0" x="111.83" y="22.25" width="3.15" height="3.15" transform="translate(16.37 87.17) rotate(-45)"/>
  <path class="st0" d="M124.15,35.3c0-1.23-.27-2.32-.82-3.32-.59-1-1.32-1.77-2.27-2.37-1-.59-2.05-.91-3.28-.91-1.05,0-2.09.27-3.14.73-1,.5-2,1.18-2.96,2.05-.96.91-1.82,1.91-2.59,3.09-.5.77-.96,1.5-1.37,2.32-.04-.68-.14-1.46-.27-2.23-.18-1.18-.41-2.41-.68-3.64l-3.37,1.27c.32,1.37.59,2.59.77,3.64.23,1,.36,1.87.46,2.5.09.68.14,1.18.14,1.46,0,.68-.18,1.27-.64,1.77-.45.55-1.05.96-1.82,1.23-.73.32-1.59.46-2.59.46-1.55,0-2.73-.41-3.5-1.23-.82-.77-1.18-2-1.18-3.55,0-.36,0-.82.04-1.27.09-.46.18-1,.32-1.64.14-.64.32-1.37.5-2.27l-3-.64c-.46,1.55-.77,2.87-.96,3.91-.18,1.05-.27,2-.27,2.91,0,2.55.68,4.5,2.09,5.96,1.41,1.41,3.37,2.14,5.87,2.14,1.77,0,3.28-.36,4.5-1.05,1.23-.68,2.18-1.59,2.87-2.73.46-.73.73-1.55.87-2.41.86.23,1.96.36,3.37.36h4.41c1.91,0,3.5-.27,4.78-.82,1.23-.55,2.18-1.32,2.82-2.32.59-1,.91-2.14.91-3.41M120.56,36.57c-.36.32-.91.59-1.73.73-.82.18-1.91.27-3.28.27h-5.42c.46-.64.96-1.23,1.41-1.73.96-1.05,1.91-1.87,2.91-2.46,1.05-.59,2.05-.87,3-.87.68,0,1.32.14,1.87.36.5.27.96.64,1.27,1.05.27.41.46.86.46,1.36s-.18.91-.5,1.27"/>
  <path class="st0" d="M123.38,45.08l.73,3.87c3.19-.46,5.6-1.5,7.14-3.05,1.59-1.59,2.37-3.91,2.37-6.87,0-1.23-.09-2.55-.36-3.96-.23-1.46-.55-2.91-1-4.32l-3.5,1.23c.55,1.59,1,3,1.27,4.23.32,1.27.46,2.28.46,3.1,0,1.59-.59,2.87-1.73,3.78-1.18.91-2.96,1.59-5.37,2"/>
  <path class="st0" d="M136.3,24.1l7.24,6.69c-.41.46-.82.91-1.27,1.41-1.37,1.46-3,3.19-5.01,5.14l-.18,3.87c.68.18,1.41.36,2.18.5.73.14,1.5.23,2.32.32.77.09,1.55.09,2.27.09,2.46,0,4.28-.36,5.51-1.18,1.18-.77,1.77-2,1.77-3.6,0-1.23-.32-2.41-.96-3.69-.5-1.05-1.27-2.09-2.18-3.09.77-1.05,1.41-1.96,1.91-2.87.55-.96.91-1.87,1.18-2.73.23-.91.36-1.73.36-2.59v-1.5l-3.64.46v1.46c0,.82-.18,1.64-.55,2.55-.36.82-.91,1.82-1.64,2.91l-6.96-6.78-2.37,2.64ZM145.95,33.07c.5.5.86,1,1.18,1.46.46.68.64,1.32.64,1.87,0,.59-.27,1-.87,1.27-.55.23-1.5.36-2.82.36-.46,0-.96,0-1.46-.05-.41-.04-.77-.04-1.18-.09,1.14-1.09,2.09-2.14,3-3.09.55-.59,1.05-1.18,1.5-1.73"/>
  <path class="st0" d="M140.72,19.14c.68-.09,1.37-.14,1.96-.18v-1.87c-.77.09-1.37.14-1.77.14-.41.05-.68.05-.82.05-.41,0-.73-.14-1-.36-.27-.27-.41-.59-.41-.96s.09-.64.36-.87c.27-.23.59-.36,1-.36.18,0,.41.05.68.09.32.05.59.14.91.23l.41-1.55c-.36-.18-.73-.36-1.14-.46-.41-.09-.77-.14-1.14-.14-.77,0-1.46.27-2,.82-.55.5-.82,1.18-.82,2,0,.55.14,1.05.36,1.5.09.14.14.27.27.36l-1.55.23v1.91c.91-.14,1.73-.27,2.5-.36.82-.09,1.55-.18,2.18-.23"/>
  <polygon class="st0" points="158.88 41.85 158.88 20.87 155.19 21.33 155.51 41.85 158.88 41.85"/>
  <path class="st0" d="M181.63,50.68c1-.18,2-.36,2.96-.64l-.46-3.82c-.82.14-1.68.27-2.5.32-.86.09-1.68.14-2.37.14-1.55,0-2.82-.18-3.82-.5-1.05-.36-1.87-.82-2.37-1.41-.55-.59-.82-1.32-.82-2.14,0-.77.27-1.5.82-2.23.5-.68,1.27-1.37,2.23-1.91,1-.55,2.14-1,3.46-1.32,1.32-.32,2.78-.5,4.32-.5l.32-3.78c-2.18,0-4.14.27-5.92.82-.32.09-.64.23-.96.32-.27-.23-.55-.46-.77-.64-.59-.5-1-.96-1.23-1.37-.23-.36-.36-.77-.36-1.14,0-.5.18-1,.5-1.41.32-.41.77-.73,1.32-1,.55-.23,1.14-.36,1.73-.36.55,0,1.14.09,1.68.32.59.23,1.14.55,1.73.91l1.73-2.41c-.91-.82-1.77-1.41-2.55-1.82-.82-.36-1.68-.55-2.64-.55-1.18,0-2.27.27-3.28.87-1,.59-1.78,1.37-2.37,2.32-.59,1-.86,2.09-.86,3.32,0,.59.09,1.18.27,1.82.18.59.55,1.27,1.05,1.96.23.32.46.64.73.96-.05.04-.14.09-.18.14-1.23.96-2.18,2.05-2.82,3.28-.68,1.23-1,2.55-1,3.91,0,1.55.41,2.91,1.18,4.1.77,1.18,1.87,2.09,3.32,2.73,1.41.64,3.1.96,5.01.96.96,0,1.96-.04,2.91-.23"/>
  <path class="st0" d="M193.92,45.9c1.59-1.59,2.37-3.91,2.37-6.87,0-1.23-.09-2.55-.36-3.96-.23-1.46-.59-2.91-1-4.32l-3.5,1.23c.55,1.59,1,3,1.27,4.23.32,1.27.46,2.28.46,3.1,0,1.59-.59,2.87-1.73,3.78-1.18.91-2.96,1.59-5.37,2l.73,3.87c3.19-.46,5.6-1.5,7.14-3.05"/>
  <path class="st0" d="M206.07,42.12c2.37,0,4.14-.46,5.28-1.41,1.18-.96,1.73-2.37,1.73-4.19,0-.68-.09-1.36-.23-2.09-.18-.73-.5-1.5-.91-2.41-.41-.87-1-1.91-1.68-3.05-.73-1.14-1.59-2.46-2.68-4.01l-2.91,2.14c.96,1.41,1.77,2.59,2.41,3.59.68,1,1.18,1.87,1.59,2.55.41.73.73,1.27.91,1.73.14.45.23.86.23,1.14,0,.5-.27.96-.82,1.27-.55.32-1.46.46-2.78.46-.96,0-1.77-.09-2.32-.27-.59-.18-1-.46-1.23-.87-.23-.41-.36-.86-.36-1.46v-1.64h-3.09v3.14c0,1.82.55,3.19,1.59,4.05,1.09.91,2.87,1.32,5.28,1.32"/>
  <polygon class="st0" points="38 61.97 39 60.97 38 59.92 37 60.97 38 61.97"/>
  <path class="st0" d="M43.14,65.33c-.27-.5-.64-.91-1.14-1.23-.46-.27-1-.46-1.59-.46-.55,0-1.09.14-1.64.41-.5.27-1.05.64-1.55,1.09-.5.5-.96,1.05-1.41,1.68-.32.45-.59.96-.87,1.46v-.09c-.04-.5-.09-1-.18-1.59-.14-.64-.23-1.23-.36-1.87l-1.18.46c.18.86.32,1.59.46,2.14.09.59.18,1.05.23,1.37.04.32.04.55.04.73,0,.41-.14.77-.36,1.09-.27.32-.64.55-1.09.73-.46.23-.96.32-1.55.32-.91,0-1.59-.27-2.05-.73-.5-.5-.73-1.18-.73-2.09,0-.23.04-.46.04-.73.05-.27.09-.59.18-.91.05-.36.14-.77.27-1.23l-1.09-.23c-.18.77-.32,1.41-.41,1.91-.14.55-.18,1.05-.18,1.5,0,1.23.36,2.14,1.05,2.87.68.68,1.64,1,2.87,1,.82,0,1.55-.14,2.18-.46.59-.32,1.09-.73,1.46-1.27.27-.46.46-.96.46-1.55.14,0,.27.05.41.09.41.05.96.09,1.68.09h1.59c1.18,0,2.14-.09,2.82-.32.73-.23,1.27-.59,1.59-1,.32-.46.46-.96.46-1.59,0-.55-.14-1.09-.41-1.59M42.14,67.79c-.23.23-.59.41-1.18.5-.55.09-1.32.18-2.37.18h-2.18c-.18,0-.32,0-.46-.04.32-.55.68-1.05,1-1.46.5-.64,1.05-1.09,1.59-1.46.59-.36,1.14-.55,1.68-.55.46,0,.82.09,1.18.32.32.18.59.41.77.73.18.27.32.59.32.96,0,.32-.14.64-.36.82"/>
  <path class="st0" d="M47.74,64.74l-1.18.46c.23.68.41,1.32.55,1.96.18.68.23,1.18.23,1.64,0,.86-.32,1.55-1,2-.64.5-1.64.86-3,1.09l.27,1.37c1.59-.23,2.82-.68,3.64-1.46.82-.77,1.23-1.87,1.23-3.23,0-.55-.09-1.18-.18-1.82-.14-.64-.32-1.32-.55-2"/>
  <path class="st0" d="M52.06,57.55c.36-.05.73-.05,1.05-.09v-.77c-.37.04-.68.09-.91.09-.23.05-.36.05-.46.05-.27,0-.46-.09-.64-.23-.14-.18-.23-.36-.23-.59,0-.18.09-.36.23-.5.18-.14.36-.23.59-.23.09,0,.27.05.46.05.14.04.32.09.46.14l.14-.68c-.14-.09-.32-.14-.5-.18-.18-.05-.36-.09-.55-.09-.46,0-.82.14-1.09.41s-.41.64-.41,1.05c0,.27.09.55.18.82.04.05.09.14.14.18l-.82.09v.82c.41-.09.82-.14,1.23-.18.41-.04.77-.09,1.14-.14"/>
  <path class="st0" d="M56.3,59.92c0,.46-.14.96-.32,1.5-.23.55-.55,1.14-1,1.78-.04.04-.04.09-.09.14l-3.91-4.23-.82.82,4.05,4.32c-.32.41-.64.77-1,1.18-.73.86-1.55,1.77-2.59,2.82l-.05,1.32c.32.09.68.18,1.05.23.41.04.77.14,1.14.14.36.05.73.09,1.09.09,1.23,0,2.09-.18,2.64-.55.55-.32.82-.91.82-1.68,0-.59-.18-1.23-.5-1.91-.27-.59-.68-1.18-1.18-1.77.36-.46.64-.91.87-1.37.32-.55.55-1.09.68-1.59.18-.5.27-1,.27-1.41v-.96l-1.14.18v.96ZM55.8,66.2c.23.5.36.96.36,1.32,0,.41-.14.68-.5.87-.32.14-.87.23-1.64.23-.27,0-.55,0-.87-.04-.32,0-.64-.05-.91-.05-.14,0-.23-.05-.32-.05.59-.64,1.18-1.23,1.68-1.82.5-.59.96-1.14,1.32-1.64.36.36.64.77.86,1.18"/>
  <polygon class="st0" points="59.8 69.84 60.89 69.84 60.89 58.78 59.76 58.96 59.8 69.84"/>
  <rect class="st0" x="72.06" y="75" width="1.42" height="1.42" transform="translate(-32.22 73.63) rotate(-45)"/>
  <rect class="st0" x="69.88" y="75" width="1.42" height="1.42" transform="translate(-32.86 72.08) rotate(-45)"/>
  <rect class="st0" x="101.1" y="61.62" width="1.42" height="1.42" transform="translate(-14.26 90.25) rotate(-45)"/>
  <path class="st0" d="M106.31,66.65c0,.64-.18,1.09-.46,1.37-.32.27-.82.45-1.55.45-.77,0-1.32-.14-1.64-.36-.32-.23-.45-.55-.45-.96v-.41c0-.18.04-.32.04-.41l.09-1.27h-1.09l-.23,2.14c0,.18-.05.36-.14.55-.09.23-.27.41-.59.55-.27.09-.77.18-1.41.18h-.27c-.5,0-.96-.18-1.41-.5-.36-.23-.64-.55-.82-.96.23-.14.41-.23.55-.27.18-.05.32-.09.41-.09l.18-1.18c-.36-.04-.68-.14-.96-.23-.32-.05-.68-.18-1.05-.32-.41-.14-.86-.36-1.41-.59-.73-.32-1.27-.5-1.68-.64-.41-.14-.77-.18-1.14-.18-.45,0-.86.09-1.18.27-.36.18-.68.5-.91.91l.77.73c.23-.23.46-.36.68-.46.23-.09.45-.14.77-.14.23,0,.41,0,.64.05.18.04.46.14.68.18.27.09.55.18.82.32.5.18.96.36,1.41.55.27.09.5.14.73.18-.23.09-.46.18-.77.36-.32.14-.77.36-1.37.68-.46.23-.86.41-1.32.59-.41.14-.82.27-1.23.41-.45.09-.86.18-1.27.23-.41.04-.82.09-1.23.09-.36,0-.73-.09-1-.18s-.5-.27-.68-.5c-.18-.27-.36-.55-.5-.96l-.41-1.09c-.09-.32-.23-.64-.41-.86-.18-.27-.36-.5-.59-.68-.23-.18-.46-.32-.68-.41-.23-.09-.5-.14-.77-.14-.46,0-.87.14-1.27.46-.41.27-.77.68-1.14,1.27l-.96,1.68c-.18.27-.36.5-.59.73-.27.23-.5.36-.77.5-.23.09-.5.18-.77.18-.23,0-.55-.04-.96-.04-.41-.04-.86-.09-1.32-.14-.5-.05-.96-.09-1.37-.18l-.23,1.36c.55.09,1.05.18,1.55.23,0,.27-.18.55-.5.82-.36.32-.87.59-1.46.77-.64.23-1.27.32-2.05.32-1.14,0-2.05-.27-2.68-.77-.64-.5-.96-1.18-.96-2.09,0-.18.05-.45.05-.73.04-.27.09-.59.18-.96.04-.32.14-.73.27-1.18l-1.09-.23c-.18.77-.32,1.41-.41,1.96-.14.55-.18,1.05-.18,1.46,0,1.18.46,2.14,1.27,2.87.82.73,2.05,1.09,3.6,1.09,1,0,1.91-.18,2.69-.46.77-.32,1.37-.73,1.78-1.27.36-.41.55-.96.59-1.5.41.05.77.05,1.05.05h.18c.41,0,.77-.09,1.14-.23.36-.14.68-.36,1-.68.18-.18.36-.41.55-.68.27.5.68.86,1.18,1.18.59.36,1.23.59,1.87.59s1.18-.23,1.64-.59c.27-.23.5-.5.64-.82.18.32.41.59.68.77.5.32,1.09.46,1.87.46.46,0,.91-.05,1.41-.09.45-.09.91-.18,1.41-.32.46-.14.96-.32,1.46-.55.5-.23,1.05-.5,1.64-.82.46-.23.82-.41,1.09-.59.14.5.41.91.64,1.23.32.36.64.64,1.05.86.41.18.87.27,1.37.27h.32c.77,0,1.36-.09,1.82-.27.36-.18.64-.46.82-.77.23.36.5.59.91.77.46.18,1,.27,1.68.27h.18c1.05,0,1.82-.23,2.32-.77.5-.5.73-1.27.73-2.37l.05-7.92-1.14.18.05,7.69ZM84.88,68.25c-.32.23-.68.36-1.09.36-.59,0-1.09-.23-1.64-.64-.32-.27-.55-.59-.77-.91l.41-.68c.27-.46.55-.77.82-1,.27-.23.59-.32.87-.32.36,0,.64.14.96.36.27.27.5.64.68,1.18l.36.96c-.14.32-.36.5-.59.68"/>
  <rect class="st0" x="113.96" y="68.02" width="1.55" height="1.82"/>
  <rect class="st0" x="123.24" y="68.02" width="1.55" height="1.82"/>
  <rect class="st0" x="118.6" y="68.02" width="1.55" height="1.82"/>
  <rect class="st0" x="131.59" y="58.53" width="1.42" height="1.42" transform="translate(-3.14 110.9) rotate(-45)"/>
  <rect class="st0" x="129.41" y="58.53" width="1.42" height="1.42" transform="translate(-3.78 109.36) rotate(-45)"/>
  <polygon class="st0" points="142.49 72.57 143.49 73.57 144.54 72.57 143.49 71.57 142.49 72.57"/>
  <rect class="st0" x="144.97" y="71.86" width="1.42" height="1.42" transform="translate(-8.65 124.26) rotate(-45)"/>
  <polygon class="st0" points="148.91 72.62 150 73.71 151.09 72.62 150 71.57 148.91 72.62"/>
  <path class="st0" d="M166.7,66.65c0,.64-.14,1.09-.45,1.37-.27.27-.82.46-1.5.46h-1.5c.36-.46.55-1,.55-1.68,0-.59-.14-1.14-.36-1.59-.23-.46-.59-.87-1-1.14-.46-.27-.91-.41-1.46-.41s-1.09.14-1.64.41c-.59.27-1.14.64-1.68,1.09-.09.05-.18.14-.23.23l.09-6.6-1.14.18.09,7.42c-.14.14-.27.27-.36.41-.36.55-.73,1.09-1,1.68h-.59c-.77,0-1.27-.14-1.59-.36-.32-.23-.5-.55-.5-.96v-.41c.04-.18.04-.32.04-.41l.09-1.27h-1.05l-.23,2.14c-.04.18-.09.36-.14.55-.14.23-.32.41-.59.55-.32.09-.77.18-1.46.18-.77,0-1.27-.14-1.59-.36-.32-.23-.5-.55-.5-.96v-.41c.05-.18.05-.32.05-.41l.09-1.27h-1.05l-.23,2.14c-.04.18-.09.36-.18.55-.09.23-.27.41-.55.55-.32.09-.77.18-1.46.18s-1.27-.05-1.82-.14c-.5-.09-.91-.18-1.32-.36.27-.18.55-.36.82-.59.55-.5,1.05-1.05,1.5-1.64v-1.41c-.59-.36-1.18-.64-1.77-.86-.59-.18-1.18-.27-1.77-.27-.55,0-1.14.09-1.73.23-.64.14-1.23.36-1.82.68l-.27,1.27c.55.59,1,1.09,1.5,1.59.36.36.73.68,1.14.96-.32.09-.64.18-1,.27-.77.18-1.55.27-2.41.27-.59,0-1.05-.09-1.37-.18-.32-.09-.55-.27-.68-.55-.14-.27-.23-.64-.23-1.09v-5.01l-1.09.14v.82c-.86.18-1.59.41-2.23.73-.68.32-1.23.73-1.59,1.18-.41.5-.59,1-.59,1.55,0,.73.27,1.27.82,1.68.5.41,1.23.59,2.09.59.32,0,.68,0,1.05-.05.23-.05.46-.05.64-.14,0,.18.09.32.14.46.23.46.59.77,1.09.96.5.18,1.14.27,1.96.27.91,0,1.77-.09,2.59-.32.68-.18,1.37-.46,1.96-.77.23.14.45.27.68.36.55.27,1.09.46,1.73.55.59.14,1.27.18,2,.18.77,0,1.37-.09,1.82-.27.36-.18.64-.46.82-.77.23.36.5.59.91.77.46.18,1,.27,1.68.27h.18c.77,0,1.37-.09,1.82-.27.36-.18.64-.46.82-.77.23.36.5.59.91.77.46.18,1,.27,1.68.27h4.55c1.09,0,2-.09,2.73-.32.09-.04.23-.09.32-.14.23.09.46.18.68.23l.68.14c.27.04.5.04.73.09h.73c1.05,0,1.82-.23,2.32-.77.5-.5.73-1.27.73-2.37l.05-7.92-1.18.18.04,7.69ZM129.84,66.97c-.59,0-1.05-.09-1.37-.27-.27-.14-.46-.36-.46-.68,0-.36.18-.64.46-.96.32-.27.73-.55,1.27-.73.5-.18,1-.32,1.59-.36v2.87c-.14,0-.23.05-.36.05-.41.04-.77.09-1.14.09M139.31,67.38c-.09-.09-.18-.18-.27-.23-.41-.27-.86-.64-1.27-1.09-.36-.32-.68-.68-1.05-1.09.27-.09.55-.18.91-.27.55-.14,1.09-.18,1.64-.18.59,0,1.18.09,1.82.27.32.09.64.18.96.36-.32.41-.68.77-1.09,1.09-.46.41-1.05.82-1.64,1.14M161.11,68.29c-.59.09-1.32.18-2.28.18h-2.5c.32-.55.68-1.05,1.05-1.5.55-.64,1.14-1.14,1.73-1.46.59-.36,1.18-.55,1.73-.55.36,0,.73.09,1,.23.27.18.5.41.64.68.18.27.23.55.23.91,0,.41-.09.73-.36.96-.27.27-.68.46-1.23.55"/>
  <polygon class="st0" points="170.98 69.84 172.07 69.84 172.07 58.78 170.94 58.96 170.98 69.84"/>
  <polygon class="st0" points="182.9 75.71 183.91 76.71 184.95 75.71 183.91 74.71 182.9 75.71"/>
  <rect class="st0" x="181.06" y="75" width="1.42" height="1.42" transform="translate(-.3 150.69) rotate(-45)"/>
  <path class="st0" d="M213.44,65.43c-.04-.46-.09-.91-.18-1.37-.04-.41-.14-.82-.18-1.18l-1.14.46c.04.36.14.73.18,1.18.09.41.14.82.23,1.23.05.41.09.73.14,1.05,0,.32.04.55.04.68,0,.32-.18.59-.55.73-.36.18-1,.27-1.96.27h-.23c-.55,0-1-.18-1.41-.5-.41-.23-.64-.55-.82-.96.23-.14.41-.23.55-.27.18-.05.32-.09.41-.09l.14-1.18c-.32-.04-.64-.14-.96-.23-.32-.05-.64-.18-1-.32-.41-.14-.86-.36-1.46-.59-.68-.32-1.27-.5-1.64-.64-.41-.14-.77-.18-1.14-.18-.45,0-.86.09-1.23.27-.32.18-.64.5-.86.91l.77.73c.23-.23.41-.36.64-.46.23-.09.5-.14.82-.14.18,0,.41,0,.64.05.18.04.41.14.68.18.23.09.5.18.82.32.46.18.96.36,1.41.55.23.04.46.14.68.18-.18.09-.46.18-.73.36-.36.14-.82.36-1.37.68-.46.23-.91.41-1.32.59-.46.14-.87.27-1.27.41-.41.09-.82.18-1.23.23-.41.04-.82.09-1.27.09-.36,0-.68-.09-.96-.18s-.5-.27-.68-.5c-.18-.27-.36-.55-.5-.96l-.41-1.09c-.14-.32-.27-.64-.41-.86-.18-.27-.36-.5-.59-.68-.23-.18-.46-.32-.68-.41-.27-.09-.5-.14-.77-.14-.46,0-.87.14-1.27.46-.41.27-.77.68-1.14,1.27l-1,1.68c-.14.27-.36.5-.59.73-.23.23-.45.36-.73.5-.27.09-.5.18-.77.18-.23,0-.55-.04-.96-.04-.41-.04-.86-.09-1.37-.14-.46-.05-.91-.09-1.32-.18l-.23,1.36c.55.09,1.05.18,1.55.23,0,.27-.18.55-.5.82-.36.32-.87.59-1.46.77-.64.23-1.32.32-2.05.32-1.18,0-2.05-.27-2.68-.77-.64-.5-.96-1.18-.96-2.09,0-.18,0-.45.05-.73.04-.27.09-.59.18-.96.04-.32.14-.73.23-1.18l-1.05-.23c-.23.77-.36,1.41-.46,1.96s-.14,1.05-.14,1.46c0,1.18.41,2.14,1.27,2.87.82.73,2,1.09,3.6,1.09,1,0,1.91-.18,2.69-.46.73-.32,1.32-.73,1.78-1.27.36-.41.55-.96.59-1.5.41.05.77.05,1.05.05h.18c.36,0,.77-.09,1.09-.23.36-.14.73-.36,1-.68.23-.18.41-.41.59-.68.27.5.68.86,1.14,1.18.64.36,1.23.59,1.91.59.64,0,1.18-.23,1.64-.59.27-.23.46-.5.59-.82.23.32.46.59.73.77.46.32,1.09.46,1.82.46.5,0,.96-.05,1.41-.09.5-.09.96-.18,1.46-.32.46-.14.96-.32,1.46-.55.5-.23,1.05-.5,1.59-.82.46-.23.86-.41,1.14-.59.14.5.36.91.64,1.23.27.36.64.64,1.05.86.41.18.86.27,1.32.27h.32c.77,0,1.46-.09,1.96-.27.55-.14.96-.41,1.23-.77.27-.36.41-.82.41-1.37,0-.18-.05-.46-.05-.82-.04-.36-.09-.73-.14-1.18M196.06,68.25c-.32.23-.68.36-1.09.36-.59,0-1.14-.23-1.64-.64-.32-.27-.59-.59-.77-.91l.41-.68c.23-.46.5-.77.82-1,.27-.23.55-.32.87-.32s.64.14.91.36c.32.27.55.64.73,1.18l.32.96c-.09.32-.32.5-.55.68"/>
  <rect class="st0" x="211.64" y="59.76" width="1.42" height="1.42" transform="translate(19.43 167.85) rotate(-45)"/>
</svg>