<?xml version="1.0" encoding="UTF-8"?>
<svg id="Layer_1" xmlns="http://www.w3.org/2000/svg" version="1.1" viewBox="0 0 350.9 60.08">
  <!-- Generator: Adobe Illustrator 30.6.0, SVG Export Plug-In . SVG Version: 2.1.4 Build 109)  -->
  <defs>
    <style>
      .st0 {
        fill: #fff;
      }
    </style>
  </defs>
  <path class="st0" d="M180.88,54.31c.25,3.19-2.56,5.95-5.68,5.73-2.73-.19-4.84-2.35-5.02-5.03-.22-3.28,2.81-6.17,6.32-5.54,2.31.41,4.18,2.35,4.38,4.84"/>
  <path class="st0" d="M167.81,54.19c.37,3.44-2.74,6.33-6.06,5.84-2.78-.41-4.69-2.85-4.61-5.46.09-2.81,2.36-5.01,5.07-5.15,2.75-.15,5.29,1.83,5.6,4.77"/>
  <path class="st0" d="M350.9,20.87v.3l-2.76-1.83c-2.17-1.19-4.97-2.03-7.36-1.8-3.1.3-5.19,1.38-7.58,3.28-.83.66-1.46,1.34-2.16,2.17l-11.9,14.13c-2.96,3.52-7.78,8.45-12.42,8.58l-4.26.12h-17.46s-4.79-.15-4.79-.15c-.64-.12-1.09-1.03-1.48-1.43l-1.77-1.85-1.78-2.14-1.36,1.24c-1.96,1.78-5.32,4.11-7.8,4.18l-4.79.14h-17.32s-4.93-.06-4.93-.06l-1.78-1.87-3.23-3.65c-2.35,2.53-6.19,5.37-9.43,5.46l-4.4.12h-17.31s-4.39-.05-4.39-.05c-.62,0-.9-.31-1.27-.7l-1.79-1.92-2.46-2.9c-2.49,2.46-6.09,5.36-9.59,5.46l-4.26.12h-17.46s-4.84-.09-4.84-.09c-.61-.27-1.01-1.03-1.44-1.49l-2.23-2.37-1.8-2.14-1.15,1.03c-3.1,2.8-5.17,4.28-9.34,4.74l-1.62.18h-5.97c-7.91-.56-15.63-3.77-20.87-9.79-2.16-2.47-4.11-4.92-5.67-7.82-1.85-3.43-2.97-7.03-3.24-10.95v-4.51c.36-4.5,1.75-8.76,3.94-12.61h.15c-.46,2.51-.75,5.02-.54,7.63.58,7.22,3.6,13.48,8.48,18.77.74.8,1.41,1.5,2.24,2.22l1.19,1.04c3.37,2.94,7.44,4.94,11.94,5.36,6.43.59,12.76-2.85,16.87-7.64l5.41-6.31,1.25-1.41,1.44-1.54,3.62-3.61c1.3-1.29,2.71-2.36,4.3-3.26,1.88-1.06,3.85-1.55,6.01-1.73,2.45-.2,4.88.48,7,1.78,2.17,1.32,4.07,2.91,5.57,4.94l3.25,4.38c.23.17-.03.4-.17.17l-1.05-.8c-1.93-1.49-4.2-2.41-6.67-2.64l-1.46-.13-1.22.12c-3.34.32-6.71,2.4-8.85,4.93l-13.3,15.72c-.13.15.03.31.23.19l21.32.03c.59,0,.97.16,1.56.06,1.1-.19,2.12-.41,3.17-.88,2.77-1.25,4.96-3.21,6.92-5.52l6.47-7.59,4.28-4.91,2.24-2.34,1.06-1.05c1.73-1.7,3.52-3.32,5.66-4.52,1.81-1.02,3.75-1.44,5.8-1.64,3.57-.35,7.73,1.58,10.09,4l1.98,2.04c1.49,1.53,2.67,3.25,3.86,5.07.1.19-.13.31-.24.08-1.66-1.29-3.43-2.29-5.4-2.92l-3.02-.56c-.53-.1-.93-.02-1.45.02-2.9.23-5.37,1.4-7.56,3.29-.85.58-1.43,1.27-2.1,2.07l-12.89,15.27,20.75.04c.54,0,.89.18,1.44.06l2.31-.53c2.54-.94,4.68-2.49,6.5-4.46l1.65-1.79,8.73-10.2,1.05-1.18,1.33-1.48,3.94-3.9c1.15-1.13,2.38-2.08,3.74-2.93,1.94-1.21,4.06-1.78,6.35-1.98,2.51-.22,4.98.45,7.15,1.78,2.17,1.32,4.07,2.92,5.57,4.94l3.25,4.38c.24.17-.04.41-.18.16-2.37-1.95-5.12-3.24-8.14-3.5-.72-.06-1.26-.16-1.96-.02l-2.4.46c-2.68.9-4.97,2.43-6.82,4.62l-13.15,15.54,20.71.03c.5,0,.96.33,1.45.01,3.17-.15,7.08-2.83,9.14-5.19l.84-.97,8.8-10.27,1.54-1.73,1.72-1.86,3.1-3.11c1.36-1.36,2.82-2.53,4.49-3.49,4.19-2.42,9.75-2.54,13.75.38l1.73,1.26,3.09,3.1c1.3,1.54,2.53,3.04,3.55,4.89-5.84-4.58-12.17-5.17-17.86-.37-1.21,1.02-2.13,2.15-3.17,3.38l-11.74,13.94,20.79.03c.45,0,.86.34,1.3,0,4.02-.25,7.64-3.32,10.22-6.34l7.36-8.62,3.33-3.8,2.31-2.41.91-.89c1.79-1.75,3.61-3.44,5.81-4.68,1.81-1.02,3.75-1.44,5.8-1.64,3.57-.35,7.73,1.58,10.09,4l1.98,2.04c1.5,1.54,2.71,3.27,3.87,5.01"/>
  <path class="st0" d="M19.18,22.17l-11.43.04c.25.59.19,1.09-.15,1.52-.84,1.06-2.54.88-4.26.78-1.25-.07-2.44-.85-2.42-2.18l.02-1.8c.02-.22.8-.19.81.06l.08,1.88c.03.66.81,1.15,1.48,1.15h2.75c.49.02.81-.29.91-.66.12-.46-.09-.89-.58-1.08l-1.38-.53.42-.81c.67.2,1.39.71,2.2.71l11.47.03c.35-.19.49-.82.49-1.15v-2.38s2.16.05,2.16.05c1.37.03,2.18,1.25,1.98,2.63-.03.23.03.52.15.66.34.41,1.63.3,1.63-.25l.02-5.14c.31-.05.57-.05.89,0v5.01c0,.33.26.59.58.59h1.79s-.6-1.35-.6-1.35c-.18-.4-.51-1.06-.12-1.46.49-.5,1.33-.71,2.05-.74,1.01-.05,1.85.66,1.95,1.61.08.77-.1,1.39-.63,1.93h1.96c.19,0,.29-.38.29-.57v-5.01c.32-.05.56-.05.9,0l-.02,5.15c0,.56-.44,1.29-1.05,1.3l-6.21.07c-.52,0-.98-.22-1.33-.47-.71.69-2.2.7-2.76-.17-.48.28-1.05.68-1.62.65-.64-.03-1.08-.25-1.5-.8-.23.24-.51.73-.92.74M22.33,18.95c-.56-.4-1.31-.36-1.85-.24.07.76-.15,1.44.12,2.07.32.75,1.5.69,1.97.16.48-.54.46-1.51-.23-2M29.68,21.3c.61-.02,1.03-.4,1.27-.76.28-.41.35-1.09.09-1.46-.4-.57-1.07-.47-1.69-.28-1.13.35-.27.54.32,2.5"/>
  <path class="st0" d="M69.45,22.13c-1.39-.02-1.65-3.01-1.22-3.41.15-.13.72-.15.73.04l.06,1.75c.02.46.37.79.86.79h3.85c.29-.02.44-.48.44-.74l.03-2.7c0-.22.81-.18.81.06l.05,2.79c0,.22.19.58.47.58l8.97-.02c.25-.09.35-.63.36-.85v-1.75c.22-.11.81-.09.82.14l.05,1.9c0,.34.26.59.6.59h5.03s-.02-1.46-.02-1.46c-.01-.73-.86-1.2-1.59-1.21l-2.04-.05c-.23-.13-.37-.58-.49-.85l1.89-2.69.71.52-1.57,2.17,1.88.06c1.22.04,2.14,1.06,2.14,2.32v1.18s1.47-.01,1.47-.01c.23,0,.42-.36.42-.59l.02-2.93,2.03.03c.99.01,1.71.6,1.99,1.39.34.96.13,1.88-.64,2.56-.85.75-2.2.61-2.85-.27-.21.37-.59.7-1.01.7l-7.08.04c-.54,0-.93-.08-1.34-.5-.22.17-.47.48-.76.48h-9.02c-.37.01-.61-.25-.9-.46-.21.14-.47.47-.76.46l-4.41-.06ZM96.83,18.88c-.53-.3-1.15-.28-1.74-.2l.06,1.99c.16.58.85.73,1.32.65.54-.09.9-.49.98-.98.1-.59,0-1.1-.62-1.45"/>
  <path class="st0" d="M64.2,20.69l.05-2.76c.3-.05.55-.05.88,0l-.05,2.9c-.01.75-.73,1.19-1.27,1.33-.77.19-1.37-.01-1.89-.56-.74.74-1.84.88-2.59.1-.49.58-1.1.5-1.78.5-.66,0-1.26.09-1.73-.46-.23.17-.43.37-.67.45l-9.58-.05c-.05.97.09,1.83-.78,1.82l-2.66-.03c-1.34-.01-2.18-1.91-1.92-3.66h.89c-.12,1.45.11,2.81,1.32,2.8h2.23s.01-5.15.01-5.15c.21-.12.82-.08.82.13l.05,2.64c0,.34.25.59.6.59h8.45c.48,0,.76-.24.75-.74v-1.91s.87,0,.87,0v1.91c0,.25.16.71.45.71l2.03-.03.05-2.45c.32-.04.56-.05.89,0l.03,1.87c0,.53.64.69,1.06.63.53-.08.82-.45.83-1.06v-1.45h.74v1.45c.02.56.26.92.72,1.03.44.11,1.17-.02,1.18-.6"/>
  <path class="st0" d="M36.96,22.14c-.31.12-.57.09-.91.04l.05-6.31c0-.21.68-.25.84-.14l.02,6.41Z"/>
  <path class="st0" d="M3.78,25.04c.35-.11.54.13.63.41.09.28-.08.57-.38.69-.28.11-.59-.11-.69-.38-.1-.28.11-.6.45-.71"/>
  <path class="st0" d="M56.11,23.14c.25-.14.64-.1.78.08.15.19.15.66-.07.82-.2.15-.66.15-.82-.07-.15-.2-.16-.69.1-.84"/>
  <path class="st0" d="M42.74,17.82c.32-.12.6.16.68.38.1.29-.11.59-.38.69-.25.1-.5-.06-.64-.28-.16-.25-.06-.63.35-.78"/>
  <path class="st0" d="M5.12,25.06c.28-.12.58.05.73.29.15.25-.07.54-.29.7-.27.19-.61.04-.72-.16-.19-.32-.02-.69.29-.83"/>
  <path class="st0" d="M71.51,23.16c.33-.19.65-.03.81.22.15.24.03.53-.23.67-.25.14-.53.11-.76-.13-.18-.19-.22-.54.17-.76"/>
  <path class="st0" d="M85.59,16.81c.31-.24.62-.04.76.12.2.22.14.58-.05.74-.21.18-.57.13-.72.01-.2-.16-.25-.67,0-.87"/>
  <path class="st0" d="M84.27,16.79c.32-.18.63-.06.71.18.09.28.07.66-.22.77-.21.08-.53.09-.69-.15-.14-.21-.19-.57.2-.79"/>
  <path class="st0" d="M54.76,23.16c.31-.18.63-.08.71.17.08.25.08.64-.21.78-.19.09-.48.02-.67-.18-.18-.19-.23-.53.17-.76"/>
  <path class="st0" d="M134.37,20.21c-3.01.95-6.07-1.04-6.71-3.96-.66-3.02,1.44-5.99,4.58-6.41,2.77-.37,5.28,1.5,5.86,4.14.58,2.65-.97,5.35-3.74,6.22"/>
  <path class="st0" d="M72.3,30.48c.81.42,1.22,1.18,1.07,1.93-.15.75-.75,1.44-1.61,1.45l-3.37.04v-6.51s3.3.09,3.3.09c.73.02,1.23.56,1.39,1.1.21.75.02,1.32-.77,1.91M71.4,30.15c.56-.01.75-.64.7-1.05-.04-.36-.29-.8-.76-.81l-2.05-.02v1.92s2.11-.04,2.11-.04ZM71.35,33.09c.74-.02,1.06-.57,1.01-1.16-.05-.55-.46-.93-1.07-.94l-2.01-.05v2.21s2.06-.06,2.06-.06Z"/>
  <path class="st0" d="M28.39,33.74c-1.42.64-3.27.35-4.01-1.11-.09-.18.46-.53.68-.51.72,1.01,2.07,1.38,3.11.7.24-.16.35-.55.34-.78-.02-.24-.28-.59-.6-.69l-2.05-.58c-.68-.19-1.12-.6-1.29-1.21-.19-.65.05-1.37.65-1.8,1.75-1.24,4.19.05,4.01.84-.05.22-.44.54-.62.34-.67-.76-1.76-1.02-2.65-.57-.35.18-.46.52-.43.83.04.41.29.6.73.72l2.16.61c.76.22,1.02.83,1.02,1.57,0,.75-.26,1.28-1.04,1.63"/>
  <path class="st0" d="M4.71,33.21c-1.31,1.36-3.7,1.06-4.68-.52-.16-.26.52-.69.68-.52.69,1.06,2.29,1.4,3.25.49.21-.2.09-.85-.06-1.05-.57-.76-4.09-.35-3.72-2.79.07-.48.37-.97.94-1.24,1.92-.92,3.91.41,3.78,1.04-.04.17-.27.27-.41.33-.26.12-.36-.08-.57-.28-.73-.66-1.93-.75-2.64-.07-.18.17-.09.65-.04.87.04.21.35.38.67.47l1.97.54c.54.15.97.56,1.09.96.17.55.23,1.27-.25,1.77"/>
  <path class="st0" d="M7.96,33.2c.76.15,1.44-.2,2-.67.22.11.4.4.39.57-.3.5-.81.75-1.35.87-1.12.26-2.21-.07-2.81-.99-.58-.89-.53-2.12.13-2.94.7-.87,1.91-1.15,3.01-.68.94.4,1.37,1.43,1.21,2.45h-3.68c-.11.7.34,1.23,1.1,1.38M9.65,31.22c-.06-.81-.66-1.36-1.41-1.35-.71.02-1.45.55-1.43,1.34h2.84Z"/>
  <path class="st0" d="M13.44,33.2c.72.14,1.39-.16,1.92-.62l.52.49c-.39.55-.82.77-1.4.9-1.12.26-2.21-.07-2.81-.99-.58-.89-.53-2.12.13-2.94.7-.87,1.91-1.15,3.01-.68.94.4,1.37,1.43,1.21,2.45h-3.68c-.1.7.34,1.23,1.1,1.38M15.14,31.22c-.06-.81-.67-1.36-1.41-1.35-.76.02-1.46.5-1.42,1.35h2.83Z"/>
  <path class="st0" d="M38.59,31.82c.05.77.55,1.21,1.23,1.37.62.14,1.32-.07,1.79-.62.23-.03.48.26.66.51-.85.97-2.42,1.32-3.56.54-1.17-.8-1.36-2.33-.64-3.43.71-1.09,2.24-1.42,3.44-.66.71.45.96,1.44.94,2.27h-3.85ZM41.41,31.21c.04-.86-.53-1.3-1.2-1.32-.86-.03-1.51.5-1.64,1.34l2.84-.02Z"/>
  <path class="st0" d="M87.28,32.62c.21-.2.73.39.49.63-1,1.01-2.68,1.08-3.76.14-.68-.6-.74-1.58-.62-2.47.13-.91.93-1.5,1.64-1.69.96-.26,1.97-.03,2.57.71.41.52.49,1.23.37,1.86l-3.74.02c.03.72.56,1.15,1.13,1.35.64.22,1.32,0,1.92-.55M87.12,31.15c-.08-.95-.61-1.22-1.23-1.27-.86-.1-1.6.47-1.65,1.34l2.88-.07Z"/>
  <path class="st0" d="M97.15,29.35c.36-.08.67-.06,1.05-.02v4.52c-.28.08-.56.07-.81.05-.16-.01-.28-.24-.3-.44-.59.54-1.36.8-2.08.46-.55-.25-1.11-.91-1.11-1.64v-2.96s1.03,0,1.03,0l.08,3.18c.01.5.76.73,1.17.65.37-.08.98-.37.98-.87v-2.94Z"/>
  <path class="st0" d="M90.05,31.14l1.8-.12c.38-.02.03-.94-.4-1.05-.71-.18-1.34-.02-1.82.56-.21-.11-.43-.31-.48-.5.42-.64,1.12-.93,1.87-.9.61.02,1.6.32,1.76,1.12l.11,3.59c-.28.08-.53.08-.67.02-.12-.05-.12-.37-.13-.58-.68.74-1.77,1.02-2.65.49-.56-.33-.72-.95-.64-1.49.1-.62.54-.95,1.26-1.16M91.94,31.68l-1.54.05c-.55.02-.77.59-.64,1.03.12.43.51.61,1.01.55.41-.06.81-.2.98-.45.24-.35.28-.73.19-1.17"/>
  <path class="st0" d="M18.2,30.63l-.09,3.24h-1.03s0-4.52,0-4.52c.27-.08.47-.07.68-.06.2.01.27.3.25.63.49-.62,1.13-.88,1.95-.76.6.09,1.35.76,1.36,1.54l.07,3.17h-1.04s-.02-2.95-.02-2.95c0-.44-.52-.81-.83-.87-.42-.08-1.28.01-1.29.58"/>
  <path class="st0" d="M77.73,29.35c.35-.09.67-.07,1.04-.02v4.52c-.27.08-.57.07-.81.05-.16-.01-.28-.24-.31-.44-.59.54-1.36.8-2.08.46-.55-.25-1.11-.91-1.11-1.64v-2.95c.33-.04.57-.05.89,0l.05,2.58c.01.64.36,1.13.95,1.25.44.09,1.32-.2,1.33-.76l.05-3.04Z"/>
  <path class="st0" d="M44.38,31.18l-.02,2.69c-.33.05-.56.05-.9,0l.03-4.55c.35-.03.6-.05.77.02.12.05.12.35.14.6.49-.6,1-.92,1.8-.76.48.1,1.37.5,1.38,1.18l.06,3.51c-.36.05-.57.05-.91,0v-2.65c0-.69-.5-1.22-1.1-1.21-.64,0-1.24.35-1.25,1.16"/>
  <path class="st0" d="M61.69,31.77c.05.75.56,1.28,1.16,1.37.66.1,1.32-.16,1.65-.77l.7.52c-.44.76-1.26,1.16-2.07,1.16-.86,0-1.61-.36-2.07-1.14-.68-1.18-.46-2.61.63-3.42,1.01-.75,2.67-.59,3.42.59.15.24-.51.65-.66.49-.53-.56-1.15-.85-1.81-.59-.73.3-1.02.82-.95,1.77"/>
  <path class="st0" d="M31.17,31.33c-.1.77.3,1.55.88,1.75.75.26,1.52.04,1.95-.65.33.11.55.3.71.5-.59.79-1.34,1.2-2.28,1.13-.82-.06-1.73-.55-2.02-1.47-.18-.57-.21-1.3-.06-1.88.26-.95,1.14-1.49,2.01-1.62.94-.14,1.94.4,2.39,1.16-.32.22-.47.35-.78.45-.33-.59-1.02-.87-1.62-.73-.57.13-1.08.62-1.18,1.37"/>
  <path class="st0" d="M56.52,30.05v3.82s-1.04,0-1.04,0v-3.82s-1.03-.02-1.03-.02v-.72l1.05-.02c-.09-.6-.03-1.09.33-1.48.64-.69,1.97-.45,2-.35.06.18.03.4.03.59,0,.46-1.08,0-1.27.36-.11.2-.1.48-.07.83.4.12.83.04,1.31.05v.74s-1.32.01-1.32.01Z"/>
  <path class="st0" d="M51.57,33.05c.26.01.29.58.17.82l-1.59.02c-.44,0-.74-.31-.74-.74v-3.1s-1.03-.02-1.03-.02v-.72h1.03s0-1.47,0-1.47h.88v1.46s1.47,0,1.47,0v.73h-1.47s0,2.96,0,2.96l1.27.05Z"/>
  <path class="st0" d="M81,33.84c-.31.09-.57.08-.9.02l.03-4.55c.33-.03.63-.05.76.01.12.05.13.36.15.6.48-.63,1.07-.94,1.87-.74.02.29.05.53-.03.89-.84-.23-1.87.24-1.87,1.15v2.62Z"/>
  <path class="st0" d="M36.66,33.85c-.37.09-.68.07-1.05.02v-4.55s1.04,0,1.04,0v4.53Z"/>
  <path class="st0" d="M53.72,33.85c-.37.09-.68.07-1.05.02v-4.55s1.04,0,1.04,0v4.53Z"/>
  <path class="st0" d="M59.65,33.85c-.37.09-.68.07-1.05.02v-4.55s1.04,0,1.04,0v4.53Z"/>
  <path class="st0" d="M59.04,27.16c.32-.07.58.24.65.43.12.29-.18.66-.32.65-.44.14-.69-.04-.76-.23-.11-.38,0-.76.42-.86"/>
  <path class="st0" d="M36.05,27.17c.37-.08.58.24.61.44.06.42-.07.67-.52.69-.21.01-.52-.14-.6-.44-.06-.23.13-.61.51-.69"/>
  <path class="st0" d="M53.11,27.16c.38-.07.59.25.62.46.04.36-.09.64-.4.66-.39.03-.62-.07-.67-.4-.04-.3.04-.65.45-.73"/>
</svg>