<?xml version="1.0" encoding="UTF-8"?>
<svg id="Layer_1" xmlns="http://www.w3.org/2000/svg" version="1.1" viewBox="0 0 376.36 491.52">
  <!-- Generator: Adobe Illustrator 30.6.0, SVG Export Plug-In . SVG Version: 2.1.4 Build 109)  -->
  <defs>
    <style>
      .st0 {
        fill: #fcfdfc;
      }

      .st1 {
        fill: #000101;
      }

      .st2 {
        fill: #fdfefe;
      }

      .st3 {
        fill: #fdfdfd;
      }
    </style>
  </defs>
  <path class="st3" d="M237,465.37c-10.24,6.9-29.76,16.32-41.56,19.5l-13.03,3.51c-10.39,2.18-20.53,3.28-31.19,3.11-10.28-.16-20.23-1.25-30.03-4.31-6.07-1.9-11.79-4.05-17.37-7.09-5.95-3.24-11.4-7.09-16.43-11.61l-10.05-10.13c-6.31-6.91-11.97-14.03-17.39-21.69l-14.42-21.92c-5.29-8.79-9.44-17.95-13.07-27.56-5.57-14.71-9.17-29.75-10.71-45.45-1.06-10.82-1.52-21.29-1.09-32.12l1.51-37.84.53-14.69c.47-12.92-.31-25.66-2.21-38.44l-3.7-13.75-6.72-21.62-3.34-13.51c-1.91-10.79-2.33-22.33,2.61-32.36-10.3-12.86-12.14-30.07-5.3-44.88,2.86-6.2,6.89-11.5,12.33-15.86-.2-3.52.46-6.73,1.35-10.1,1.34-5.03,3.42-9.45,6.53-13.7,7.9-10.77,19.07-16.78,32.6-17.77,3.41-4.79,7.13-9.25,11.98-12.74,12.96-9.32,29.89-11.82,44.81-5.55,1.95-2.12,4.03-3.66,6.35-5.27,19.46-13.53,44.87-15.31,66-4.5l3.01,1.71c7.07-4.6,16.95-6.5,25.29-5.9,11.98.87,22.9,6.22,30.78,15.53,12.06-3.43,25.46-1.31,36.72,4.02,9.47,4.93,17.08,12.32,22.29,21.76,4.06.44,7.95.77,11.81,2.17,4.91,1.79,9.6,3.76,13.79,6.99,5.85,4.52,10.64,10.17,13.98,16.8,4.7,9.34,6.34,21.38,3.71,31.46l4.83,6.46c6.27,10.28,8.59,26.38,7.86,38.55l-2.96,29.63-4.4,33.26c6.92,3.15,12.2,8.17,16.05,14.6,4.69,7.83,7.18,16.52,7.48,25.7.78,14.92-3.11,27.87-9.56,41.13-3.83,7.87-8.09,15.24-12.78,22.62-6.93,10.89-18.31,19.49-31.56,20.11l-.05,13c-.04,10.34-1.82,20.22-4.69,30.16-4.01,13.9-10.92,25.59-20.22,36.61l-17.38,18.37c-9.69,9.43-20.11,17.8-31.08,25.65l-9.09,6.23-1.73,1.07-.69.45-.44.21Z"/>
  <path class="st1" d="M260.36,431.64c-11.67,10.65-34.85,26.68-49.11,32.74l-12.64,5.37c-20.46,7.43-41.33,10.81-62.96,7.26-15.65-2.57-28.34-8.27-40.01-18.94-6.4-5.85-12.01-12.13-17.33-19.02-7.77-10.06-14.99-20.34-21.49-31.28s-11.73-23.43-15.62-36.06c-9.34-30.31-7.66-56.52-6.52-87.7l1.14-31.17c.34-9.37-1.02-33.16-3.51-41.43l-5.58-18.55-5.89-20.67c-2.27-7.97-3.05-20.33-.04-28.11,1.22-3.16,2.98-5.89,4.76-8.91l-2.71-2.57c-5.06-4.82-8.34-10.78-9.23-17.73-.72-5.64-.19-11.21,2.18-16.36,3.04-6.58,7.69-11.78,14.16-15.34-1.95-11.12,1.45-20.17,9.7-27.76,6.83-5.86,15.81-8.19,24.73-6.6,5.61-13.48,16.43-21.44,30.93-22.39,7.65-.09,14.74,2.08,21.09,6.43,2.65-2.95,4.98-5.71,7.98-8.14,10.55-8.53,23.95-12.54,37.44-11.35,4.36.62,8.29,1.19,12.35,2.74,5.39,2.06,10.26,4.88,15.04,8.45,13.29-11.86,31.44-11.68,44.47.73,2.68,2.55,4.42,5.57,6.32,8.8,11.55-6.13,26.11-5.46,37.23.8,9.05,5.1,14.95,12.65,18.3,22.38.08.23-.03.54.46.46,13.56-2.1,26.98,3.73,34.36,15.41,4.49,7.12,6.01,15.82,4.65,24.12l-2.45,8.38c10.83,7.81,14.12,20.62,14.46,33.58l-.45,12.55c-2.08,22.37-5.02,44.46-8.56,66.62-.05.31-.12.59,0,.59h.79c8.82.77,16.37,6.35,20.17,14.26,1.49,3.1,2.59,5.91,3.26,9.33,2.17,11.09,1.02,22.45-3.25,32.91l-3.03,7.41-8.08,15.39c-5.19,9.89-11.58,19.29-23.09,21.82-8.46,1.86-15.17-2.27-15.45-2.13-.18.09-.03.59-.03.78l-.02,23.35c0,7.82-.55,15.3-2.21,22.97-2.05,9.48-5.3,18.55-10.37,26.85-4.97,8.14-10.99,15.3-17.66,21.99l-7.34,7.38-11.34,10.36Z"/>
  <path class="st0" d="M101.75,278.41l6.42-21.29,6.7-23.03c-3.54-3.61-7.64-6.56-12.64-8.38,2.14,5.05.72,10.62-3.58,13.94-5.22,4.4-12.59,3.96-17.32-.91-3.19-3.28-4.31-7.63-3.08-12.28-5.56,2.52-10.36,6.33-13.35,11.48-1.05,1.81-2.76,2.74-4.75,2.21-1.71-.45-3.29-2.38-2.63-4.36.99-2.95,3.04-5.18,5.09-7.43,5.73-6.29,13.11-10.3,21.49-11.8,12.32-2.2,23.27.93,32.91,8.84l2-6.9c1-5.29-.96-11.09-4.17-15.46-1.53.92-3.32,1.34-5.16,1.13l-12.51-1.41-13.76-.45c-6.14-.2-12.14.84-17.88,3.49-5.04,2.33-8.96,5.91-12.39,9.97-1.28,1.52-3.02,2-4.57,1.13s-2.42-2.76-1.63-4.56c2.4-5.45,5.51-10.46,9.57-14.81,4.59-4.92,10.29-7.92,16.92-9.12,7.18-1.3,14.26-1.66,21.59-1.61l13.93.77c2.82.16,5.36,1.38,7.51,3.17,1.22,1.01,1.57,2.48,2.39,3.73,1.95,2.98,3.94,5.7,5.38,8.99,2.04,4.65,3.18,9.56,2.69,14.66l-1.86,7.94-5.35,19.71-9.81,33.23c-1.29,4.36-1.49,8.32.53,12.53,1.62,3.36,4.07,6.1,6.94,8.57,3.29,2.83,6.96,5,11.28,5.46,4.36.47,8.06-.98,10.96-4.22,3.69-4.12,8.73-6.87,14.34-6.93l6.73.65c2.56.25,4.8-.28,6.63-1.9,3.5-3.1,3.08-8.22.94-12.77-.95-2.01-.25-4.25,1.58-5.2,1.74-.9,4.11-.32,5.1,1.58,1.68,3.24,2.58,6.86,2.6,10.53-.06,5.17-2.32,9.57-6.42,12.61-2.8,2.32-6.15,3.17-10.02,4.11,6.27,2.9,12.64,5.28,19.48,6.47l15.11,1.42c3.69.35,7.17.44,10.78,1.44,4.34,1.2,8.69,2.82,12.05,5.93,5.19,4.8,7.65,11.39,8.61,18.29l1.09,15.68c.08,1.21.84,2.24,1.66,2.79s2,.67,3,.05c1.4-.87,2.15-2.48,2.62-4.07l3.29-11.37c1.68-5.79,5.13-10.7,10.12-14l9.57-6.32c15.03-9.94,26.42-20.49,30.66-38.71,1.78-7.63,2.75-15.11,3.17-23.03.65-12.32.56-24.33-.17-36.62-.69-11.66-2.5-23.77-9.21-33.37-2.81-4.03-6.13-7.41-9.65-10.8-4.95-4.76-9.65-9.82-9.35-17.25l.53-13.11c.24-5.95-.07-11.6-1.96-17.21-4.23-12.51-14.58-19.37-27.32-21.91-10.28-2.04-20.58-2.49-31.08-1.87-7.54.44-14.72.84-22.04,2.48l-24.44,5.49c-9.77,2.58-19.35,4.66-29.42,5.68-10.34,1.05-20.46.39-30.72-1.05l-10.68-1.5c-4.19-.31-8.18-.18-12.19.89-8.39,2.23-15.65,7.19-20.03,14.76-2.71,4.69-4.23,9.7-5.52,14.95-5.79,23.63-7.03,43.77-6.18,67.98l1.04,29.63c.42,11.87-.6,23.36-.98,35.18l-.75,23.14c.25,12.41,2.53,23.71,11.3,32.7l7.54,7.73c5.43,5.57,5.1,18.4,10.01,17.05.95-.26,1.62-1.34,1.53-2.49l-.55-6.96c-.81-10.22,2.2-18.96,10.43-25.18,3.11-2.35,6.5-3.89,10.27-5.01,6.56-1.94,12.52-4.78,18.06-8.8l6.21-3.86-5.5-3.88s-14.13-11.67-9.73-27.05Z"/>
  <path d="M207.26,191.12l-13.94,2.12-22.57,4.63c-3.14.64-6.11,1.2-9.09-.46-3.26-1.83-5.43-6.25-4.03-9.95,1.12-2.97,4.02-4.89,7.12-5.74,15.23-4.18,30.9-6.06,46.72-5.97,8.26.05,15.87,2.29,22.93,6.47,7.94,4.7,14.7,10.83,20.29,18.14,1.07,1.39.16,3.35-.92,4.23-1.33,1.09-2.96,1.02-4.53-.02-7.18-4.73-14.74-8.46-22.91-11.25-6.19-2.11-12.32-2.84-19.07-2.2Z"/>
  <path d="M216.75,229.94c-5.37,5.41-13.51,5.27-18.77-.06-3.78-3.83-5.15-9.26-2.71-14.45-7.16,1.74-13.07,5.69-18.04,10.86-1.58,1.64-4.09,1.72-5.67.26s-1.6-4,0-5.62c4.19-4.21,8.74-7.99,14.17-10.47,15.37-7.01,33.09-5.25,46.84,4.39,2.63,1.84,5.02,3.62,7.13,6,1.5,1.68,1.18,3.87-.22,5.31-1.5,1.55-3.63,1.38-5.4-.01l-7.35-5.75c-2.06-1.61-4.31-2.59-6.81-3.57,1.55,4.78.38,9.51-3.18,13.11Z"/>
  <path class="st2" d="M134.43,411.84c-2.48,2.49-5.14,3.98-8.62,4.35-8.16.89-15.28-4.09-21.21-9.53l-8.37-9.35c-10.82-12.09-11.09-32.65-7.99-47.99,1.01-4.99,4.4-8.81,9.33-10.26,6.04-1.79,11.84-3.53,17.67-6.1,6.7-2.96,11.11-3.93,18.14-1.77,4.22,1.3,8.45.91,12.13-1.62,3.4-2.33,6.99-3.17,11.11-2.72l18.41,1.99c6.92.75,13.55.7,20.47.34,3.89-.2,7.74.95,10.54,3.52,5.22,4.8,6.75,18.34,7.6,26.08.92,8.41-.26,16.43-3.84,24.16-5.49,11.84-14.63,21.6-26.09,27.87-3.72,2.04-7.55,3.31-11.72,3.91-5.27.76-10.31-.59-14.35-3.99-6.89-5.79-16.74-5.39-23.21,1.1Z"/>
  <path d="M98.25,352.7c-2.42-.74-3.25-3.43-2.37-5.34.98-2.13,3.26-2.78,5.47-1.9,2.65,1.05,5.39,1.47,8.28,1.84,10.03,1.3,19.9,1.3,30.02.67,15.62-.98,30.4-2.46,45.27-7.37,4.01-1.32,7.59-3.15,11.19-5.27,1.82-1.07,4.09-.12,5.07,1.47,1.13,1.82.62,4.2-1.38,5.28l-5.94,3.21c-5.72,2.47-11.41,4.61-17.63,5.9-19.4,4.04-39.05,5.65-58.86,4.79-6.61-.29-12.78-1.35-19.12-3.28Z"/>
  <path d="M126.74,379.74l-8.31-2.72c-2.07-.68-2.64-3.25-1.99-4.9.81-2.05,2.97-2.95,5.03-2.13,12.07,4.8,32.55,3.41,44.7-1.39,1.4-.55,2.58-1.46,4.13-1.7s2.91.9,3.49,1.96c.84,1.53.47,3.33-.7,4.53-2.92,3.01-6.68,2.01-7.92,5.21-3.6,9.26-12.06,14-21.9,13.21-7.39-.6-13.62-5.07-16.53-12.07Z"/>
  <path class="st3" d="M330.34,309.03c-7.27,5.36-14.49,4.82-21.11-1.03l-.15-52.35c-.01-3.78.58-7.21,1.65-10.68,1.32-4.27,3.67-7.77,6.86-10.85,9.1-8.8,23.66-10.92,31.95-.88,2.34,2.84,3.96,6.12,4.8,9.83,3.18,14-.47,26.26-6.68,38.85l-10.16,18.52c-1.84,3.35-4.17,6.06-7.16,8.6Z"/>
  <path d="M326.19,286.54c-1.49,1.65-2.83,3.24-4.55,4.43-1.71,1.19-3.98.26-4.99-1.2-1.18-1.72-.81-3.94.87-5.36,2.45-2.08,4.61-4.73,5.06-8.05.57-4.24-1.43-8.02-4.31-10.95-1.55-1.58-2.12-3.43-1.54-5.62,1.54-5.82,4.27-11.3,8.17-15.88,2.39-2.81,5.28-4.68,8.77-5.66,5.53-1.55,11.42.83,13.78,6.16.82,1.87-.49,4.1-2.04,4.8-1.96.89-4.13.09-5.2-1.79-.82-1.46-2.31-2.03-4-1.71-6.03,1.23-9.47,9.09-11.69,14.92,6.75,7.59,8.42,17.48,1.67,25.91Z"/>
</svg>